<svg xmlns="http://www.w3.org/2000/svg" version="1.1" xmlns:xlink="http://www.w3.org/1999/xlink" xmlns:svgjs="http://svgjs.dev/svgjs" viewBox="0 0 800 800"><defs><linearGradient x1="50%" y1="0%" x2="50%" y2="100%" id="ffflurry-grad" gradientTransform="rotate(270)"><stop stop-color="hsl(238, 82%, 13%)" stop-opacity="1" offset="0%"></stop><stop stop-color="hsl(1.4, 100%, 67%)" stop-opacity="1" offset="45%"></stop><stop stop-color="hsl(167, 52%, 78%)" stop-opacity="1" offset="100%"></stop></linearGradient></defs><rect width="100%" height="100%" fill="hsl(238, 82%, 13%)"></rect><g fill="url(#ffflurry-grad)"><rect width="678" height="3" x="-292" y="85.5" rx="1.5" transform="rotate(45, 47, 87)" opacity="0.48"></rect><rect width="614" height="3" x="260" y="527.5" rx="1.5" transform="rotate(45, 567, 529)" opacity="0.09"></rect><rect width="99" height="3" x="471.5" y="313.5" rx="1.5" transform="rotate(45, 521, 315)" opacity="0.69"></rect><rect width="134" height="3" x="351" y="751.5" rx="1.5" transform="rotate(45, 418, 753)" opacity="0.38"></rect><rect width="455" height="3" x="193.5" y="626.5" rx="1.5" transform="rotate(45, 421, 628)" opacity="0.89"></rect><rect width="101" height="3" x="572.5" y="189.5" rx="1.5" transform="rotate(45, 623, 191)" opacity="0.46"></rect><rect width="324" height="3" x="-133" y="269.5" rx="1.5" transform="rotate(45, 29, 271)" opacity="0.36"></rect><rect width="761" height="3" x="83.5" y="513.5" rx="1.5" transform="rotate(45, 464, 515)" opacity="0.50"></rect><rect width="479" height="3" x="143.5" y="221.5" rx="1.5" transform="rotate(45, 383, 223)" opacity="0.80"></rect><rect width="44" height="3" x="639" y="225.5" rx="1.5" transform="rotate(45, 661, 227)" opacity="0.37"></rect><rect width="220" height="3" x="-26" y="311.5" rx="1.5" transform="rotate(45, 84, 313)" opacity="0.34"></rect><rect width="354" height="3" x="399" y="757.5" rx="1.5" transform="rotate(45, 576, 759)" opacity="0.74"></rect><rect width="313" height="3" x="147.5" y="233.5" rx="1.5" transform="rotate(45, 304, 235)" opacity="0.85"></rect><rect width="99" height="3" x="271.5" y="632.5" rx="1.5" transform="rotate(45, 321, 634)" opacity="0.71"></rect><rect width="33" height="3" x="434.5" y="152.5" rx="1.5" transform="rotate(45, 451, 154)" opacity="0.31"></rect><rect width="167" height="3" x="645.5" y="350.5" rx="1.5" transform="rotate(45, 729, 352)" opacity="0.67"></rect><rect width="249" height="3" x="450.5" y="637.5" rx="1.5" transform="rotate(45, 575, 639)" opacity="0.40"></rect><rect width="359" height="3" x="20.5" y="762.5" rx="1.5" transform="rotate(45, 200, 764)" opacity="0.44"></rect><rect width="90" height="3" x="114" y="293.5" rx="1.5" transform="rotate(45, 159, 295)" opacity="0.26"></rect><rect width="304" height="3" x="337" y="741.5" rx="1.5" transform="rotate(45, 489, 743)" opacity="0.94"></rect><rect width="631" height="3" x="-198.5" y="193.5" rx="1.5" transform="rotate(45, 117, 195)" opacity="0.99"></rect><rect width="435" height="3" x="-6.5" y="494.5" rx="1.5" transform="rotate(45, 211, 496)" opacity="0.46"></rect><rect width="511" height="3" x="482.5" y="759.5" rx="1.5" transform="rotate(45, 738, 761)" opacity="0.87"></rect><rect width="132" height="3" x="679" y="29.5" rx="1.5" transform="rotate(45, 745, 31)" opacity="0.58"></rect><rect width="346" height="3" x="189" y="132.5" rx="1.5" transform="rotate(45, 362, 134)" opacity="1.00"></rect><rect width="194" height="3" x="393" y="177.5" rx="1.5" transform="rotate(45, 490, 179)" opacity="0.34"></rect><rect width="420" height="3" x="556" y="668.5" rx="1.5" transform="rotate(45, 766, 670)" opacity="0.16"></rect><rect width="440" height="3" x="199" y="344.5" rx="1.5" transform="rotate(45, 419, 346)" opacity="0.79"></rect><rect width="403" height="3" x="561.5" y="111.5" rx="1.5" transform="rotate(45, 763, 113)" opacity="0.81"></rect><rect width="233" height="3" x="420.5" y="194.5" rx="1.5" transform="rotate(45, 537, 196)" opacity="0.94"></rect><rect width="527" height="3" x="89.5" y="34.5" rx="1.5" transform="rotate(45, 353, 36)" opacity="0.67"></rect><rect width="497" height="3" x="376.5" y="347.5" rx="1.5" transform="rotate(45, 625, 349)" opacity="0.80"></rect><rect width="97" height="3" x="468.5" y="89.5" rx="1.5" transform="rotate(45, 517, 91)" opacity="0.45"></rect><rect width="85" height="3" x="273.5" y="770.5" rx="1.5" transform="rotate(45, 316, 772)" opacity="0.98"></rect><rect width="583" height="3" x="164.5" y="251.5" rx="1.5" transform="rotate(45, 456, 253)" opacity="0.43"></rect><rect width="102" height="3" x="177" y="369.5" rx="1.5" transform="rotate(45, 228, 371)" opacity="0.60"></rect><rect width="494" height="3" x="23" y="712.5" rx="1.5" transform="rotate(45, 270, 714)" opacity="0.16"></rect><rect width="337" height="3" x="591.5" y="277.5" rx="1.5" transform="rotate(45, 760, 279)" opacity="0.17"></rect><rect width="479" height="3" x="-190.5" y="587.5" rx="1.5" transform="rotate(45, 49, 589)" opacity="0.46"></rect><rect width="414" height="3" x="221" y="92.5" rx="1.5" transform="rotate(45, 428, 94)" opacity="0.30"></rect><rect width="543" height="3" x="-145.5" y="730.5" rx="1.5" transform="rotate(45, 126, 732)" opacity="0.86"></rect><rect width="408" height="3" x="472" y="143.5" rx="1.5" transform="rotate(45, 676, 145)" opacity="0.58"></rect><rect width="207" height="3" x="488.5" y="127.5" rx="1.5" transform="rotate(45, 592, 129)" opacity="0.41"></rect><rect width="368" height="3" x="69" y="158.5" rx="1.5" transform="rotate(45, 253, 160)" opacity="0.27"></rect><rect width="150" height="3" x="50" y="612.5" rx="1.5" transform="rotate(45, 125, 614)" opacity="0.35"></rect><rect width="340" height="3" x="313" y="26.5" rx="1.5" transform="rotate(45, 483, 28)" opacity="0.22"></rect><rect width="546" height="3" x="261" y="415.5" rx="1.5" transform="rotate(45, 534, 417)" opacity="0.60"></rect><rect width="348" height="3" x="-103" y="477.5" rx="1.5" transform="rotate(45, 71, 479)" opacity="0.56"></rect><rect width="513" height="3" x="-156.5" y="400.5" rx="1.5" transform="rotate(45, 100, 402)" opacity="0.57"></rect><rect width="170" height="3" x="557" y="718.5" rx="1.5" transform="rotate(45, 642, 720)" opacity="0.44"></rect><rect width="378" height="3" x="504" y="664.5" rx="1.5" transform="rotate(45, 693, 666)" opacity="0.44"></rect><rect width="503" height="3" x="330.5" y="248.5" rx="1.5" transform="rotate(45, 582, 250)" opacity="0.95"></rect><rect width="312" height="3" x="516" y="278.5" rx="1.5" transform="rotate(45, 672, 280)" opacity="0.41"></rect><rect width="391" height="3" x="160.5" y="430.5" rx="1.5" transform="rotate(45, 356, 432)" opacity="0.20"></rect><rect width="375" height="3" x="29.5" y="230.5" rx="1.5" transform="rotate(45, 217, 232)" opacity="0.53"></rect><rect width="134" height="3" x="614" y="73.5" rx="1.5" transform="rotate(45, 681, 75)" opacity="1.00"></rect><rect width="40" height="3" x="699" y="191.5" rx="1.5" transform="rotate(45, 719, 193)" opacity="0.88"></rect><rect width="199" height="3" x="642.5" y="494.5" rx="1.5" transform="rotate(45, 742, 496)" opacity="0.18"></rect><rect width="527" height="3" x="-115.5" y="85.5" rx="1.5" transform="rotate(45, 148, 87)" opacity="0.92"></rect><rect width="247" height="3" x="-83.5" y="676.5" rx="1.5" transform="rotate(45, 40, 678)" opacity="0.91"></rect><rect width="89" height="3" x="593.5" y="576.5" rx="1.5" transform="rotate(45, 638, 578)" opacity="0.78"></rect><rect width="505" height="3" x="27.5" y="91.5" rx="1.5" transform="rotate(45, 280, 93)" opacity="0.63"></rect><rect width="113" height="3" x="257.5" y="319.5" rx="1.5" transform="rotate(45, 314, 321)" opacity="0.83"></rect><rect width="733" height="3" x="-24.5" y="536.5" rx="1.5" transform="rotate(45, 342, 538)" opacity="0.91"></rect><rect width="464" height="3" x="-22" y="30.5" rx="1.5" transform="rotate(45, 210, 32)" opacity="0.47"></rect><rect width="388" height="3" x="579" y="198.5" rx="1.5" transform="rotate(45, 773, 200)" opacity="0.75"></rect><rect width="351" height="3" x="26.5" y="676.5" rx="1.5" transform="rotate(45, 202, 678)" opacity="0.91"></rect><rect width="146" height="3" x="-23" y="760.5" rx="1.5" transform="rotate(45, 50, 762)" opacity="0.49"></rect><rect width="426" height="3" x="556" y="573.5" rx="1.5" transform="rotate(45, 769, 575)" opacity="0.57"></rect><rect width="121" height="3" x="299.5" y="705.5" rx="1.5" transform="rotate(45, 360, 707)" opacity="0.46"></rect><rect width="584" height="3" x="-65" y="598.5" rx="1.5" transform="rotate(45, 227, 600)" opacity="0.94"></rect><rect width="209" height="3" x="396.5" y="646.5" rx="1.5" transform="rotate(45, 501, 648)" opacity="0.44"></rect><rect width="43" height="3" x="582.5" y="38.5" rx="1.5" transform="rotate(45, 604, 40)" opacity="0.75"></rect><rect width="230" height="3" x="643" y="416.5" rx="1.5" transform="rotate(45, 758, 418)" opacity="0.81"></rect><rect width="224" height="3" x="590" y="576.5" rx="1.5" transform="rotate(45, 702, 578)" opacity="0.81"></rect><rect width="275" height="3" x="-112.5" y="523.5" rx="1.5" transform="rotate(45, 25, 525)" opacity="0.36"></rect><rect width="402" height="3" x="451" y="455.5" rx="1.5" transform="rotate(45, 652, 457)" opacity="0.27"></rect></g></svg>