<svg xmlns="http://www.w3.org/2000/svg" version="1.1" xmlns:xlink="http://www.w3.org/1999/xlink" xmlns:svgjs="http://svgjs.dev/svgjs" viewBox="0 0 800 800"><circle r="7" cx="315" cy="61" fill="hsl(231, 75%, 70%)" opacity="0.13"></circle><circle r="20" cx="149" cy="38" fill="hsl(292, 75%, 70%)" opacity="0.56"></circle><circle r="10.5" cx="69" cy="107" fill="hsl(242, 75%, 70%)" opacity="0.20"></circle><circle r="12" cx="448" cy="756" fill="hsl(262, 75%, 70%)" opacity="0.82"></circle><circle r="14" cx="73" cy="55" fill="hsl(255, 75%, 70%)" opacity="0.36"></circle><circle r="9.5" cx="20" cy="628" fill="hsl(158, 75%, 70%)" opacity="0.68"></circle><circle r="10" cx="390" cy="199" fill="hsl(289, 75%, 70%)" opacity="0.62"></circle><circle r="5" cx="568" cy="649" fill="hsl(110, 75%, 70%)" opacity="0.46"></circle><circle r="16.5" cx="111" cy="760" fill="hsl(231, 75%, 70%)" opacity="0.13"></circle><circle r="13.5" cx="661" cy="41" fill="hsl(181, 75%, 70%)" opacity="0.48"></circle><circle r="14" cx="517" cy="26" fill="hsl(319, 75%, 70%)" opacity="0.81"></circle><circle r="11.5" cx="95" cy="18" fill="hsl(281, 75%, 70%)" opacity="0.68"></circle><circle r="7.5" cx="731" cy="775" fill="hsl(134, 75%, 70%)" opacity="0.47"></circle><circle r="6.5" cx="25" cy="490" fill="hsl(169, 75%, 70%)" opacity="0.21"></circle><circle r="12.5" cx="103" cy="163" fill="hsl(244, 75%, 70%)" opacity="0.26"></circle><circle r="8.5" cx="328" cy="584" fill="hsl(298, 75%, 70%)" opacity="0.27"></circle><circle r="12.5" cx="161" cy="779" fill="hsl(257, 75%, 70%)" opacity="0.81"></circle><circle r="8.5" cx="704" cy="383" fill="hsl(104, 75%, 70%)" opacity="0.31"></circle><circle r="12" cx="450" cy="18" fill="hsl(299, 75%, 70%)" opacity="0.84"></circle><circle r="7" cx="673" cy="359" fill="hsl(74, 75%, 70%)" opacity="0.85"></circle><circle r="13" cx="363" cy="172" fill="hsl(297, 75%, 70%)" opacity="0.65"></circle><circle r="9" cx="783" cy="199" fill="hsl(203, 75%, 70%)" opacity="0.52"></circle><circle r="11.5" cx="485" cy="31" fill="hsl(319, 75%, 70%)" opacity="0.27"></circle><circle r="13" cx="257" cy="256" fill="hsl(286, 75%, 70%)" opacity="0.45"></circle><circle r="11" cx="146" cy="537" fill="hsl(252, 75%, 70%)" opacity="0.81"></circle><circle r="7.5" cx="579" cy="697" fill="hsl(96, 75%, 70%)" opacity="0.12"></circle><circle r="10.5" cx="780" cy="255" fill="hsl(203, 75%, 70%)" opacity="0.43"></circle><circle r="5" cx="595" cy="776" fill="hsl(85, 75%, 70%)" opacity="0.27"></circle><circle r="11" cx="355" cy="663" fill="hsl(297, 75%, 70%)" opacity="0.29"></circle><circle r="9.5" cx="36" cy="665" fill="hsl(169, 75%, 70%)" opacity="0.27"></circle><circle r="10.5" cx="256" cy="710" fill="hsl(286, 75%, 70%)" opacity="0.71"></circle><circle r="11.5" cx="619" cy="20" fill="hsl(248, 75%, 70%)" opacity="0.27"></circle><circle r="16" cx="97" cy="339" fill="hsl(222, 75%, 70%)" opacity="0.22"></circle><circle r="6" cx="444" cy="133" fill="hsl(281, 75%, 70%)" opacity="0.33"></circle><circle r="14.5" cx="475" cy="79" fill="hsl(294, 75%, 70%)" opacity="0.18"></circle><circle r="14.5" cx="397" cy="692" fill="hsl(289, 75%, 70%)" opacity="0.40"></circle><circle r="9" cx="265" cy="613" fill="hsl(289, 75%, 70%)" opacity="0.48"></circle><circle r="8" cx="269" cy="65" fill="hsl(242, 75%, 70%)" opacity="0.30"></circle><circle r="8.5" cx="69" cy="713" fill="hsl(202, 75%, 70%)" opacity="0.37"></circle><circle r="12.5" cx="259" cy="163" fill="hsl(286, 75%, 70%)" opacity="0.19"></circle><circle r="10.5" cx="408" cy="123" fill="hsl(290, 75%, 70%)" opacity="0.44"></circle><circle r="8" cx="548" cy="505" fill="hsl(141, 75%, 70%)" opacity="1.00"></circle><circle r="6" cx="655" cy="171" fill="hsl(74, 75%, 70%)" opacity="0.24"></circle><circle r="22" cx="311" cy="294" fill="hsl(296, 75%, 70%)" opacity="0.58"></circle><circle r="13.5" cx="214" cy="388" fill="hsl(277, 75%, 70%)" opacity="0.86"></circle><circle r="10" cx="465" cy="251" fill="hsl(238, 75%, 70%)" opacity="0.76"></circle><circle r="13" cx="766" cy="149" fill="hsl(185, 75%, 70%)" opacity="0.71"></circle><circle r="7" cx="559" cy="10" fill="hsl(322, 75%, 70%)" opacity="0.34"></circle><circle r="14" cx="141" cy="134" fill="hsl(273, 75%, 70%)" opacity="0.31"></circle><circle r="15.5" cx="382" cy="632" fill="hsl(293, 75%, 70%)" opacity="0.35"></circle><circle r="7" cx="654" cy="220" fill="hsl(69, 75%, 70%)" opacity="0.92"></circle><circle r="11.5" cx="774" cy="653" fill="hsl(185, 75%, 70%)" opacity="0.32"></circle><circle r="9" cx="447" cy="534" fill="hsl(262, 75%, 70%)" opacity="0.75"></circle><circle r="10" cx="455" cy="192" fill="hsl(251, 75%, 70%)" opacity="0.55"></circle><circle r="14.5" cx="179" cy="610" fill="hsl(266, 75%, 70%)" opacity="0.63"></circle><circle r="7.5" cx="305" cy="641" fill="hsl(296, 75%, 70%)" opacity="0.46"></circle><circle r="11.5" cx="321" cy="364" fill="hsl(298, 75%, 70%)" opacity="0.51"></circle><circle r="10" cx="694" cy="316" fill="hsl(92, 75%, 70%)" opacity="0.69"></circle><circle r="10.5" cx="224" cy="744" fill="hsl(277, 75%, 70%)" opacity="0.93"></circle><circle r="12.5" cx="350" cy="390" fill="hsl(297, 75%, 70%)" opacity="0.74"></circle><circle r="7.5" cx="290" cy="47" fill="hsl(219, 75%, 70%)" opacity="0.55"></circle><circle r="10" cx="468" cy="332" fill="hsl(238, 75%, 70%)" opacity="0.37"></circle><circle r="8.5" cx="526" cy="690" fill="hsl(158, 75%, 70%)" opacity="0.84"></circle><circle r="9" cx="220" cy="672" fill="hsl(277, 75%, 70%)" opacity="0.64"></circle><circle r="6" cx="738" cy="461" fill="hsl(150, 75%, 70%)" opacity="0.65"></circle><circle r="14" cx="359" cy="583" fill="hsl(297, 75%, 70%)" opacity="0.22"></circle><circle r="8.5" cx="723" cy="426" fill="hsl(118, 75%, 70%)" opacity="0.93"></circle><circle r="9.5" cx="370" cy="91" fill="hsl(276, 75%, 70%)" opacity="0.25"></circle><circle r="11" cx="294" cy="784" fill="hsl(294, 75%, 70%)" opacity="0.19"></circle><circle r="11.5" cx="288" cy="568" fill="hsl(294, 75%, 70%)" opacity="0.17"></circle><circle r="13" cx="378" cy="22" fill="hsl(241, 75%, 70%)" opacity="0.30"></circle><circle r="9" cx="756" cy="691" fill="hsl(167, 75%, 70%)" opacity="0.79"></circle><circle r="9" cx="72" cy="207" fill="hsl(202, 75%, 70%)" opacity="0.59"></circle><circle r="8" cx="236" cy="788" fill="hsl(280, 75%, 70%)" opacity="0.70"></circle><circle r="7.5" cx="607" cy="581" fill="hsl(76, 75%, 70%)" opacity="0.37"></circle><circle r="12.5" cx="25" cy="28" fill="hsl(197, 75%, 70%)" opacity="0.83"></circle><circle r="7.5" cx="563" cy="774" fill="hsl(110, 75%, 70%)" opacity="0.47"></circle><circle r="19.5" cx="375" cy="278" fill="hsl(296, 75%, 70%)" opacity="0.32"></circle><circle r="19" cx="445" cy="419" fill="hsl(262, 75%, 70%)" opacity="0.16"></circle><circle r="12" cx="70" cy="509" fill="hsl(202, 75%, 70%)" opacity="0.39"></circle><circle r="9.5" cx="218" cy="501" fill="hsl(277, 75%, 70%)" opacity="0.21"></circle><circle r="11" cx="738" cy="341" fill="hsl(150, 75%, 70%)" opacity="0.89"></circle><circle r="6" cx="730" cy="503" fill="hsl(134, 75%, 70%)" opacity="0.44"></circle><circle r="11.5" cx="264" cy="375" fill="hsl(289, 75%, 70%)" opacity="0.74"></circle><circle r="5.5" cx="682" cy="736" fill="hsl(82, 75%, 70%)" opacity="0.93"></circle><circle r="6.5" cx="639" cy="338" fill="hsl(66, 75%, 70%)" opacity="0.97"></circle><circle r="6.5" cx="629" cy="100" fill="hsl(139, 75%, 70%)" opacity="0.19"></circle><circle r="8" cx="223" cy="534" fill="hsl(277, 75%, 70%)" opacity="0.73"></circle><circle r="12.5" cx="40" cy="267" fill="hsl(180, 75%, 70%)" opacity="0.32"></circle><circle r="10" cx="148" cy="579" fill="hsl(252, 75%, 70%)" opacity="0.71"></circle><circle r="9.5" cx="418" cy="175" fill="hsl(281, 75%, 70%)" opacity="0.33"></circle><circle r="5.5" cx="625" cy="191" fill="hsl(67, 75%, 70%)" opacity="0.70"></circle><circle r="9" cx="524" cy="464" fill="hsl(175, 75%, 70%)" opacity="0.40"></circle><circle r="10.5" cx="199" cy="766" fill="hsl(270, 75%, 70%)" opacity="0.74"></circle><circle r="7.5" cx="691" cy="780" fill="hsl(92, 75%, 70%)" opacity="0.82"></circle><circle r="13.5" cx="258" cy="460" fill="hsl(286, 75%, 70%)" opacity="0.59"></circle><circle r="8.5" cx="498" cy="363" fill="hsl(209, 75%, 70%)" opacity="0.65"></circle><circle r="7.5" cx="637" cy="686" fill="hsl(67, 75%, 70%)" opacity="1.00"></circle><circle r="11.5" cx="430" cy="268" fill="hsl(271, 75%, 70%)" opacity="0.18"></circle><circle r="10" cx="192" cy="124" fill="hsl(279, 75%, 70%)" opacity="0.53"></circle><circle r="7.5" cx="529" cy="404" fill="hsl(158, 75%, 70%)" opacity="0.90"></circle><circle r="11" cx="200" cy="160" fill="hsl(278, 75%, 70%)" opacity="0.36"></circle><circle r="8.5" cx="508" cy="720" fill="hsl(193, 75%, 70%)" opacity="0.37"></circle><circle r="7" cx="645" cy="736" fill="hsl(66, 75%, 70%)" opacity="0.25"></circle><circle r="12" cx="412" cy="513" fill="hsl(284, 75%, 70%)" opacity="0.19"></circle><circle r="10" cx="119" cy="590" fill="hsl(239, 75%, 70%)" opacity="0.26"></circle><circle r="15" cx="170" cy="87" fill="hsl(284, 75%, 70%)" opacity="0.23"></circle><circle r="14" cx="453" cy="707" fill="hsl(251, 75%, 70%)" opacity="0.98"></circle><circle r="15" cx="357" cy="487" fill="hsl(297, 75%, 70%)" opacity="0.37"></circle><circle r="7" cx="15" cy="705" fill="hsl(158, 75%, 70%)" opacity="0.45"></circle><circle r="12" cx="291" cy="354" fill="hsl(294, 75%, 70%)" opacity="0.16"></circle><circle r="12.5" cx="493" cy="274" fill="hsl(209, 75%, 70%)" opacity="0.46"></circle><circle r="7" cx="258" cy="512" fill="hsl(286, 75%, 70%)" opacity="0.35"></circle><circle r="5" cx="596" cy="366" fill="hsl(85, 75%, 70%)" opacity="0.65"></circle><circle r="13" cx="97" cy="470" fill="hsl(222, 75%, 70%)" opacity="0.93"></circle><circle r="10.5" cx="137" cy="188" fill="hsl(246, 75%, 70%)" opacity="0.54"></circle><circle r="8.5" cx="755" cy="727" fill="hsl(167, 75%, 70%)" opacity="0.32"></circle><circle r="10.5" cx="775" cy="417" fill="hsl(203, 75%, 70%)" opacity="0.36"></circle><circle r="10.5" cx="45" cy="445" fill="hsl(180, 75%, 70%)" opacity="0.64"></circle><circle r="14" cx="208" cy="25" fill="hsl(257, 75%, 70%)" opacity="0.81"></circle><circle r="8" cx="39" cy="724" fill="hsl(180, 75%, 70%)" opacity="0.81"></circle><circle r="12" cx="715" cy="637" fill="hsl(118, 75%, 70%)" opacity="0.74"></circle><circle r="18.5" cx="113" cy="274" fill="hsl(239, 75%, 70%)" opacity="0.20"></circle><circle r="7.5" cx="247" cy="491" fill="hsl(283, 75%, 70%)" opacity="0.82"></circle><circle r="11.5" cx="779" cy="310" fill="hsl(203, 75%, 70%)" opacity="0.57"></circle><circle r="17" cx="415" cy="468" fill="hsl(278, 75%, 70%)" opacity="0.16"></circle><circle r="14" cx="548" cy="122" fill="hsl(198, 75%, 70%)" opacity="0.68"></circle><circle r="12" cx="739" cy="286" fill="hsl(150, 75%, 70%)" opacity="0.22"></circle><circle r="9" cx="485" cy="741" fill="hsl(224, 75%, 70%)" opacity="0.58"></circle><circle r="15" cx="732" cy="32" fill="hsl(165, 75%, 70%)" opacity="0.13"></circle><circle r="10" cx="246" cy="574" fill="hsl(283, 75%, 70%)" opacity="0.18"></circle><circle r="13" cx="151" cy="316" fill="hsl(257, 75%, 70%)" opacity="0.92"></circle><circle r="13" cx="93" cy="555" fill="hsl(222, 75%, 70%)" opacity="0.86"></circle><circle r="14" cx="108" cy="104" fill="hsl(267, 75%, 70%)" opacity="0.71"></circle><circle r="8.5" cx="626" cy="470" fill="hsl(67, 75%, 70%)" opacity="0.55"></circle><circle r="5.5" cx="516" cy="536" fill="hsl(175, 75%, 70%)" opacity="0.98"></circle><circle r="7" cx="603" cy="727" fill="hsl(76, 75%, 70%)" opacity="0.13"></circle><circle r="6" cx="549" cy="626" fill="hsl(141, 75%, 70%)" opacity="0.86"></circle><circle r="7" cx="612" cy="425" fill="hsl(76, 75%, 70%)" opacity="0.32"></circle><circle r="7.5" cx="174" cy="680" fill="hsl(262, 75%, 70%)" opacity="0.42"></circle><circle r="8" cx="564" cy="407" fill="hsl(110, 75%, 70%)" opacity="0.79"></circle><circle r="13.5" cx="163" cy="730" fill="hsl(262, 75%, 70%)" opacity="0.40"></circle><circle r="6" cx="632" cy="616" fill="hsl(67, 75%, 70%)" opacity="0.87"></circle><circle r="9" cx="566" cy="182" fill="hsl(114, 75%, 70%)" opacity="0.31"></circle><circle r="6.5" cx="569" cy="591" fill="hsl(110, 75%, 70%)" opacity="0.61"></circle><circle r="13" cx="303" cy="699" fill="hsl(296, 75%, 70%)" opacity="0.90"></circle><circle r="13.5" cx="376" cy="541" fill="hsl(293, 75%, 70%)" opacity="0.54"></circle><circle r="15.5" cx="498" cy="146" fill="hsl(235, 75%, 70%)" opacity="0.39"></circle><circle r="5" cx="613" cy="314" fill="hsl(70, 75%, 70%)" opacity="0.86"></circle><circle r="12" cx="391" cy="351" fill="hsl(289, 75%, 70%)" opacity="0.82"></circle><circle r="8.5" cx="448" cy="162" fill="hsl(273, 75%, 70%)" opacity="0.77"></circle><circle r="6.5" cx="586" cy="625" fill="hsl(96, 75%, 70%)" opacity="0.83"></circle><circle r="9.5" cx="319" cy="664" fill="hsl(298, 75%, 70%)" opacity="0.89"></circle><circle r="10" cx="206" cy="575" fill="hsl(273, 75%, 70%)" opacity="0.40"></circle><circle r="6" cx="311" cy="599" fill="hsl(296, 75%, 70%)" opacity="0.50"></circle><circle r="7" cx="297" cy="14" fill="hsl(199, 75%, 70%)" opacity="0.23"></circle><circle r="6.5" cx="550" cy="667" fill="hsl(141, 75%, 70%)" opacity="0.43"></circle><circle r="6.5" cx="15" cy="459" fill="hsl(158, 75%, 70%)" opacity="0.90"></circle><circle r="13.5" cx="422" cy="336" fill="hsl(278, 75%, 70%)" opacity="0.35"></circle><circle r="9.5" cx="456" cy="111" fill="hsl(285, 75%, 70%)" opacity="0.49"></circle><circle r="9.5" cx="30" cy="352" fill="hsl(169, 75%, 70%)" opacity="0.11"></circle><circle r="10" cx="351" cy="766" fill="hsl(297, 75%, 70%)" opacity="0.96"></circle><circle r="9" cx="552" cy="730" fill="hsl(125, 75%, 70%)" opacity="0.31"></circle><circle r="7.5" cx="690" cy="464" fill="hsl(92, 75%, 70%)" opacity="0.75"></circle><circle r="8.5" cx="736" cy="185" fill="hsl(134, 75%, 70%)" opacity="0.42"></circle><circle r="5.5" cx="227" cy="555" fill="hsl(280, 75%, 70%)" opacity="0.38"></circle><circle r="11.5" cx="247" cy="38" fill="hsl(238, 75%, 70%)" opacity="0.83"></circle><circle r="13.5" cx="283" cy="736" fill="hsl(292, 75%, 70%)" opacity="0.78"></circle><circle r="8" cx="785" cy="745" fill="hsl(203, 75%, 70%)" opacity="0.64"></circle><circle r="7" cx="567" cy="558" fill="hsl(110, 75%, 70%)" opacity="0.82"></circle><circle r="13" cx="230" cy="344" fill="hsl(280, 75%, 70%)" opacity="0.85"></circle><circle r="12.5" cx="181" cy="516" fill="hsl(266, 75%, 70%)" opacity="0.49"></circle><circle r="4" cx="598" cy="260" fill="hsl(85, 75%, 70%)" opacity="0.77"></circle><circle r="10" cx="542" cy="280" fill="hsl(141, 75%, 70%)" opacity="0.33"></circle><circle r="7" cx="20" cy="546" fill="hsl(158, 75%, 70%)" opacity="0.38"></circle><circle r="12.5" cx="350" cy="337" fill="hsl(298, 75%, 70%)" opacity="0.86"></circle><circle r="10" cx="177" cy="560" fill="hsl(266, 75%, 70%)" opacity="0.68"></circle><circle r="11" cx="126" cy="510" fill="hsl(246, 75%, 70%)" opacity="0.55"></circle><circle r="8.5" cx="780" cy="376" fill="hsl(203, 75%, 70%)" opacity="0.83"></circle><circle r="9" cx="504" cy="564" fill="hsl(193, 75%, 70%)" opacity="0.91"></circle><circle r="10" cx="18" cy="153" fill="hsl(181, 75%, 70%)" opacity="0.12"></circle><circle r="9.5" cx="510" cy="506" fill="hsl(193, 75%, 70%)" opacity="0.70"></circle><circle r="14.5" cx="532" cy="73" fill="hsl(273, 75%, 70%)" opacity="0.97"></circle><circle r="12" cx="171" cy="276" fill="hsl(262, 75%, 70%)" opacity="0.20"></circle><circle r="7.5" cx="666" cy="432" fill="hsl(74, 75%, 70%)" opacity="0.69"></circle><circle r="10" cx="59" cy="592" fill="hsl(192, 75%, 70%)" opacity="0.90"></circle><circle r="6.5" cx="194" cy="673" fill="hsl(270, 75%, 70%)" opacity="0.14"></circle><circle r="11.5" cx="540" cy="222" fill="hsl(141, 75%, 70%)" opacity="0.92"></circle><circle r="5.5" cx="790" cy="783" fill="hsl(219, 75%, 70%)" opacity="0.64"></circle><circle r="4" cx="719" cy="480" fill="hsl(118, 75%, 70%)" opacity="0.96"></circle><circle r="7.5" cx="695" cy="213" fill="hsl(92, 75%, 70%)" opacity="0.79"></circle><circle r="13.5" cx="192" cy="474" fill="hsl(270, 75%, 70%)" opacity="0.84"></circle><circle r="17.5" cx="434" cy="652" fill="hsl(271, 75%, 70%)" opacity="0.69"></circle><circle r="10" cx="321" cy="755" fill="hsl(298, 75%, 70%)" opacity="0.58"></circle><circle r="9" cx="231" cy="605" fill="hsl(280, 75%, 70%)" opacity="0.43"></circle><circle r="11" cx="170" cy="172" fill="hsl(270, 75%, 70%)" opacity="0.84"></circle><circle r="11.5" cx="720" cy="112" fill="hsl(135, 75%, 70%)" opacity="0.43"></circle><circle r="7.5" cx="687" cy="696" fill="hsl(82, 75%, 70%)" opacity="0.19"></circle><circle r="9" cx="499" cy="634" fill="hsl(209, 75%, 70%)" opacity="0.95"></circle><circle r="9.5" cx="198" cy="707" fill="hsl(270, 75%, 70%)" opacity="0.73"></circle><circle r="10" cx="263" cy="96" fill="hsl(258, 75%, 70%)" opacity="0.30"></circle><circle r="10.5" cx="600" cy="144" fill="hsl(113, 75%, 70%)" opacity="0.29"></circle><circle r="9" cx="64" cy="380" fill="hsl(202, 75%, 70%)" opacity="0.65"></circle><circle r="9" cx="784" cy="510" fill="hsl(203, 75%, 70%)" opacity="0.13"></circle><circle r="12" cx="109" cy="403" fill="hsl(231, 75%, 70%)" opacity="0.64"></circle><circle r="13" cx="489" cy="213" fill="hsl(209, 75%, 70%)" opacity="0.67"></circle><circle r="6.5" cx="619" cy="527" fill="hsl(70, 75%, 70%)" opacity="0.20"></circle><circle r="10" cx="666" cy="102" fill="hsl(113, 75%, 70%)" opacity="0.41"></circle><circle r="9" cx="181" cy="382" fill="hsl(266, 75%, 70%)" opacity="0.37"></circle><circle r="10" cx="441" cy="301" fill="hsl(262, 75%, 70%)" opacity="0.94"></circle><circle r="9" cx="531" cy="601" fill="hsl(158, 75%, 70%)" opacity="0.69"></circle><circle r="7.5" cx="286" cy="599" fill="hsl(292, 75%, 70%)" opacity="0.88"></circle><circle r="6" cx="722" cy="239" fill="hsl(118, 75%, 70%)" opacity="0.49"></circle><circle r="8" cx="227" cy="704" fill="hsl(280, 75%, 70%)" opacity="0.92"></circle><circle r="7.5" cx="693" cy="522" fill="hsl(92, 75%, 70%)" opacity="0.86"></circle><circle r="5" cx="625" cy="648" fill="hsl(70, 75%, 70%)" opacity="0.61"></circle><circle r="9" cx="496" cy="398" fill="hsl(209, 75%, 70%)" opacity="0.88"></circle><circle r="6" cx="577" cy="447" fill="hsl(96, 75%, 70%)" opacity="0.60"></circle><circle r="11" cx="513" cy="317" fill="hsl(175, 75%, 70%)" opacity="0.80"></circle><circle r="11.5" cx="80" cy="628" fill="hsl(213, 75%, 70%)" opacity="0.28"></circle><circle r="10" cx="477" cy="782" fill="hsl(224, 75%, 70%)" opacity="0.74"></circle><circle r="11.5" cx="304" cy="95" fill="hsl(257, 75%, 70%)" opacity="0.30"></circle><circle r="11.5" cx="391" cy="154" fill="hsl(293, 75%, 70%)" opacity="0.46"></circle><circle r="7.5" cx="530" cy="355" fill="hsl(158, 75%, 70%)" opacity="0.72"></circle><circle r="7" cx="786" cy="347" fill="hsl(203, 75%, 70%)" opacity="0.16"></circle><circle r="12" cx="209" cy="270" fill="hsl(273, 75%, 70%)" opacity="0.71"></circle><circle r="18.5" cx="311" cy="431" fill="hsl(296, 75%, 70%)" opacity="0.98"></circle><circle r="7" cx="222" cy="133" fill="hsl(279, 75%, 70%)" opacity="0.77"></circle><circle r="16.5" cx="253" cy="303" fill="hsl(286, 75%, 70%)" opacity="0.95"></circle><circle r="10.5" cx="238" cy="224" fill="hsl(283, 75%, 70%)" opacity="0.52"></circle><circle r="13" cx="774" cy="79" fill="hsl(181, 75%, 70%)" opacity="0.44"></circle><circle r="13" cx="295" cy="138" fill="hsl(285, 75%, 70%)" opacity="1.00"></circle><circle r="14" cx="211" cy="434" fill="hsl(273, 75%, 70%)" opacity="0.38"></circle><circle r="5" cx="564" cy="338" fill="hsl(110, 75%, 70%)" opacity="0.21"></circle><circle r="6.5" cx="295" cy="623" fill="hsl(294, 75%, 70%)" opacity="0.18"></circle><circle r="5" cx="601" cy="212" fill="hsl(76, 75%, 70%)" opacity="0.61"></circle><circle r="4" cx="610" cy="288" fill="hsl(76, 75%, 70%)" opacity="0.58"></circle><circle r="11.5" cx="380" cy="231" fill="hsl(293, 75%, 70%)" opacity="0.57"></circle><circle r="11.5" cx="151" cy="652" fill="hsl(257, 75%, 70%)" opacity="0.34"></circle><circle r="16.5" cx="391" cy="410" fill="hsl(289, 75%, 70%)" opacity="0.36"></circle><circle r="7" cx="672" cy="652" fill="hsl(74, 75%, 70%)" opacity="0.99"></circle><circle r="15.5" cx="286" cy="205" fill="hsl(292, 75%, 70%)" opacity="0.93"></circle><circle r="6" cx="587" cy="513" fill="hsl(96, 75%, 70%)" opacity="0.36"></circle><circle r="14" cx="772" cy="594" fill="hsl(185, 75%, 70%)" opacity="0.56"></circle><circle r="9" cx="250" cy="644" fill="hsl(286, 75%, 70%)" opacity="0.39"></circle><circle r="15.5" cx="167" cy="228" fill="hsl(262, 75%, 70%)" opacity="0.84"></circle><circle r="12" cx="485" cy="669" fill="hsl(224, 75%, 70%)" opacity="0.77"></circle><circle r="14" cx="146" cy="360" fill="hsl(252, 75%, 70%)" opacity="0.41"></circle><circle r="9.5" cx="74" cy="419" fill="hsl(202, 75%, 70%)" opacity="0.79"></circle><circle r="13.5" cx="406" cy="593" fill="hsl(284, 75%, 70%)" opacity="0.10"></circle><circle r="10.5" cx="413" cy="552" fill="hsl(278, 75%, 70%)" opacity="0.76"></circle><circle r="15" cx="144" cy="457" fill="hsl(252, 75%, 70%)" opacity="0.80"></circle><circle r="4.5" cx="599" cy="238" fill="hsl(85, 75%, 70%)" opacity="0.36"></circle><circle r="13.5" cx="396" cy="64" fill="hsl(277, 75%, 70%)" opacity="0.22"></circle><circle r="7" cx="424" cy="145" fill="hsl(288, 75%, 70%)" opacity="0.30"></circle><circle r="13" cx="60" cy="155" fill="hsl(214, 75%, 70%)" opacity="0.98"></circle><circle r="11.5" cx="774" cy="460" fill="hsl(185, 75%, 70%)" opacity="0.58"></circle><circle r="5.5" cx="571" cy="477" fill="hsl(110, 75%, 70%)" opacity="0.80"></circle><circle r="17" cx="331" cy="533" fill="hsl(298, 75%, 70%)" opacity="0.39"></circle><circle r="12" cx="334" cy="626" fill="hsl(298, 75%, 70%)" opacity="0.46"></circle><circle r="10.5" cx="481" cy="600" fill="hsl(224, 75%, 70%)" opacity="0.89"></circle><circle r="9.5" cx="336" cy="34" fill="hsl(215, 75%, 70%)" opacity="0.60"></circle><circle r="11" cx="447" cy="583" fill="hsl(262, 75%, 70%)" opacity="0.25"></circle><circle r="9.5" cx="745" cy="387" fill="hsl(150, 75%, 70%)" opacity="0.27"></circle><circle r="12.5" cx="361" cy="445" fill="hsl(297, 75%, 70%)" opacity="0.65"></circle><circle r="8" cx="221" cy="630" fill="hsl(277, 75%, 70%)" opacity="0.38"></circle><circle r="6.5" cx="31" cy="521" fill="hsl(169, 75%, 70%)" opacity="0.64"></circle><circle r="6.5" cx="657" cy="519" fill="hsl(69, 75%, 70%)" opacity="0.32"></circle><circle r="6.5" cx="557" cy="372" fill="hsl(125, 75%, 70%)" opacity="0.85"></circle><circle r="18" cx="302" cy="489" fill="hsl(296, 75%, 70%)" opacity="0.69"></circle><circle r="11" cx="493" cy="444" fill="hsl(209, 75%, 70%)" opacity="0.85"></circle><circle r="10" cx="121" cy="636" fill="hsl(239, 75%, 70%)" opacity="0.65"></circle><circle r="13.5" cx="259" cy="415" fill="hsl(286, 75%, 70%)" opacity="0.96"></circle><circle r="19" cx="328" cy="231" fill="hsl(298, 75%, 70%)" opacity="0.12"></circle><circle r="7" cx="578" cy="283" fill="hsl(96, 75%, 70%)" opacity="0.41"></circle><circle r="5" cx="621" cy="772" fill="hsl(70, 75%, 70%)" opacity="0.95"></circle><circle r="10" cx="255" cy="760" fill="hsl(286, 75%, 70%)" opacity="0.92"></circle><circle r="10" cx="41" cy="312" fill="hsl(180, 75%, 70%)" opacity="0.30"></circle><circle r="13" cx="96" cy="689" fill="hsl(222, 75%, 70%)" opacity="0.43"></circle><circle r="8.5" cx="684" cy="263" fill="hsl(82, 75%, 70%)" opacity="0.31"></circle><circle r="8.5" cx="750" cy="227" fill="hsl(150, 75%, 70%)" opacity="0.54"></circle><circle r="7.5" cx="714" cy="736" fill="hsl(118, 75%, 70%)" opacity="0.39"></circle><circle r="8" cx="661" cy="585" fill="hsl(69, 75%, 70%)" opacity="0.71"></circle><circle r="8" cx="417" cy="787" fill="hsl(278, 75%, 70%)" opacity="0.18"></circle><circle r="10.5" cx="462" cy="369" fill="hsl(251, 75%, 70%)" opacity="0.55"></circle><circle r="11.5" cx="201" cy="314" fill="hsl(273, 75%, 70%)" opacity="0.53"></circle><circle r="8.5" cx="690" cy="153" fill="hsl(98, 75%, 70%)" opacity="1.00"></circle><circle r="6.5" cx="651" cy="782" fill="hsl(69, 75%, 70%)" opacity="0.67"></circle><circle r="12" cx="425" cy="90" fill="hsl(292, 75%, 70%)" opacity="0.52"></circle><circle r="13.5" cx="28" cy="213" fill="hsl(169, 75%, 70%)" opacity="0.69"></circle><circle r="13" cx="107" cy="219" fill="hsl(231, 75%, 70%)" opacity="0.27"></circle><circle r="8" cx="762" cy="779" fill="hsl(167, 75%, 70%)" opacity="0.45"></circle><circle r="9" cx="341" cy="91" fill="hsl(267, 75%, 70%)" opacity="0.89"></circle><circle r="10.5" cx="284" cy="661" fill="hsl(292, 75%, 70%)" opacity="0.29"></circle><circle r="13.5" cx="469" cy="485" fill="hsl(238, 75%, 70%)" opacity="0.28"></circle><circle r="11.5" cx="712" cy="579" fill="hsl(104, 75%, 70%)" opacity="0.74"></circle><circle r="10" cx="189" cy="347" fill="hsl(270, 75%, 70%)" opacity="0.45"></circle><circle r="6.5" cx="637" cy="257" fill="hsl(67, 75%, 70%)" opacity="0.46"></circle><circle r="8" cx="27" cy="577" fill="hsl(169, 75%, 70%)" opacity="0.22"></circle><circle r="10" cx="416" cy="726" fill="hsl(278, 75%, 70%)" opacity="0.21"></circle><circle r="15.5" cx="349" cy="703" fill="hsl(298, 75%, 70%)" opacity="0.95"></circle><circle r="9" cx="374" cy="121" fill="hsl(286, 75%, 70%)" opacity="0.91"></circle><circle r="10" cx="564" cy="35" fill="hsl(287, 75%, 70%)" opacity="0.49"></circle><circle r="7" cx="544" cy="438" fill="hsl(141, 75%, 70%)" opacity="0.19"></circle><circle r="9" cx="66" cy="783" fill="hsl(202, 75%, 70%)" opacity="0.35"></circle><circle r="5.5" cx="600" cy="669" fill="hsl(76, 75%, 70%)" opacity="0.92"></circle><circle r="13.5" cx="327" cy="164" fill="hsl(297, 75%, 70%)" opacity="0.13"></circle><circle r="10" cx="254" cy="673" fill="hsl(286, 75%, 70%)" opacity="0.72"></circle><circle r="13.5" cx="156" cy="411" fill="hsl(257, 75%, 70%)" opacity="0.11"></circle><circle r="5.5" cx="586" cy="324" fill="hsl(96, 75%, 70%)" opacity="0.94"></circle><circle r="10.5" cx="522" cy="776" fill="hsl(175, 75%, 70%)" opacity="0.26"></circle><circle r="6.5" cx="606" cy="83" fill="hsl(177, 75%, 70%)" opacity="0.81"></circle><circle r="10.5" cx="478" cy="530" fill="hsl(224, 75%, 70%)" opacity="0.29"></circle><circle r="10.5" cx="28" cy="765" fill="hsl(169, 75%, 70%)" opacity="0.63"></circle><circle r="12.5" cx="139" cy="695" fill="hsl(252, 75%, 70%)" opacity="0.41"></circle><circle r="9" cx="199" cy="646" fill="hsl(270, 75%, 70%)" opacity="0.28"></circle><circle r="7" cx="231" cy="157" fill="hsl(282, 75%, 70%)" opacity="0.79"></circle><circle r="11" cx="21" cy="400" fill="hsl(158, 75%, 70%)" opacity="0.15"></circle><circle r="7" cx="650" cy="294" fill="hsl(66, 75%, 70%)" opacity="0.22"></circle><circle r="8" cx="247" cy="118" fill="hsl(273, 75%, 70%)" opacity="0.78"></circle><circle r="6.5" cx="650" cy="390" fill="hsl(69, 75%, 70%)" opacity="0.71"></circle><circle r="14.5" cx="26" cy="93" fill="hsl(208, 75%, 70%)" opacity="0.89"></circle><circle r="11.5" cx="274" cy="536" fill="hsl(289, 75%, 70%)" opacity="0.87"></circle><circle r="9" cx="583" cy="68" fill="hsl(223, 75%, 70%)" opacity="0.90"></circle><circle r="10" cx="428" cy="39" fill="hsl(293, 75%, 70%)" opacity="0.84"></circle><circle r="9.5" cx="412" cy="757" fill="hsl(284, 75%, 70%)" opacity="0.10"></circle><circle r="11.5" cx="379" cy="753" fill="hsl(293, 75%, 70%)" opacity="0.16"></circle><circle r="12.5" cx="219" cy="90" fill="hsl(271, 75%, 70%)" opacity="0.86"></circle><circle r="12" cx="752" cy="539" fill="hsl(167, 75%, 70%)" opacity="0.22"></circle><circle r="12.5" cx="425" cy="226" fill="hsl(271, 75%, 70%)" opacity="0.70"></circle><circle r="11.5" cx="217" cy="197" fill="hsl(277, 75%, 70%)" opacity="0.32"></circle><circle r="5.5" cx="608" cy="390" fill="hsl(76, 75%, 70%)" opacity="0.40"></circle><circle r="5.5" cx="542" cy="541" fill="hsl(141, 75%, 70%)" opacity="0.92"></circle></svg>