<svg xmlns="http://www.w3.org/2000/svg" version="1.1" xmlns:xlink="http://www.w3.org/1999/xlink" xmlns:svgjs="http://svgjs.com/svgjs" width="1440" height="560" preserveAspectRatio="none" viewBox="0 0 1440 560"><g mask="url(&quot;#SvgjsMask1002&quot;)" fill="none"><rect width="1440" height="560" x="0" y="0" fill="url(#SvgjsLinearGradient1003)"></rect><path d="M1440 0L1270.88 0L1440 271.81z" fill="rgba(255, 255, 255, .1)"></path><path d="M1270.88 0L1440 271.81L1440 392.64L701.1100000000001 0z" fill="rgba(255, 255, 255, .075)"></path><path d="M701.11 0L1440 392.64L1440 402.9L441.53000000000003 0z" fill="rgba(255, 255, 255, .05)"></path><path d="M441.53 0L1440 402.9L1440 429.22999999999996L243.06999999999996 0z" fill="rgba(255, 255, 255, .025)"></path><path d="M0 560L512.69 560L0 510.49z" fill="rgba(0, 0, 0, .1)"></path><path d="M0 510.49L512.69 560L991.26 560L0 424.66z" fill="rgba(0, 0, 0, .075)"></path><path d="M0 424.65999999999997L991.26 560L1171.53 560L0 231.65999999999997z" fill="rgba(0, 0, 0, .05)"></path><path d="M0 231.65999999999997L1171.53 560L1290.78 560L0 70.17999999999998z" fill="rgba(0, 0, 0, .025)"></path></g><defs><mask id="SvgjsMask1002"><rect width="1440" height="560" fill="#ffffff"></rect></mask><linearGradient x1="15.28%" y1="-39.29%" x2="84.72%" y2="139.29%" gradientUnits="userSpaceOnUse" id="SvgjsLinearGradient1003"><stop stop-color="#0e2a47" offset="0"></stop><stop stop-color="#00459e" offset="1"></stop></linearGradient></defs></svg>