<svg xmlns="http://www.w3.org/2000/svg" version="1.1" xmlns:xlink="http://www.w3.org/1999/xlink" xmlns:svgjs="http://svgjs.com/svgjs" width="1440" height="560" preserveAspectRatio="none" viewBox="0 0 1440 560"><g mask="url(&quot;#SvgjsMask1000&quot;)" fill="none"><rect width="1440" height="560" x="0" y="0" fill="#0e2a47"></rect><path d="M0,539.146C109.116,532.521,222.097,547.199,318.303,495.289C418.169,441.404,479.76,342.568,541.169,247.144C611.764,137.444,705.096,29.484,701.989,-100.931C698.784,-235.481,635.845,-378.903,524.456,-454.444C416.302,-527.792,270.793,-463.693,141.289,-481.186C37.111,-495.258,-57.875,-569.275,-160.608,-546.981C-265.736,-524.167,-336.619,-433.113,-415.8,-360.293C-505.161,-278.112,-632.565,-213.553,-653.248,-93.923C-673.948,25.808,-572.634,127.987,-519.075,237.053C-467.195,342.699,-445.874,476.306,-344.15,535.508C-242.946,594.407,-116.88,546.242,0,539.146" fill="#0b2239"></path><path d="M1440 996.9839999999999C1533.352 991.299 1638.05 1041.032 1714.7269999999999 987.483 1791.426 933.918 1771.586 813.815 1818.3229999999999 732.774 1872.312 639.158 2018.8719999999998 585.837 2008.391 478.278 1998.0529999999999 372.19399999999996 1854.909 339.76800000000003 1773.339 271.16 1706.328 214.79700000000003 1650.761 148.95499999999998 1571.816 111.07499999999999 1481.478 67.72899999999998 1385.758 23.107999999999947 1286.615 37.61800000000005 1181.608 52.98700000000002 1080.182 108.06599999999997 1015.8240000000001 192.45 952.9069999999999 274.944 949.844 384.999 942.733 488.504 936.079 585.355 941.931 680.995 976.0160000000001 771.894 1011.962 867.7570000000001 1050.781 977.617 1142.895 1022.304 1234.17 1066.584 1338.739 1003.15 1440 996.9839999999999" fill="#113255"></path></g><defs><mask id="SvgjsMask1000"><rect width="1440" height="560" fill="#ffffff"></rect></mask></defs></svg>