<svg xmlns="http://www.w3.org/2000/svg" version="1.1" xmlns:xlink="http://www.w3.org/1999/xlink" xmlns:svgjs="http://svgjs.dev/svgjs" viewBox="0 0 800 800"><g><circle r="42.5" cx="0" cy="0" fill="hsl(250, 75%, 50%)"></circle><circle r="42.5" cx="0" cy="85" fill="hsl(250, 75%, 50%)"></circle><circle r="42.5" cx="0" cy="170" fill="hsl(250, 75%, 50%)"></circle><circle r="42.5" cx="0" cy="255" fill="hsl(250, 75%, 50%)"></circle><circle r="42.5" cx="0" cy="340" fill="hsl(250, 75%, 50%)"></circle><circle r="42.5" cx="0" cy="425" fill="hsl(250, 75%, 50%)"></circle><circle r="42.5" cx="0" cy="510" fill="hsl(248, 75%, 50%)"></circle><circle r="42.5" cx="0" cy="595" fill="hsl(247, 75%, 50%)"></circle><circle r="42.5" cx="0" cy="680" fill="hsl(243, 75%, 50%)"></circle><circle r="42.5" cx="0" cy="765" fill="hsl(239, 75%, 50%)"></circle><circle r="42.5" cx="0" cy="850" fill="hsl(239, 75%, 50%)"></circle><circle r="42.5" cx="85" cy="0" fill="hsl(239, 75%, 50%)"></circle><circle r="42.5" cx="85" cy="85" fill="hsl(239, 75%, 50%)"></circle><circle r="42.5" cx="85" cy="170" fill="hsl(239, 75%, 50%)"></circle><circle r="42.5" cx="85" cy="255" fill="hsl(240, 75%, 50%)"></circle><circle r="42.5" cx="85" cy="340" fill="hsl(241, 75%, 50%)"></circle><circle r="42.5" cx="85" cy="425" fill="hsl(242, 75%, 50%)"></circle><circle r="42.5" cx="85" cy="510" fill="hsl(242, 75%, 50%)"></circle><circle r="42.5" cx="85" cy="595" fill="hsl(241, 75%, 50%)"></circle><circle r="42.5" cx="85" cy="680" fill="hsl(239, 75%, 50%)"></circle><circle r="42.5" cx="85" cy="765" fill="hsl(237, 75%, 50%)"></circle><circle r="42.5" cx="85" cy="850" fill="hsl(237, 75%, 50%)"></circle><circle r="42.5" cx="170" cy="0" fill="hsl(218, 75%, 50%)"></circle><circle r="42.5" cx="170" cy="85" fill="hsl(218, 75%, 50%)"></circle><circle r="42.5" cx="170" cy="170" fill="hsl(220, 75%, 50%)"></circle><circle r="42.5" cx="170" cy="255" fill="hsl(222, 75%, 50%)"></circle><circle r="42.5" cx="170" cy="340" fill="hsl(224, 75%, 50%)"></circle><circle r="42.5" cx="170" cy="425" fill="hsl(227, 75%, 50%)"></circle><circle r="42.5" cx="170" cy="510" fill="hsl(229, 75%, 50%)"></circle><circle r="42.5" cx="170" cy="595" fill="hsl(229, 75%, 50%)"></circle><circle r="42.5" cx="170" cy="680" fill="hsl(229, 75%, 50%)"></circle><circle r="42.5" cx="170" cy="765" fill="hsl(229, 75%, 50%)"></circle><circle r="42.5" cx="170" cy="850" fill="hsl(229, 75%, 50%)"></circle><circle r="42.5" cx="255" cy="0" fill="hsl(201, 75%, 50%)"></circle><circle r="42.5" cx="255" cy="85" fill="hsl(201, 75%, 50%)"></circle><circle r="42.5" cx="255" cy="170" fill="hsl(203, 75%, 50%)"></circle><circle r="42.5" cx="255" cy="255" fill="hsl(207, 75%, 50%)"></circle><circle r="42.5" cx="255" cy="340" fill="hsl(209, 75%, 50%)"></circle><circle r="42.5" cx="255" cy="425" fill="hsl(212, 75%, 50%)"></circle><circle r="42.5" cx="255" cy="510" fill="hsl(215, 75%, 50%)"></circle><circle r="42.5" cx="255" cy="595" fill="hsl(216, 75%, 50%)"></circle><circle r="42.5" cx="255" cy="680" fill="hsl(216, 75%, 50%)"></circle><circle r="42.5" cx="255" cy="765" fill="hsl(217, 75%, 50%)"></circle><circle r="42.5" cx="255" cy="850" fill="hsl(217, 75%, 50%)"></circle><circle r="42.5" cx="340" cy="0" fill="hsl(195, 75%, 50%)"></circle><circle r="42.5" cx="340" cy="85" fill="hsl(195, 75%, 50%)"></circle><circle r="42.5" cx="340" cy="170" fill="hsl(197, 75%, 50%)"></circle><circle r="42.5" cx="340" cy="255" fill="hsl(201, 75%, 50%)"></circle><circle r="42.5" cx="340" cy="340" fill="hsl(203, 75%, 50%)"></circle><circle r="42.5" cx="340" cy="425" fill="hsl(206, 75%, 50%)"></circle><circle r="42.5" cx="340" cy="510" fill="hsl(208, 75%, 50%)"></circle><circle r="42.5" cx="340" cy="595" fill="hsl(208, 75%, 50%)"></circle><circle r="42.5" cx="340" cy="680" fill="hsl(209, 75%, 50%)"></circle><circle r="42.5" cx="340" cy="765" fill="hsl(209, 75%, 50%)"></circle><circle r="42.5" cx="340" cy="850" fill="hsl(209, 75%, 50%)"></circle><circle r="42.5" cx="425" cy="0" fill="hsl(187, 75%, 50%)"></circle><circle r="42.5" cx="425" cy="85" fill="hsl(188, 75%, 50%)"></circle><circle r="42.5" cx="425" cy="170" fill="hsl(189, 75%, 50%)"></circle><circle r="42.5" cx="425" cy="255" fill="hsl(192, 75%, 50%)"></circle><circle r="42.5" cx="425" cy="340" fill="hsl(193, 75%, 50%)"></circle><circle r="42.5" cx="425" cy="425" fill="hsl(194, 75%, 50%)"></circle><circle r="42.5" cx="425" cy="510" fill="hsl(195, 75%, 50%)"></circle><circle r="42.5" cx="425" cy="595" fill="hsl(194, 75%, 50%)"></circle><circle r="42.5" cx="425" cy="680" fill="hsl(194, 75%, 50%)"></circle><circle r="42.5" cx="425" cy="765" fill="hsl(193, 75%, 50%)"></circle><circle r="42.5" cx="425" cy="850" fill="hsl(193, 75%, 50%)"></circle><circle r="42.5" cx="510" cy="0" fill="hsl(188, 75%, 50%)"></circle><circle r="42.5" cx="510" cy="85" fill="hsl(187, 75%, 50%)"></circle><circle r="42.5" cx="510" cy="170" fill="hsl(187, 75%, 50%)"></circle><circle r="42.5" cx="510" cy="255" fill="hsl(188, 75%, 50%)"></circle><circle r="42.5" cx="510" cy="340" fill="hsl(187, 75%, 50%)"></circle><circle r="42.5" cx="510" cy="425" fill="hsl(186, 75%, 50%)"></circle><circle r="42.5" cx="510" cy="510" fill="hsl(184, 75%, 50%)"></circle><circle r="42.5" cx="510" cy="595" fill="hsl(182, 75%, 50%)"></circle><circle r="42.5" cx="510" cy="680" fill="hsl(180, 75%, 50%)"></circle><circle r="42.5" cx="510" cy="765" fill="hsl(178, 75%, 50%)"></circle><circle r="42.5" cx="510" cy="850" fill="hsl(178, 75%, 50%)"></circle><circle r="42.5" cx="595" cy="0" fill="hsl(191, 75%, 50%)"></circle><circle r="42.5" cx="595" cy="85" fill="hsl(190, 75%, 50%)"></circle><circle r="42.5" cx="595" cy="170" fill="hsl(189, 75%, 50%)"></circle><circle r="42.5" cx="595" cy="255" fill="hsl(187, 75%, 50%)"></circle><circle r="42.5" cx="595" cy="340" fill="hsl(186, 75%, 50%)"></circle><circle r="42.5" cx="595" cy="425" fill="hsl(183, 75%, 50%)"></circle><circle r="42.5" cx="595" cy="510" fill="hsl(179, 75%, 50%)"></circle><circle r="42.5" cx="595" cy="595" fill="hsl(177, 75%, 50%)"></circle><circle r="42.5" cx="595" cy="680" fill="hsl(174, 75%, 50%)"></circle><circle r="42.5" cx="595" cy="765" fill="hsl(172, 75%, 50%)"></circle><circle r="42.5" cx="595" cy="850" fill="hsl(172, 75%, 50%)"></circle><circle r="42.5" cx="680" cy="0" fill="hsl(202, 75%, 50%)"></circle><circle r="42.5" cx="680" cy="85" fill="hsl(199, 75%, 50%)"></circle><circle r="42.5" cx="680" cy="170" fill="hsl(195, 75%, 50%)"></circle><circle r="42.5" cx="680" cy="255" fill="hsl(190, 75%, 50%)"></circle><circle r="42.5" cx="680" cy="340" fill="hsl(187, 75%, 50%)"></circle><circle r="42.5" cx="680" cy="425" fill="hsl(181, 75%, 50%)"></circle><circle r="42.5" cx="680" cy="510" fill="hsl(174, 75%, 50%)"></circle><circle r="42.5" cx="680" cy="595" fill="hsl(170, 75%, 50%)"></circle><circle r="42.5" cx="680" cy="680" fill="hsl(165, 75%, 50%)"></circle><circle r="42.5" cx="680" cy="765" fill="hsl(162, 75%, 50%)"></circle><circle r="42.5" cx="680" cy="850" fill="hsl(162, 75%, 50%)"></circle><circle r="42.5" cx="765" cy="0" fill="hsl(216, 75%, 50%)"></circle><circle r="42.5" cx="765" cy="85" fill="hsl(212, 75%, 50%)"></circle><circle r="42.5" cx="765" cy="170" fill="hsl(204, 75%, 50%)"></circle><circle r="42.5" cx="765" cy="255" fill="hsl(196, 75%, 50%)"></circle><circle r="42.5" cx="765" cy="340" fill="hsl(191, 75%, 50%)"></circle><circle r="42.5" cx="765" cy="425" fill="hsl(181, 75%, 50%)"></circle><circle r="42.5" cx="765" cy="510" fill="hsl(172, 75%, 50%)"></circle><circle r="42.5" cx="765" cy="595" fill="hsl(167, 75%, 50%)"></circle><circle r="42.5" cx="765" cy="680" fill="hsl(160, 75%, 50%)"></circle><circle r="42.5" cx="765" cy="765" fill="hsl(157, 75%, 50%)"></circle><circle r="42.5" cx="765" cy="850" fill="hsl(157, 75%, 50%)"></circle><circle r="42.5" cx="850" cy="0" fill="hsl(216, 75%, 50%)"></circle><circle r="42.5" cx="850" cy="85" fill="hsl(212, 75%, 50%)"></circle><circle r="42.5" cx="850" cy="170" fill="hsl(204, 75%, 50%)"></circle><circle r="42.5" cx="850" cy="255" fill="hsl(196, 75%, 50%)"></circle><circle r="42.5" cx="850" cy="340" fill="hsl(191, 75%, 50%)"></circle><circle r="42.5" cx="850" cy="425" fill="hsl(181, 75%, 50%)"></circle><circle r="42.5" cx="850" cy="510" fill="hsl(172, 75%, 50%)"></circle><circle r="42.5" cx="850" cy="595" fill="hsl(167, 75%, 50%)"></circle><circle r="42.5" cx="850" cy="680" fill="hsl(160, 75%, 50%)"></circle><circle r="42.5" cx="850" cy="765" fill="hsl(157, 75%, 50%)"></circle><circle r="42.5" cx="850" cy="850" fill="hsl(157, 75%, 50%)"></circle><circle r="42.5" cx="935" cy="0" fill="hsl(216, 75%, 50%)"></circle><circle r="42.5" cx="935" cy="85" fill="hsl(212, 75%, 50%)"></circle><circle r="42.5" cx="935" cy="170" fill="hsl(204, 75%, 50%)"></circle><circle r="42.5" cx="935" cy="255" fill="hsl(196, 75%, 50%)"></circle><circle r="42.5" cx="935" cy="340" fill="hsl(191, 75%, 50%)"></circle><circle r="42.5" cx="935" cy="425" fill="hsl(181, 75%, 50%)"></circle><circle r="42.5" cx="935" cy="510" fill="hsl(172, 75%, 50%)"></circle><circle r="42.5" cx="935" cy="595" fill="hsl(167, 75%, 50%)"></circle><circle r="42.5" cx="935" cy="680" fill="hsl(160, 75%, 50%)"></circle><circle r="42.5" cx="935" cy="765" fill="hsl(157, 75%, 50%)"></circle><circle r="42.5" cx="935" cy="850" fill="hsl(157, 75%, 50%)"></circle></g><g transform="matrix(1,0,0,1,-42.5,0)"><circle r="42.5" cx="0" cy="42.5" fill="hsl(250, 75%, 50%)"></circle><circle r="42.5" cx="0" cy="127.5" fill="hsl(250, 75%, 50%)"></circle><circle r="42.5" cx="0" cy="212.5" fill="hsl(250, 75%, 50%)"></circle><circle r="42.5" cx="0" cy="297.5" fill="hsl(250, 75%, 50%)"></circle><circle r="42.5" cx="0" cy="382.5" fill="hsl(250, 75%, 50%)"></circle><circle r="42.5" cx="0" cy="467.5" fill="hsl(249, 75%, 50%)"></circle><circle r="42.5" cx="0" cy="552.5" fill="hsl(247, 75%, 50%)"></circle><circle r="42.5" cx="0" cy="637.5" fill="hsl(245, 75%, 50%)"></circle><circle r="42.5" cx="0" cy="722.5" fill="hsl(241, 75%, 50%)"></circle><circle r="42.5" cx="0" cy="807.5" fill="hsl(239, 75%, 50%)"></circle><circle r="42.5" cx="0" cy="892.5" fill="hsl(239, 75%, 50%)"></circle><circle r="42.5" cx="85" cy="42.5" fill="hsl(239, 75%, 50%)"></circle><circle r="42.5" cx="85" cy="127.5" fill="hsl(239, 75%, 50%)"></circle><circle r="42.5" cx="85" cy="212.5" fill="hsl(240, 75%, 50%)"></circle><circle r="42.5" cx="85" cy="297.5" fill="hsl(240, 75%, 50%)"></circle><circle r="42.5" cx="85" cy="382.5" fill="hsl(241, 75%, 50%)"></circle><circle r="42.5" cx="85" cy="467.5" fill="hsl(242, 75%, 50%)"></circle><circle r="42.5" cx="85" cy="552.5" fill="hsl(241, 75%, 50%)"></circle><circle r="42.5" cx="85" cy="637.5" fill="hsl(240, 75%, 50%)"></circle><circle r="42.5" cx="85" cy="722.5" fill="hsl(238, 75%, 50%)"></circle><circle r="42.5" cx="85" cy="807.5" fill="hsl(237, 75%, 50%)"></circle><circle r="42.5" cx="85" cy="892.5" fill="hsl(237, 75%, 50%)"></circle><circle r="42.5" cx="170" cy="42.5" fill="hsl(218, 75%, 50%)"></circle><circle r="42.5" cx="170" cy="127.5" fill="hsl(219, 75%, 50%)"></circle><circle r="42.5" cx="170" cy="212.5" fill="hsl(221, 75%, 50%)"></circle><circle r="42.5" cx="170" cy="297.5" fill="hsl(222, 75%, 50%)"></circle><circle r="42.5" cx="170" cy="382.5" fill="hsl(225, 75%, 50%)"></circle><circle r="42.5" cx="170" cy="467.5" fill="hsl(228, 75%, 50%)"></circle><circle r="42.5" cx="170" cy="552.5" fill="hsl(229, 75%, 50%)"></circle><circle r="42.5" cx="170" cy="637.5" fill="hsl(230, 75%, 50%)"></circle><circle r="42.5" cx="170" cy="722.5" fill="hsl(229, 75%, 50%)"></circle><circle r="42.5" cx="170" cy="807.5" fill="hsl(229, 75%, 50%)"></circle><circle r="42.5" cx="170" cy="892.5" fill="hsl(229, 75%, 50%)"></circle><circle r="42.5" cx="255" cy="42.5" fill="hsl(201, 75%, 50%)"></circle><circle r="42.5" cx="255" cy="127.5" fill="hsl(202, 75%, 50%)"></circle><circle r="42.5" cx="255" cy="212.5" fill="hsl(205, 75%, 50%)"></circle><circle r="42.5" cx="255" cy="297.5" fill="hsl(207, 75%, 50%)"></circle><circle r="42.5" cx="255" cy="382.5" fill="hsl(211, 75%, 50%)"></circle><circle r="42.5" cx="255" cy="467.5" fill="hsl(214, 75%, 50%)"></circle><circle r="42.5" cx="255" cy="552.5" fill="hsl(216, 75%, 50%)"></circle><circle r="42.5" cx="255" cy="637.5" fill="hsl(216, 75%, 50%)"></circle><circle r="42.5" cx="255" cy="722.5" fill="hsl(217, 75%, 50%)"></circle><circle r="42.5" cx="255" cy="807.5" fill="hsl(217, 75%, 50%)"></circle><circle r="42.5" cx="255" cy="892.5" fill="hsl(217, 75%, 50%)"></circle><circle r="42.5" cx="340" cy="42.5" fill="hsl(195, 75%, 50%)"></circle><circle r="42.5" cx="340" cy="127.5" fill="hsl(196, 75%, 50%)"></circle><circle r="42.5" cx="340" cy="212.5" fill="hsl(199, 75%, 50%)"></circle><circle r="42.5" cx="340" cy="297.5" fill="hsl(201, 75%, 50%)"></circle><circle r="42.5" cx="340" cy="382.5" fill="hsl(204, 75%, 50%)"></circle><circle r="42.5" cx="340" cy="467.5" fill="hsl(207, 75%, 50%)"></circle><circle r="42.5" cx="340" cy="552.5" fill="hsl(208, 75%, 50%)"></circle><circle r="42.5" cx="340" cy="637.5" fill="hsl(209, 75%, 50%)"></circle><circle r="42.5" cx="340" cy="722.5" fill="hsl(209, 75%, 50%)"></circle><circle r="42.5" cx="340" cy="807.5" fill="hsl(209, 75%, 50%)"></circle><circle r="42.5" cx="340" cy="892.5" fill="hsl(209, 75%, 50%)"></circle><circle r="42.5" cx="425" cy="42.5" fill="hsl(187, 75%, 50%)"></circle><circle r="42.5" cx="425" cy="127.5" fill="hsl(188, 75%, 50%)"></circle><circle r="42.5" cx="425" cy="212.5" fill="hsl(191, 75%, 50%)"></circle><circle r="42.5" cx="425" cy="297.5" fill="hsl(192, 75%, 50%)"></circle><circle r="42.5" cx="425" cy="382.5" fill="hsl(194, 75%, 50%)"></circle><circle r="42.5" cx="425" cy="467.5" fill="hsl(195, 75%, 50%)"></circle><circle r="42.5" cx="425" cy="552.5" fill="hsl(194, 75%, 50%)"></circle><circle r="42.5" cx="425" cy="637.5" fill="hsl(194, 75%, 50%)"></circle><circle r="42.5" cx="425" cy="722.5" fill="hsl(193, 75%, 50%)"></circle><circle r="42.5" cx="425" cy="807.5" fill="hsl(193, 75%, 50%)"></circle><circle r="42.5" cx="425" cy="892.5" fill="hsl(193, 75%, 50%)"></circle><circle r="42.5" cx="510" cy="42.5" fill="hsl(188, 75%, 50%)"></circle><circle r="42.5" cx="510" cy="127.5" fill="hsl(187, 75%, 50%)"></circle><circle r="42.5" cx="510" cy="212.5" fill="hsl(188, 75%, 50%)"></circle><circle r="42.5" cx="510" cy="297.5" fill="hsl(188, 75%, 50%)"></circle><circle r="42.5" cx="510" cy="382.5" fill="hsl(187, 75%, 50%)"></circle><circle r="42.5" cx="510" cy="467.5" fill="hsl(185, 75%, 50%)"></circle><circle r="42.5" cx="510" cy="552.5" fill="hsl(182, 75%, 50%)"></circle><circle r="42.5" cx="510" cy="637.5" fill="hsl(181, 75%, 50%)"></circle><circle r="42.5" cx="510" cy="722.5" fill="hsl(179, 75%, 50%)"></circle><circle r="42.5" cx="510" cy="807.5" fill="hsl(178, 75%, 50%)"></circle><circle r="42.5" cx="510" cy="892.5" fill="hsl(178, 75%, 50%)"></circle><circle r="42.5" cx="595" cy="42.5" fill="hsl(191, 75%, 50%)"></circle><circle r="42.5" cx="595" cy="127.5" fill="hsl(189, 75%, 50%)"></circle><circle r="42.5" cx="595" cy="212.5" fill="hsl(188, 75%, 50%)"></circle><circle r="42.5" cx="595" cy="297.5" fill="hsl(187, 75%, 50%)"></circle><circle r="42.5" cx="595" cy="382.5" fill="hsl(185, 75%, 50%)"></circle><circle r="42.5" cx="595" cy="467.5" fill="hsl(181, 75%, 50%)"></circle><circle r="42.5" cx="595" cy="552.5" fill="hsl(177, 75%, 50%)"></circle><circle r="42.5" cx="595" cy="637.5" fill="hsl(175, 75%, 50%)"></circle><circle r="42.5" cx="595" cy="722.5" fill="hsl(172, 75%, 50%)"></circle><circle r="42.5" cx="595" cy="807.5" fill="hsl(172, 75%, 50%)"></circle><circle r="42.5" cx="595" cy="892.5" fill="hsl(172, 75%, 50%)"></circle><circle r="42.5" cx="680" cy="42.5" fill="hsl(202, 75%, 50%)"></circle><circle r="42.5" cx="680" cy="127.5" fill="hsl(197, 75%, 50%)"></circle><circle r="42.5" cx="680" cy="212.5" fill="hsl(193, 75%, 50%)"></circle><circle r="42.5" cx="680" cy="297.5" fill="hsl(190, 75%, 50%)"></circle><circle r="42.5" cx="680" cy="382.5" fill="hsl(184, 75%, 50%)"></circle><circle r="42.5" cx="680" cy="467.5" fill="hsl(177, 75%, 50%)"></circle><circle r="42.5" cx="680" cy="552.5" fill="hsl(170, 75%, 50%)"></circle><circle r="42.5" cx="680" cy="637.5" fill="hsl(167, 75%, 50%)"></circle><circle r="42.5" cx="680" cy="722.5" fill="hsl(163, 75%, 50%)"></circle><circle r="42.5" cx="680" cy="807.5" fill="hsl(162, 75%, 50%)"></circle><circle r="42.5" cx="680" cy="892.5" fill="hsl(162, 75%, 50%)"></circle><circle r="42.5" cx="765" cy="42.5" fill="hsl(216, 75%, 50%)"></circle><circle r="42.5" cx="765" cy="127.5" fill="hsl(208, 75%, 50%)"></circle><circle r="42.5" cx="765" cy="212.5" fill="hsl(200, 75%, 50%)"></circle><circle r="42.5" cx="765" cy="297.5" fill="hsl(196, 75%, 50%)"></circle><circle r="42.5" cx="765" cy="382.5" fill="hsl(186, 75%, 50%)"></circle><circle r="42.5" cx="765" cy="467.5" fill="hsl(177, 75%, 50%)"></circle><circle r="42.5" cx="765" cy="552.5" fill="hsl(167, 75%, 50%)"></circle><circle r="42.5" cx="765" cy="637.5" fill="hsl(163, 75%, 50%)"></circle><circle r="42.5" cx="765" cy="722.5" fill="hsl(158, 75%, 50%)"></circle><circle r="42.5" cx="765" cy="807.5" fill="hsl(157, 75%, 50%)"></circle><circle r="42.5" cx="765" cy="892.5" fill="hsl(157, 75%, 50%)"></circle><circle r="42.5" cx="850" cy="42.5" fill="hsl(216, 75%, 50%)"></circle><circle r="42.5" cx="850" cy="127.5" fill="hsl(208, 75%, 50%)"></circle><circle r="42.5" cx="850" cy="212.5" fill="hsl(200, 75%, 50%)"></circle><circle r="42.5" cx="850" cy="297.5" fill="hsl(196, 75%, 50%)"></circle><circle r="42.5" cx="850" cy="382.5" fill="hsl(186, 75%, 50%)"></circle><circle r="42.5" cx="850" cy="467.5" fill="hsl(177, 75%, 50%)"></circle><circle r="42.5" cx="850" cy="552.5" fill="hsl(167, 75%, 50%)"></circle><circle r="42.5" cx="850" cy="637.5" fill="hsl(163, 75%, 50%)"></circle><circle r="42.5" cx="850" cy="722.5" fill="hsl(158, 75%, 50%)"></circle><circle r="42.5" cx="850" cy="807.5" fill="hsl(157, 75%, 50%)"></circle><circle r="42.5" cx="850" cy="892.5" fill="hsl(157, 75%, 50%)"></circle><circle r="42.5" cx="935" cy="42.5" fill="hsl(216, 75%, 50%)"></circle><circle r="42.5" cx="935" cy="127.5" fill="hsl(208, 75%, 50%)"></circle><circle r="42.5" cx="935" cy="212.5" fill="hsl(200, 75%, 50%)"></circle><circle r="42.5" cx="935" cy="297.5" fill="hsl(196, 75%, 50%)"></circle><circle r="42.5" cx="935" cy="382.5" fill="hsl(186, 75%, 50%)"></circle><circle r="42.5" cx="935" cy="467.5" fill="hsl(177, 75%, 50%)"></circle><circle r="42.5" cx="935" cy="552.5" fill="hsl(167, 75%, 50%)"></circle><circle r="42.5" cx="935" cy="637.5" fill="hsl(163, 75%, 50%)"></circle><circle r="42.5" cx="935" cy="722.5" fill="hsl(158, 75%, 50%)"></circle><circle r="42.5" cx="935" cy="807.5" fill="hsl(157, 75%, 50%)"></circle><circle r="42.5" cx="935" cy="892.5" fill="hsl(157, 75%, 50%)"></circle></g></svg>