<svg xmlns="http://www.w3.org/2000/svg" version="1.1" xmlns:xlink="http://www.w3.org/1999/xlink" xmlns:svgjs="http://svgjs.dev/svgjs" viewBox="0 0 800 800"><defs><linearGradient x1="50%" y1="0%" x2="50%" y2="100%" id="ssspill-grad"><stop stop-color="hsl(37, 99%, 67%)" stop-opacity="1" offset="45%"></stop><stop stop-color="hsl(316, 73%, 52%)" stop-opacity="1" offset="100%"></stop></linearGradient><filter id="ssspot-filter" x="-20%" y="-20%" width="140%" height="140%" filterUnits="objectBoundingBox" primitiveUnits="userSpaceOnUse" color-interpolation-filters="sRGB">
	<feTurbulence type="turbulence" baseFrequency="0.022 0.218" numOctaves="2" seed="78" stitchTiles="stitch" x="0%" y="0%" width="100%" height="100%" result="turbulence"></feTurbulence>
	<feGaussianBlur stdDeviation="0 3" x="0%" y="0%" width="100%" height="100%" in="turbulence" edgeMode="duplicate" result="blur"></feGaussianBlur>
	<feDisplacementMap in="SourceGraphic" in2="blur" scale="32" xChannelSelector="R" yChannelSelector="B" x="0%" y="0%" width="100%" height="100%" result="displacementMap"></feDisplacementMap>
</filter></defs><rect width="100%" height="100%" fill="hsl(32, 100%, 89%)"></rect><g fill="url(#ssspill-grad)" filter="url(#ssspot-filter)"><circle r="6.393661199460061" cx="713.3193449442997" cy="682.2078529837086" opacity="0.6094575072535687"></circle><circle r="6.0042595187050924" cx="550.9706145683325" cy="402.94910899420887" opacity="0.1415536683361736"></circle><circle r="8.168234208611139" cx="668.8884953102751" cy="484.382391669032" opacity="0.5433106932932241"></circle><circle r="8.237089630372633" cx="366.64662524667256" cy="124.51127176626888" opacity="0.44347149351717363"></circle><circle r="5.113642526745627" cx="316.6886934578421" cy="735.185801162687" opacity="0.675921617717691"></circle><circle r="3.8986370139941027" cx="364.9938429248186" cy="636.0608052796764" opacity="0.1031943343734662"></circle><circle r="7.738955688483326" cx="731.6819042616722" cy="250.44745100950865" opacity="0.2839039006156002"></circle><circle r="4.4279162989547975" cx="479.8094696828702" cy="506.75196637803475" opacity="0.17852195040797825"></circle><circle r="3.2205389006885423" cx="510.7428135183105" cy="540.0344802375037" opacity="0.3355559355472181"></circle><circle r="7.182920887618581" cx="214.43446721247108" cy="731.1070512558359" opacity="0.9642513426261003"></circle><circle r="5.023630286915153" cx="130.25936344717445" cy="289.26986801164134" opacity="0.8042863860334303"></circle><circle r="7.761748942467182" cx="56.175075075414895" cy="198.7793747012469" opacity="0.1613222688499172"></circle><circle r="6.700421659567967" cx="428.0455667549712" cy="271.4106578853246" opacity="0.27269674033887503"></circle><circle r="6.288784600495243" cx="664.2446966541416" cy="546.7134881319708" opacity="0.5103140367927205"></circle><circle r="6.561417696631519" cx="158.85140130502353" cy="500.48283102865906" opacity="0.5168460011467262"></circle><circle r="10.773206410794613" cx="135.865197150066" cy="642.1945876317644" opacity="0.40862540040019213"></circle><circle r="8.538479493150843" cx="247.44570120010133" cy="199.51177558248358" opacity="0.4574426769735882"></circle><circle r="7.325004936514597" cx="634.0938292629576" cy="577.1369769900813" opacity="0.4136608953148867"></circle><circle r="5.428153643956441" cx="684.5189937539491" cy="271.4460792941214" opacity="0.6863595389805858"></circle><circle r="5.75702732935972" cx="609.0825774395338" cy="784.2595618258181" opacity="0.46928469914617266"></circle><circle r="7.86252892594722" cx="387.3968191487344" cy="712.0086546304227" opacity="0.5627469019988974"></circle><circle r="10.12745445393524" cx="475.2983076621263" cy="22.636155585763472" opacity="0.45793592238605996"></circle><circle r="7.355956962274201" cx="523.2801163786493" cy="577.7939272534819" opacity="0.792194917327254"></circle><circle r="7.837321629079803" cx="292.93419622793294" cy="673.7588571757783" opacity="0.8022410520650638"></circle><circle r="6.641459813068689" cx="16.726626943265323" cy="633.9573540626294" opacity="0.8164403951407939"></circle><circle r="11.154221272139328" cx="713.1824995275363" cy="66.69979164024964" opacity="0.35879589407679857"></circle><circle r="5.6038602909055" cx="512.2271065239353" cy="41.756281872989966" opacity="0.1243189749746468"></circle><circle r="5.77573205390204" cx="755.2455546138108" cy="437.49900247841583" opacity="0.58159080478006"></circle><circle r="9.032574256506496" cx="578.7127230043616" cy="139.3267232372403" opacity="0.9803437668799546"></circle><circle r="5.8242809535978814" cx="439.01671473740345" cy="474.2349515693956" opacity="0.3336647315722271"></circle><circle r="10.500764454108985" cx="229.9072768000721" cy="41.54360629295463" opacity="0.4176242760603187"></circle><circle r="8.835675409757856" cx="186.69455681815572" cy="168.9093855207601" opacity="0.6628625689061842"></circle><circle r="8.899297972220584" cx="23.81754293965844" cy="370.8381156208007" opacity="0.4558060104038517"></circle><circle r="6.091696117292562" cx="170.5835177485538" cy="614.2469697060911" opacity="0.3154850915045896"></circle><circle r="6.689393899538306" cx="71.84324962765494" cy="236.25202444156287" opacity="0.6045271107468568"></circle><circle r="8.501134534677698" cx="521.5441061314999" cy="774.8055677386639" opacity="0.9149342962873548"></circle><circle r="8.813895633742336" cx="67.32224074175302" cy="47.5995523048753" opacity="0.41635833713446724"></circle><circle r="6.7378798770472645" cx="447.52943654861394" cy="250.0668461779218" opacity="0.870043856090128"></circle><circle r="8.973024517583667" cx="686.7472293009853" cy="721.7603167320815" opacity="0.30435296567746006"></circle><circle r="9.286778844842505" cx="615.2503921174205" cy="108.29369235061733" opacity="0.48618341353069294"></circle><circle r="5.528478218923153" cx="453.84232526015256" cy="646.4849330480804" opacity="0.4327901221851804"></circle><circle r="5.06987491060591" cx="195.43307395286" cy="214.9035430183932" opacity="0.8997949171506748"></circle><circle r="12.907011506096202" cx="168.33550438601117" cy="769.2506233082303" opacity="0.42418316175920645"></circle><circle r="4.647996359831433" cx="110.27445833730961" cy="351.04269235429376" opacity="0.6431376591856367"></circle><circle r="6.855647449094614" cx="627.3599145844555" cy="469.1146991449225" opacity="0.33251734939028277"></circle><circle r="4.74112702356231" cx="594.1450150153914" cy="396.35722929170913" opacity="0.6810344668321758"></circle><circle r="5.664439230134185" cx="398.35209723427926" cy="286.26793946771784" opacity="0.8577276821812052"></circle><circle r="9.57121553385736" cx="288.40241526206734" cy="262.5388368239162" opacity="0.23490567876128796"></circle><circle r="5.133250282993609" cx="575.7704560545075" cy="464.94974588724995" opacity="0.4147731299295734"></circle><circle r="4.2898875772274" cx="482.3556306553866" cy="609.8426653427684" opacity="0.907782633795834"></circle><circle r="9.117565392878774" cx="615.2822127451583" cy="316.6263161674051" opacity="0.7665450419793973"></circle><circle r="6.203963995774883" cx="519.3962396228171" cy="614.8213761676228" opacity="0.1927347492876267"></circle><circle r="10.622986883339589" cx="94.45965150436429" cy="124.16795042983561" opacity="0.7756663954068888"></circle><circle r="8.646605448500637" cx="149.85825794026056" cy="451.2967420212592" opacity="0.11470782336932472"></circle><circle r="8.33338788843627" cx="328.44727349528887" cy="699.1982525823134" opacity="0.12999220034236417"></circle><circle r="7.569133545775763" cx="412.8763231267254" cy="570.411302751118" opacity="0.5587202497625557"></circle><circle r="7.6689517629765245" cx="283.97598584322674" cy="315.87340450605967" opacity="0.8479567977945374"></circle><circle r="7.176871524537152" cx="342.65227830027226" cy="404.98008037370835" opacity="0.6282844624736077"></circle><circle r="6.484869355663581" cx="302.02742943755715" cy="363.2558505583429" opacity="0.47028216690297164"></circle><circle r="7.179325541222436" cx="153.04048687598973" cy="65.31935332771067" opacity="0.8093706227494737"></circle><circle r="5.484248436285837" cx="401.97785654099664" cy="357.70961887730715" opacity="0.3228318842494768"></circle><circle r="12.301077898259344" cx="775.3044766136724" cy="244.46852088736316" opacity="0.6971996199160259"></circle><circle r="7.552644151681791" cx="106.9719302536582" cy="605.3331427298936" opacity="0.9974804341897165"></circle><circle r="8.40567785024528" cx="393.1893712336084" cy="201.80622842217343" opacity="0.6847829749967826"></circle><circle r="3.4336501911125334" cx="389.00708755651283" cy="628.6578048110031" opacity="0.5957532892864463"></circle><circle r="10.576944448499564" cx="18.432534250787683" cy="179.3461816431036" opacity="0.42816946881191054"></circle><circle r="8.450289956588378" cx="131.15080593961042" cy="224.24895171429694" opacity="0.5307315097845207"></circle><circle r="8.344418783089012" cx="630.0511717002968" cy="156.7015399498271" opacity="0.19228358661941547"></circle><circle r="8.49985710616437" cx="643.5859890531601" cy="437.4402504741791" opacity="0.2092377122110599"></circle><circle r="9.932913689932288" cx="735.8312108782528" cy="650.8908935227383" opacity="0.47718758832916264"></circle><circle r="2.687761125727465" cx="529.3194205373702" cy="537.2402054342316" opacity="0.25494063879512174"></circle><circle r="8.83726010384839" cx="246.9345140287967" cy="631.4439677713058" opacity="0.6531881501980114"></circle><circle r="5.375622467067231" cx="626.646320375417" cy="752.8365303323935" opacity="0.9424419528169959"></circle><circle r="7.725503903300188" cx="17.863959839782083" cy="293.6023327076828" opacity="0.5830735039360783"></circle><circle r="5.6823949859110945" cx="782.8140336440584" cy="766.4380019782539" opacity="0.9325502162192136"></circle><circle r="6.981364640125014" cx="460.546700099316" cy="572.4479147627451" opacity="0.20167258670337818"></circle><circle r="5.471426410017759" cx="540.3654534900919" cy="701.1658417923105" opacity="0.6794186392030253"></circle><circle r="10.340530953831065" cx="446.16352176395327" cy="306.4972736520308" opacity="0.4359734013373412"></circle><circle r="7.199880368368926" cx="246.48584250670993" cy="722.1507092014963" opacity="0.3076628974874909"></circle><circle r="12.093658297915853" cx="130.1650755612709" cy="689.9898009153857" opacity="0.5083165400594384"></circle><circle r="6.920313285521555" cx="104.10822828510896" cy="248.40736974616237" opacity="0.767248264425241"></circle><circle r="6.397300252430354" cx="362.4198321646636" cy="243.3772647221223" opacity="0.78164715704803"></circle><circle r="3.5050092347537305" cx="78.07490152567637" cy="310.75684047153436" opacity="0.16467955892851557"></circle><circle r="8.019363907034169" cx="360.0556890976238" cy="673.6699556758357" opacity="0.9751091794200115"></circle><circle r="8.996818912646582" cx="139.86490446196171" cy="403.0819966659448" opacity="0.6740265622891156"></circle><circle r="10.381170417644176" cx="231.27918101199558" cy="776.3749705368455" opacity="0.3523709763123739"></circle><circle r="9.982797028407052" cx="593.1295899367001" cy="73.2185617887494" opacity="0.18829617983117225"></circle><circle r="11.106166785206316" cx="53.31793895145734" cy="695.5172990807054" opacity="0.2261872560821486"></circle><circle r="9.58173836003979" cx="355.956421287339" cy="205.86359418692774" opacity="0.425785859118917"></circle><circle r="5.519862036497478" cx="18.29312196322858" cy="115.9865846293114" opacity="0.47679915220997693"></circle><circle r="4.094104413927623" cx="548.1846343046151" cy="481.2449982408649" opacity="0.7750389290249444"></circle><circle r="6.401061503217898" cx="190.11450511007885" cy="417.7069846834872" opacity="0.5054799495073897"></circle><circle r="7.25497816026805" cx="105.08237387266317" cy="728.8283628110869" opacity="0.25021727202356175"></circle><circle r="4.120333442459127" cx="274.084097367994" cy="408.5401609029358" opacity="0.8460860168598087"></circle><circle r="6.875932105876926" cx="590.2691578079647" cy="743.0524326458471" opacity="0.21422821362694097"></circle><circle r="4.8954720377334695" cx="698.3317122618389" cy="324.03024519725267" opacity="0.4465786661755723"></circle><circle r="8.66630619572546" cx="587.202017767815" cy="352.8766377473175" opacity="0.1611004836122721"></circle><circle r="5.072178583003929" cx="785.285713569885" cy="451.85524610862586" opacity="0.8209790818444611"></circle><circle r="7.498699036620337" cx="94.28030138468628" cy="425.78466739667635" opacity="0.4937975702231051"></circle><circle r="5.428232934074431" cx="743.1968335384754" cy="576.6382821565263" opacity="0.31420061811494693"></circle><circle r="7.858563304196962" cx="443.62387024080533" cy="157.60292982816298" opacity="0.5656616487273142"></circle><circle r="5.19432654089059" cx="26.991764461701973" cy="569.8688322337816" opacity="0.2992288596454693"></circle><circle r="5.0273285760103095" cx="241.31878574475866" cy="249.47993537054063" opacity="0.9182491956566907"></circle><circle r="8.628616381284928" cx="773.8940174063895" cy="302.3392478528331" opacity="0.9126453128327332"></circle><circle r="8.442380660047167" cx="330.8223183982317" cy="781.2162529531978" opacity="0.7659255235229017"></circle><circle r="4.931853439619167" cx="602.0660454943151" cy="443.5082174471154" opacity="0.9239669941961244"></circle><circle r="10.131880543524055" cx="277.5722615270339" cy="65.93587458703283" opacity="0.4196682185411177"></circle><circle r="7.623452590176127" cx="312.289312965057" cy="627.6669309949772" opacity="0.45569343795583217"></circle><circle r="8.766570574881566" cx="397.9731639890003" cy="395.40711828428147" opacity="0.76260469555228"></circle><circle r="5.133401425686685" cx="582.4891515071871" cy="694.6040959509331" opacity="0.8286371114923385"></circle><circle r="6.8809772623207515" cx="255.40650072384008" cy="337.0782653210301" opacity="0.4551455794630659"></circle><circle r="6.873944276115658" cx="694.126157770224" cy="188.96276357756923" opacity="0.5525541291352032"></circle><circle r="8.653223443349411" cx="460.80624899960003" cy="115.88659308368734" opacity="0.12004133357404079"></circle><circle r="7.9110328137176955" cx="401.49387024830787" cy="243.34221706619329" opacity="0.930605281685307"></circle><circle r="8.540746203324957" cx="562.8391473964178" cy="780.5324143188758" opacity="0.994405008304559"></circle><circle r="5.921961426340033" cx="323.6515991203907" cy="65.69313961483559" opacity="0.3074649020530653"></circle><circle r="4.995489069203735" cx="303.69129104008266" cy="411.8348272020977" opacity="0.8491224878643138"></circle><circle r="9.177519739674606" cx="729.1321525689248" cy="24.199494936368872" opacity="0.8246104927668271"></circle><circle r="7.611330379892637" cx="163.79676885805125" cy="204.5112805096759" opacity="0.13724708066630026"></circle><circle r="8.4301347556898" cx="315.27568229514526" cy="455.10825975277214" opacity="0.8441246442228667"></circle><circle r="4.3872129936138275" cx="723.5975999596287" cy="412.9419742494373" opacity="0.7416672075448266"></circle><circle r="7.666855891209812" cx="636.5967580790141" cy="509.24397491602406" opacity="0.8170081516199236"></circle><circle r="9.727322594361684" cx="575.365890627885" cy="182.1735859618985" opacity="0.37152080148013544"></circle><circle r="7.0824103075059375" cx="355.9061397954819" cy="88.29672602060776" opacity="0.9194090199188478"></circle><circle r="6.260317088300862" cx="630.1582782656544" cy="685.0066275306573" opacity="0.8497453292130919"></circle><circle r="4.835381909625063" cx="499.4677475493502" cy="486.22801307822607" opacity="0.15048946995604082"></circle><circle r="4.6910272371471695" cx="737.374563663305" cy="545.4853888917994" opacity="0.36765224736720936"></circle><circle r="7.001777237575345" cx="781.6184077907321" cy="591.3432009069404" opacity="0.2628985851978931"></circle><circle r="5.6474535208236425" cx="143.5019455190496" cy="263.352728630213" opacity="0.5912946943306167"></circle><circle r="5.59660202188212" cx="656.2754167171028" cy="128.7432441618876" opacity="0.6842132175617784"></circle><circle r="9.517200927374333" cx="202.19140145068783" cy="283.9316595002048" opacity="0.7451767917467206"></circle><circle r="5.271698416136012" cx="57.87902839874144" cy="623.1252299156304" opacity="0.47625157697910503"></circle><circle r="6.245264653880442" cx="545.7334866620447" cy="360.6481189341469" opacity="0.14946924618853993"></circle><circle r="7.306616724095917" cx="781.0064047202899" cy="725.9251919570416" opacity="0.6134569132562635"></circle><circle r="7.2806963520795005" cx="91.4642891691919" cy="646.7120920049" opacity="0.6981209912098555"></circle><circle r="4.543087626051715" cx="606.6036526990754" cy="23.47070397950673" opacity="0.90919493085787"></circle><circle r="7.844023133132166" cx="414.60077704147557" cy="516.5386225184645" opacity="0.7100806516904374"></circle><circle r="8.428297322509437" cx="223.5318265840678" cy="600.8603455185664" opacity="0.8767695464438926"></circle><circle r="4.3503207734518385" cx="285.32378900659916" cy="613.6204209728377" opacity="0.13968564461852578"></circle><circle r="6.543741472810867" cx="341.98044368662323" cy="613.0238810622059" opacity="0.5169151281413888"></circle><circle r="6.438736146867916" cx="21.25436713114205" cy="228.95184152277605" opacity="0.3363170886630015"></circle><circle r="8.946046270548138" cx="592.0280304515222" cy="656.9461129289042" opacity="0.308169656869177"></circle><circle r="6.62442920228678" cx="533.5034046187565" cy="70.64048595062897" opacity="0.6936852987253735"></circle><circle r="6.709854205432025" cx="636.4639799137465" cy="650.1629542533423" opacity="0.17572008271850148"></circle><circle r="5.936096786501082" cx="734.3514854928969" cy="766.8689905104779" opacity="0.5094086364122556"></circle><circle r="4.4716684623007295" cx="771.8027731614928" cy="483.38670945057106" opacity="0.8783307400085179"></circle><circle r="5.32296156223937" cx="471.10345408874326" cy="227.6198002436712" opacity="0.6704023863051153"></circle><circle r="8.604081142321057" cx="178.98002980712565" cy="360.2665878982182" opacity="0.8449297445143926"></circle><circle r="7.28247586090267" cx="374.68766564873005" cy="51.92775460442314" opacity="0.43941581764288795"></circle><circle r="10.868069027267016" cx="525.1989951882593" cy="174.69947772215923" opacity="0.9141653263689434"></circle><circle r="9.533255581963163" cx="759.7020480879748" cy="92.36485443856674" opacity="0.992923578334373"></circle><circle r="8.384430939238996" cx="19.133349904003573" cy="505.50832912598463" opacity="0.1062470577149814"></circle><circle r="7.551344878097326" cx="671.7626341337533" cy="94.08969786066251" opacity="0.898009412313025"></circle><circle r="5.391539532263147" cx="583.8551456794418" cy="565.4770398139259" opacity="0.4292712465354044"></circle><circle r="7.391809033041646" cx="558.227537692805" cy="509.6212457785788" opacity="0.7049856192954032"></circle><circle r="7.8043667937088586" cx="292.86338922612225" cy="171.59198353329595" opacity="0.5149844984446167"></circle><circle r="9.718148758873934" cx="334.5770134877255" cy="566.443188200595" opacity="0.8142046135586202"></circle><circle r="10.896697971233204" cx="60.09103747950208" cy="545.559766995504" opacity="0.8512846936036276"></circle><circle r="9.826761140376894" cx="716.441812398767" cy="117.30376992066624" opacity="0.8636966540878793"></circle><circle r="6.189387361917088" cx="444.32334934438563" cy="611.038298480903" opacity="0.8848589524984408"></circle><circle r="8.528411583425548" cx="347.8962644526528" cy="164.28524934880497" opacity="0.3219913576829504"></circle><circle r="6.9251576053684465" cx="472.40247933708673" cy="772.107643836317" opacity="0.3722869192691308"></circle><circle r="8.082055170024683" cx="315.19271265151946" cy="119.25748416345188" opacity="0.8390464589702014"></circle><circle r="5.089894709106266" cx="241.16814227695158" cy="415.7875639309069" opacity="0.27386509031693484"></circle><circle r="10.005944053925607" cx="259.6409437643482" cy="473.5282989031519" opacity="0.28987784085455226"></circle><circle r="9.045076231191" cx="105.35127989584721" cy="778.6515248511199" opacity="0.46885136774864866"></circle><circle r="7.161354627328302" cx="690.8575269128827" cy="152.1432979488197" opacity="0.653098613122279"></circle><circle r="5.082660615018663" cx="784.1476742341275" cy="64.19610058930897" opacity="0.8936826670754924"></circle><circle r="13.173967037162836" cx="271.3339769667299" cy="567.6510456942309" opacity="0.6524296795506842"></circle><circle r="8.626208651228543" cx="639.7229668506236" cy="22.04318866713742" opacity="0.15237487319013943"></circle><circle r="9.629624602093728" cx="699.0187963716404" cy="543.6536261936056" opacity="0.8026952139523893"></circle><circle r="6.574758691969659" cx="503.67871494745094" cy="106.08560403145492" opacity="0.18084744105789047"></circle><circle r="9.823073236898818" cx="200.69949999159275" cy="569.0820754311288" opacity="0.4276685286118429"></circle><circle r="7.29187836114945" cx="282.65281467748764" cy="769.8532071604374" opacity="0.6526529979770204"></circle><circle r="4.317637224080688" cx="785.958153447711" cy="516.4455063183997" opacity="0.7019863249490723"></circle><circle r="6.963145831799151" cx="560.7404362125798" cy="50.79391946425937" opacity="0.7906817753757962"></circle><circle r="9.79471152305429" cx="139.43455915745108" cy="118.07415205132388" opacity="0.5202321008515876"></circle><circle r="8.310212056122335" cx="777.730678597594" cy="356.6438631821183" opacity="0.15386678922721247"></circle><circle r="9.469569645939433" cx="340.90187819148866" cy="272.01536457801444" opacity="0.1357234175336287"></circle><circle r="6.604601709149702" cx="619.8211193508279" cy="539.131581008129" opacity="0.17981060434981577"></circle><circle r="6.148067192481752" cx="595.5076521095868" cy="275.79382730950374" opacity="0.8531258274542289"></circle><circle r="9.791813525666807" cx="222.36871553259775" cy="684.9974040836876" opacity="0.42086750172316856"></circle><circle r="6.192994064435483" cx="777.8813877794264" cy="403.6054714974094" opacity="0.2854437960114968"></circle><circle r="5.962805784682461" cx="547.9650684539413" cy="97.6828800570672" opacity="0.812151451538225"></circle><circle r="5.011366838297366" cx="381.0804075210775" cy="768.0881484977201" opacity="0.3730175213396829"></circle><circle r="6.568876087580323" cx="488.78964734709535" cy="313.0023258341306" opacity="0.536678392822621"></circle><circle r="8.420186675420899" cx="23.232990851959272" cy="69.85556749521122" opacity="0.4984662074122761"></circle><circle r="5.155343967430905" cx="558.5736809227947" cy="735.1622194368679" opacity="0.2758311574989596"></circle><circle r="11.734069165363001" cx="299.0744302394915" cy="518.734132455862" opacity="0.814890135550519"></circle><circle r="9.778045462809338" cx="194.65572467539496" cy="114.29592216360905" opacity="0.7995288818446482"></circle><circle r="9.916924037405046" cx="36.71537440668587" cy="450.5702786782801" opacity="0.1372470631376846"></circle><circle r="7.894228542213579" cx="483.77255557040894" cy="272.4516582414431" opacity="0.7101090879403382"></circle><circle r="8.920392344623941" cx="534.4072958219541" cy="224.08424839324346" opacity="0.788262093147061"></circle><circle r="8.797666195619268" cx="478.03949638026097" cy="421.1281553085365" opacity="0.7262168120691741"></circle><circle r="6.762987301225276" cx="628.5938639504216" cy="399.0108019263483" opacity="0.9854612857845017"></circle><circle r="10.08757308334448" cx="373.36625704095013" cy="527.7441336789053" opacity="0.7464383908967476"></circle><circle r="4.89904791440977" cx="723.5298285222968" cy="380.9261910868591" opacity="0.5670723174423756"></circle><circle r="5.49948094607335" cx="156.04740472828797" cy="583.0790951820618" opacity="0.8894201878979421"></circle><circle r="4.293809599596026" cx="329.16943307121204" cy="657.4590302275724" opacity="0.45729027042576154"></circle><circle r="5.820315466652201" cx="507.1937194207823" cy="349.16225565700114" opacity="0.11514357894342056"></circle><circle r="5.10277015349914" cx="80.98132149431063" cy="84.83935383133894" opacity="0.75657829627431"></circle><circle r="4.7701662025819225" cx="128.02841995238356" cy="575.1008634282583" opacity="0.5274519779134751"></circle><circle r="5.774401385717414" cx="483.5556415398842" cy="165.56030296994976" opacity="0.64806779210753"></circle><circle r="6.077193704788762" cx="739.2125807980503" cy="721.3125625129525" opacity="0.6719893414744409"></circle><circle r="6.040584090219909" cx="402.05588335829134" cy="165.9272929064359" opacity="0.1206493971086954"></circle><circle r="4.017107841764572" cx="563.7022583072885" cy="293.10423525626976" opacity="0.8772039793940262"></circle><circle r="6.557271074486576" cx="569.6946476855494" cy="608.7246656856829" opacity="0.7487640773052057"></circle><circle r="8.673373558247146" cx="48.76927215336899" cy="141.19102170892992" opacity="0.42809209186435127"></circle><circle r="8.175987156934651" cx="377.02317751106085" cy="588.2206068679055" opacity="0.6033950562629918"></circle><circle r="8.729713439889515" cx="201.2669446954529" cy="645.5207270991204" opacity="0.8339386920916618"></circle><circle r="6.984217566178216" cx="358.2562244761883" cy="365.4693775791476" opacity="0.1049360756939508"></circle><circle r="9.381673007557694" cx="174.9996079629178" cy="675.0591346411177" opacity="0.9174198729551264"></circle><circle r="7.91446034756269" cx="773.3476183193736" cy="24.343248363308792" opacity="0.5374291570909928"></circle><circle r="9.113125240949776" cx="625.5153137073981" cy="235.25832084942297" opacity="0.6130059172084159"></circle><circle r="10.87397620040134" cx="683.8969990111699" cy="435.06645365711773" opacity="0.2090597038457076"></circle><circle r="11.769856313968791" cx="542.8767983313071" cy="654.8861782656099" opacity="0.28733980445761"></circle><circle r="4.500577222920576" cx="393.2766746472809" cy="21.057973104482908" opacity="0.3602816544547254"></circle><circle r="5.183196179409634" cx="452.41477213267825" cy="530.0121312185894" opacity="0.6427341183447055"></circle><circle r="7.077310079261071" cx="91.62724315469872" cy="176.6298192623993" opacity="0.5433362785135099"></circle><circle r="8.82614537551844" cx="622.6415036585541" cy="616.2036200157253" opacity="0.3775508037490771"></circle><circle r="3.676802115035514" cx="104.94191426938957" cy="299.4736384886601" opacity="0.2605246027157271"></circle><circle r="5.478041601482219" cx="672.3018836357462" cy="667.7052885405775" opacity="0.5705624851320144"></circle><circle r="6.213891298154817" cx="685.3549465866446" cy="355.22075879434806" opacity="0.6822017736176066"></circle><circle r="7.469648005083242" cx="185.67280450239653" cy="30.1002792349137" opacity="0.8811264993530168"></circle><circle r="8.473117869883335" cx="423.4240070034775" cy="768.4291439866479" opacity="0.7881892941118049"></circle><circle r="5.460247536971193" cx="243.3157342938468" cy="367.8153562439171" opacity="0.5648802784742655"></circle><circle r="5.8335198754496185" cx="771.7168578208624" cy="137.08120189295383" opacity="0.6485903751848276"></circle><circle r="6.589088922510214" cx="469.5504075523326" cy="676.767437407301" opacity="0.49802878290295816"></circle><circle r="4.182300631911406" cx="575.5913003551798" cy="425.66637269128" opacity="0.5337720591894447"></circle><circle r="6.70925767352465" cx="521.8806723380965" cy="299.34036074645945" opacity="0.2448110930611194"></circle><circle r="8.997328893055611" cx="697.0538164064308" cy="232.02220485942124" opacity="0.4212607885766777"></circle><circle r="12.561340865637044" cx="205.35521160519093" cy="466.65933891110205" opacity="0.9436768374274964"></circle><circle r="6.12704370681732" cx="590.9474734028564" cy="524.4169976996756" opacity="0.12017512259603788"></circle><circle r="8.68107749203139" cx="659.2065151366621" cy="768.0685259472601" opacity="0.1556143539445254"></circle><circle r="7.142400221554061" cx="105.61249971699164" cy="467.2906655751958" opacity="0.49262451141956587"></circle><circle r="9.774397782644836" cx="430.8453954912863" cy="698.0882302047536" opacity="0.7190029138947276"></circle><circle r="11.325907293213067" cx="112.18758894355207" cy="24.201800440955545" opacity="0.3744489794264326"></circle><circle r="5.283719645556661" cx="319.34899926977846" cy="315.5497257447925" opacity="0.37266228904319354"></circle><circle r="10.672858191890466" cx="738.765251167565" cy="184.81666522970716" opacity="0.17554058750745494"></circle><circle r="5.443078411799592" cx="169.87151506929433" cy="300.25940558050263" opacity="0.28920838892921064"></circle><circle r="10.515862756243221" cx="83.16136865527092" cy="383.0742397965544" opacity="0.5263695004787953"></circle><circle r="7.987550663024438" cx="435.2286930029065" cy="20.917339402938083" opacity="0.6101217686817814"></circle><circle r="8.852246092865148" cx="31.593105837900318" cy="20.247508946011415" opacity="0.9523162533665022"></circle><circle r="9.14891835781172" cx="512.409745519111" cy="390.6695894926629" opacity="0.31792668111904054"></circle><circle r="5.480340965526644" cx="501.98021734916733" cy="662.735440650922" opacity="0.10973924150763166"></circle><circle r="7.59774591464889" cx="511.92087268134946" cy="726.3968623626497" opacity="0.6789106548532888"></circle><circle r="4.590890030500698" cx="552.849326794448" cy="545.6712878307151" opacity="0.7005294513080675"></circle><circle r="6.409315019972505" cx="560.7582858109699" cy="251.98350136468383" opacity="0.9347883689979142"></circle><circle r="6.872439098160759" cx="433.3687189854153" cy="347.8864997635219" opacity="0.3770154573509513"></circle><circle r="8.790639446348571" cx="578.92468013727" cy="222.72769407828997" opacity="0.9120584382456426"></circle><circle r="10.629329537901764" cx="178.4544691550447" cy="720.4437025942183" opacity="0.5911511433864695"></circle><circle r="5.961685188795329" cx="19.423728892843478" cy="604.8944242224006" opacity="0.5079702170016955"></circle><circle r="8.030377567162576" cx="639.0992017438874" cy="64.37076004778828" opacity="0.29718512007322595"></circle><circle r="8.942620165951185" cx="238.1844479071054" cy="137.79492987483513" opacity="0.5256015619208358"></circle><circle r="4.4359077369347" cx="527.435796732955" cy="13.582538816625911" opacity="0.339560369474344"></circle><circle r="5.875761877084011" cx="212.34936865549122" cy="325.9624560701968" opacity="0.9075776223989863"></circle><circle r="11.898162451801394" cx="34.41627643049418" cy="760.5938155909013" opacity="0.966843968207678"></circle><circle r="6.809529705251113" cx="142.83701574311132" cy="366.4597673928555" opacity="0.6418273765410584"></circle><circle r="7.388219741226038" cx="384.89804367098003" cy="442.5917930253058" opacity="0.5672857762856538"></circle><circle r="7.005797910026676" cx="263.6416205430206" cy="105.85147342437287" opacity="0.5963770367392945"></circle><circle r="6.4034271032705705" cx="535.1150337090197" cy="270.52396414251626" opacity="0.665459629137982"></circle><circle r="8.794877759882995" cx="248.024559859509" cy="289.44005898729904" opacity="0.17773801500016687"></circle><circle r="4.684872618363187" cx="257.3069716099477" cy="668.5936535058077" opacity="0.8714302432494074"></circle><circle r="8.458180637962492" cx="678.9247265903924" cy="44.59417877912616" opacity="0.393879935660963"></circle><circle r="5.890203161919024" cx="499.64003164014076" cy="215.63111807323227" opacity="0.6227119404116351"></circle><circle r="6.076437788278554" cx="521.1464513282037" cy="506.2124976258106" opacity="0.5357901018085837"></circle><circle r="5.327452977718118" cx="88.89736849217871" cy="573.7310854397523" opacity="0.18714753672303425"></circle><circle r="7.109434729773338" cx="639.3400844706712" cy="269.9774998212301" opacity="0.8591099958491106"></circle><circle r="6.557634530085214" cx="734.442405090796" cy="610.6045809706113" opacity="0.3114438735925332"></circle><circle r="7.145840731658823" cx="471.86414549150504" cy="358.62016567368426" opacity="0.5524671387223267"></circle><circle r="9.616860002605371" cx="725.685047609002" cy="297.85279346568996" opacity="0.3962680378806579"></circle><circle r="7.176834576859553" cx="312.78755956609166" cy="222.76231711090776" opacity="0.26459404157598176"></circle><circle r="5.984488130528832" cx="33.92600215557096" cy="409.1084037019551" opacity="0.3749537560617334"></circle><circle r="9.627322970254585" cx="775.6533261452664" cy="680.485323949552" opacity="0.9177107392479895"></circle><circle r="8.124259019896622" cx="782.129695707799" cy="552.1815746824967" opacity="0.3904666960702339"></circle><circle r="5.278120375508157" cx="146.02336406542787" cy="328.5114075883343" opacity="0.9604334598182287"></circle><circle r="12.13849285994873" cx="223.77032164783657" cy="524.8353398133539" opacity="0.9214043335925551"></circle><circle r="6.890140119243672" cx="100.34871326809095" cy="504.005868337783" opacity="0.7402230336278158"></circle><circle r="7.912779272581881" cx="433.29687872864474" cy="67.25987462337359" opacity="0.8558929630258622"></circle><circle r="5.744345911919657" cx="736.2977883838704" cy="345.47735782795326" opacity="0.6481622882854053"></circle><circle r="6.940318591647207" cx="437.26873504050525" cy="204.1945988256056" opacity="0.9976846336557065"></circle><circle r="9.195549407655925" cx="409.85363532241024" cy="128.2124187729594" opacity="0.7465864864421121"></circle><circle r="3.7049788466855027" cx="377.0556064795187" cy="302.9496173857697" opacity="0.22302257776752535"></circle><circle r="4.000681699857954" cx="27.163305456964437" cy="261.9437817379629" opacity="0.7229435599718326"></circle><circle r="6.734389605946893" cx="513.160939368223" cy="432.63003770173674" opacity="0.3304591798245458"></circle><circle r="4.84415108044556" cx="169.31490737382805" cy="249.14416119767827" opacity="0.8091800319554114"></circle><circle r="7.126984878334258" cx="209.67331382908569" cy="378.95778957953877" opacity="0.37405765663644974"></circle><circle r="6.266399595180513" cx="713.4775396474404" cy="496.6876571930407" opacity="0.3965855560834698"></circle><circle r="9.164664054380403" cx="640.2217534017216" cy="353.51482404461905" opacity="0.1219215043784175"></circle><circle r="7.736623844045356" cx="696.1831750634983" cy="777.2337307456414" opacity="0.672773932215854"></circle><circle r="5.188151875131936" cx="415.4819961748435" cy="623.1619931623519" opacity="0.5807230766002998"></circle><circle r="6.7944628977271355" cx="61.71923264745818" cy="494.97664091697015" opacity="0.9969770337567143"></circle><circle r="6.1737128933633905" cx="548.000650387604" cy="323.81753372761136" opacity="0.8649779924421412"></circle><circle r="6.982448256111717" cx="670.1616581425152" cy="391.3418964129549" opacity="0.10221663513629028"></circle><circle r="4.466297941731654" cx="541.2807076943839" cy="129.42597265402517" opacity="0.4383716416241207"></circle><circle r="4.81604119662994" cx="445.36445251390677" cy="389.9929743934727" opacity="0.4680479398455937"></circle><circle r="4.712478988811027" cx="633.9124297658761" cy="716.2044005833156" opacity="0.8784851629698811"></circle><circle r="8.952845640492372" cx="723.5661758245129" cy="458.9610753753657" opacity="0.7819799182732945"></circle><circle r="5.168461179348559" cx="780.6996220931408" cy="632.5594615322166" opacity="0.3616200046858865"></circle><circle r="5.64764837049011" cx="62.37309101624828" cy="280.9177387174775" opacity="0.8135742342474747"></circle><circle r="7.538285624862093" cx="26.952223995602164" cy="328.7518075782602" opacity="0.9289143670711324"></circle><circle r="3.6146792212914067" cx="678.8154675073741" cy="12.480480151827916" opacity="0.1971658572439411"></circle><circle r="4.05081489938552" cx="764.9993540282704" cy="789.2424813599705" opacity="0.592090355212189"></circle><circle r="6.56700369760034" cx="781.4609797017191" cy="188.85039907550737" opacity="0.1389861097462501"></circle><circle r="7.10964922780989" cx="436.7220737793834" cy="430.2425869204258" opacity="0.8854978798327597"></circle><circle r="7.889469893704783" cx="401.2655471396175" cy="666.214812365161" opacity="0.10471988713325371"></circle><circle r="4.785364194005146" cx="511.60028177569916" cy="256.9710000187372" opacity="0.7865063932124031"></circle><circle r="7.453009577807182" cx="333.2694068686968" cy="21.029653169675598" opacity="0.47578088357236115"></circle><circle r="4.902073834426744" cx="624.4558001955908" cy="194.56184555592185" opacity="0.3952016335648473"></circle><circle r="6.856758347357117" cx="402.3670072857773" cy="90.75296091049272" opacity="0.32617329938452"></circle><circle r="5.09749668089812" cx="752.1045102665969" cy="514.5429847984532" opacity="0.7431618064089195"></circle><circle r="9.498062950786126" cx="477.401413401756" cy="68.82955829252671" opacity="0.45507961887557435"></circle><circle r="5.604564938101647" cx="352.99565294561256" cy="738.5093800147299" opacity="0.7394684433038142"></circle><circle r="5.014951026122676" cx="161.71208808265038" cy="541.8822264647154" opacity="0.588431414311019"></circle><circle r="5.215695962533706" cx="19.668993590162795" cy="671.5107929861475" opacity="0.6076900537923914"></circle><circle r="5.190395432991747" cx="597.2471786359399" cy="490.0276590977404" opacity="0.749524914186991"></circle><circle r="6.730138781725504" cx="131.55591709746975" cy="178.89344945880168" opacity="0.53706620287627"></circle><circle r="10.26024340256638" cx="684.5227197084217" cy="608.9715870527892" opacity="0.8882747810708651"></circle><circle r="5.110613286550499" cx="545.5840406381167" cy="447.6164049838402" opacity="0.856698345792679"></circle><circle r="6.197475019151477" cx="69.01039507395781" cy="342.53184628921883" opacity="0.6498563282847865"></circle><circle r="5.652730138102405" cx="207.66188200830095" cy="242.04959686194798" opacity="0.4766434254389009"></circle><circle r="10.729351145747103" cx="469.963573378808" cy="719.740133336613" opacity="0.3489076016327741"></circle><circle r="5.770872415457686" cx="390.2590979259228" cy="330.7768191872857" opacity="0.7205880836228813"></circle><circle r="10.931238752949376" cx="354.20047279510686" cy="486.8421389659184" opacity="0.5507081713185227"></circle><circle r="9.93182617107853" cx="276.77497229632525" cy="19.920050608283695" opacity="0.4343212023088776"></circle><circle r="4.243255349564854" cx="489.48553541750175" cy="549.3408514426316" opacity="0.28778054800888087"></circle><circle r="6.283138316089053" cx="279.13244155386207" cy="717.8552246298867" opacity="0.7289853649040297"></circle><circle r="6.367633293414406" cx="571.5080046847238" cy="18.355998775263213" opacity="0.7820708461426845"></circle><circle r="5.848685700114619" cx="662.15550468318" cy="307.0460119208744" opacity="0.1074306807947603"></circle><circle r="9.614747445387376" cx="663.1394989878597" cy="213.80793527517653" opacity="0.2486369992370462"></circle><circle r="6.276917205129134" cx="500.1049333479515" cy="463.26061325915776" opacity="0.38190990335707076"></circle><circle r="7.897386398914794" cx="113.43278363101447" cy="535.1738117907265" opacity="0.7870741733204455"></circle><circle r="8.095714749807597" cx="349.9781849945091" cy="318.6750270110123" opacity="0.9605036409563895"></circle></g></svg>