<svg xmlns="http://www.w3.org/2000/svg" version="1.1" xmlns:xlink="http://www.w3.org/1999/xlink" viewBox="0 0 700 700" style="overflow: hidden; display: block;" width="700" height="700"><defs><linearGradient id="two-3" x1="350" y1="-350" x2="350" y2="350" spreadMethod="pad" gradientUnits="userSpaceOnUse"><stop offset="0%" stop-color="hsl(1.4, 100%, 67%)" stop-opacity="1"></stop><stop offset="100%" stop-color="hsl(167, 52%, 78%)" stop-opacity="1"></stop></linearGradient></defs><g id="two-0" transform="matrix(1 0 0 1 0 0)" opacity="1"><path transform="matrix(1 0 0 1 350 350)" id="two-15" d="M 245.268768 47.27168 C 244.207975 69.613813 189.585497 51.853844 182.604706 73.103896 C 173.873784 99.68148 243.026293 122.986567 226.551408 145.595749 C 206.890584 172.577132 150.360761 97.265386 128.133746 122.17528 C 100.679684 152.943144 202.344233 213.268907 170.668266 239.670045 C 146.165368 260.092607 117.444872 180.809908 87.195396 190.931284 C 66.224797 197.947978 83.425691 252.433863 61.314491 252.741775 C 17.173875 253.35646 50.229322 127.223473 6.232484 130.83595 C -63.175122 136.534846 20.777682 344.832333 -48.129477 334.747862 C -118.145104 324.501168 24.22833 146.179416 -41.676503 120.416345 C -80.598195 105.20134 -84.576271 204.409204 -124.720274 216.02185 C -141.120986 220.766162 -161.46115 212.40639 -174.260748 201.107622 C -187.118211 189.757774 -196.512114 170.694138 -195.301272 153.586617 C -193.15851 123.312346 -130.36748 101.222607 -146.593247 75.574071 C -179.116397 24.16379 -307.543395 153.463167 -329.71116 96.811931 C -345.041758 57.63354 -253.407481 54.186464 -226.735542 21.650619 C -217.177031 9.990639 -211.704825 -5.322993 -207.56186 -19.819755 C -203.936233 -32.506288 -199.213931 -46.753114 -202.630242 -59.497608 C -210.524916 -88.948561 -251.855222 -103.405463 -258.360574 -133.194134 C -262.659719 -152.880352 -260.72633 -179.989048 -245.187194 -192.817341 C -225.755324 -208.859271 -193.62968 -190.260417 -168.857139 -194.871526 C -152.75828 -197.868134 -133.830616 -200.053968 -122.094635 -211.474112 C -105.161661 -227.951388 -109.540888 -258.691947 -96.308736 -278.265818 C -83.76477 -296.82168 -68.225988 -330.606034 -46.662903 -324.547614 C 15.960333 -306.952829 -58.363289 -140.607232 6.417203 -134.713686 C 45.536088 -131.154761 19.442149 -244.356883 58.631405 -241.681948 C 81.457347 -240.123921 77.702608 -198.554873 80.295789 -175.823255 C 83.010774 -152.023911 53.494834 -116.35859 73.726346 -103.534167 C 103.122311 -84.900549 132.036856 -144.818533 164.644216 -156.987944 C 199.800902 -170.108791 260.25743 -211.517245 276.460573 -177.670423 C 303.868332 -120.418229 109.118175 -112.013132 130.59933 -52.284086 C 144.863858 -12.621104 249.260317 -90.952503 258.302356 -49.783699 C 266.371738 -13.043445 156.398546 -37.610562 155.76066 -0.000001 C 155.194201 33.399141 246.852987 13.905323 245.268768 47.27168 Z " fill="hsl(50, 98%, 50%)" stroke="undefined" stroke-width="1" stroke-opacity="1" fill-opacity="1" visibility="visible" stroke-linecap="butt" stroke-linejoin="miter" stroke-miterlimit="4"></path></g></svg>