<svg xmlns="http://www.w3.org/2000/svg" version="1.1" xmlns:xlink="http://www.w3.org/1999/xlink" viewBox="0 0 700 700" style="overflow: hidden; display: block;" width="700" height="700"><defs><linearGradient id="two-3" x1="350" y1="-350" x2="350" y2="350" spreadMethod="pad" gradientUnits="userSpaceOnUse"><stop offset="0%" stop-color="hsl(1.4, 100%, 67%)" stop-opacity="1"></stop><stop offset="100%" stop-color="hsl(167, 52%, 78%)" stop-opacity="1"></stop></linearGradient></defs><g id="two-0" transform="matrix(1 0 0 1 0 0)" opacity="1"><path transform="matrix(1 0 0 1 350 350)" id="two-2" d="M 275.810877 80.98538 C 270.713374 115.223109 310.085074 158.412126 288.108797 185.156281 C 262.973433 215.744904 206.888795 204.126057 168.496913 194.455804 C 125.597138 183.65009 97.859803 108.550263 55.71084 121.989725 C 32.017316 129.544553 51.743192 185.975768 27.592116 191.907384 C 6.879636 196.994464 -0.291938 148.313316 -21.557944 149.938793 C -71.833237 153.781609 -74.623863 284.674593 -121.32498 265.664648 C -162.754668 248.800468 -80.407147 161.041656 -112.970843 130.375302 C -139.840694 105.071037 -190.828616 160.154648 -223.990324 143.94984 C -246.971346 132.719928 -249.28101 98.498893 -263.844597 77.471763 C -282.437021 50.627737 -321.626006 32.434715 -325.403461 0 C -328.945099 -30.409904 -312.09164 -68.06192 -285.924593 -83.955036 C -239.211408 -112.327288 -149.450231 -31.082325 -120.434935 -77.398833 C -88.47001 -128.423773 -239.600492 -188.00832 -206.480481 -238.291178 C -187.966891 -266.398543 -134.846359 -244.896376 -104.860284 -229.611994 C -66.139275 -209.875275 -60.548268 -141.716804 -18.692982 -130.012545 C -5.600094 -126.351297 7.08422 -140.54455 20.512545 -142.667888 C 35.072939 -144.970233 50.584264 -140.68661 65.183099 -142.731079 C 91.548196 -146.423335 116.162508 -164.870813 142.784741 -164.782376 C 169.656303 -164.693111 209.958396 -166.519452 220.963552 -142.004653 C 234.372413 -112.135425 166.37846 -82.836972 178.400726 -52.38318 C 195.711547 -8.532866 293.337107 -43.583302 311.309599 -0.000001 C 322.433823 26.976248 280.107977 52.123619 275.810877 80.98538 Z " fill="hsl(50, 98%, 50%)" stroke="undefined" stroke-width="1" stroke-opacity="1" fill-opacity="1" visibility="visible" stroke-linecap="butt" stroke-linejoin="miter" stroke-miterlimit="4"></path></g></svg>