<svg xmlns="http://www.w3.org/2000/svg" version="1.1" xmlns:xlink="http://www.w3.org/1999/xlink" xmlns:svgjs="http://svgjs.dev/svgjs" viewBox="0 0 2400 800"><defs><linearGradient x1="50%" y1="0%" x2="50%" y2="100%" id="sssurf-grad"><stop stop-color="hsl(162, 100%, 58%)" stop-opacity="1" offset="0%"></stop><stop stop-color="hsl(270, 73%, 53%)" stop-opacity="1" offset="100%"></stop></linearGradient></defs><g fill="url(#sssurf-grad)" transform="matrix(1,0,0,1,10.8282470703125,222.50029754638672)"><path d="M-10,10C33.75,15.416666666666666,114.58333333333334,43.291666666666664,200,36C285.41666666666663,28.708333333333336,316.66666666666663,-25.208333333333332,400,-25C483.33333333333337,-24.791666666666668,516.6666666666666,32.416666666666664,600,37C683.3333333333334,41.583333333333336,716.6666666666666,-5.083333333333334,800,-3C883.3333333333334,-0.9166666666666665,916.6666666666666,50.958333333333336,1000,47C1083.3333333333333,43.041666666666664,1116.6666666666667,-22,1200,-22C1283.3333333333333,-22,1316.6666666666667,42,1400,47C1483.3333333333333,52,1516.6666666666667,4.916666666666667,1600,2C1683.3333333333333,-0.916666666666667,1716.6666666666667,33.625,1800,33C1883.3333333333333,32.375,1916.6666666666667,-1,2000,-1C2083.3333333333335,-1,2118.75,30.708333333333332,2200,33C2281.25,35.291666666666664,2296.25,-66.45833333333333,2390,10C2483.75,86.45833333333333,3252.0833333333335,214.58333333333331,2650,400C2047.9166666666665,585.4166666666667,156.25,795.8333333333334,-500,900" transform="matrix(1,0,0,1,0,35)" opacity="0.05"></path><path d="M-10,10C33.75,15.416666666666666,114.58333333333334,43.291666666666664,200,36C285.41666666666663,28.708333333333336,316.66666666666663,-25.208333333333332,400,-25C483.33333333333337,-24.791666666666668,516.6666666666666,32.416666666666664,600,37C683.3333333333334,41.583333333333336,716.6666666666666,-5.083333333333334,800,-3C883.3333333333334,-0.9166666666666665,916.6666666666666,50.958333333333336,1000,47C1083.3333333333333,43.041666666666664,1116.6666666666667,-22,1200,-22C1283.3333333333333,-22,1316.6666666666667,42,1400,47C1483.3333333333333,52,1516.6666666666667,4.916666666666667,1600,2C1683.3333333333333,-0.916666666666667,1716.6666666666667,33.625,1800,33C1883.3333333333333,32.375,1916.6666666666667,-1,2000,-1C2083.3333333333335,-1,2118.75,30.708333333333332,2200,33C2281.25,35.291666666666664,2296.25,-66.45833333333333,2390,10C2483.75,86.45833333333333,3252.0833333333335,214.58333333333331,2650,400C2047.9166666666665,585.4166666666667,156.25,795.8333333333334,-500,900" transform="matrix(1,0,0,1,0,70)" opacity="0.21"></path><path d="M-10,10C33.75,15.416666666666666,114.58333333333334,43.291666666666664,200,36C285.41666666666663,28.708333333333336,316.66666666666663,-25.208333333333332,400,-25C483.33333333333337,-24.791666666666668,516.6666666666666,32.416666666666664,600,37C683.3333333333334,41.583333333333336,716.6666666666666,-5.083333333333334,800,-3C883.3333333333334,-0.9166666666666665,916.6666666666666,50.958333333333336,1000,47C1083.3333333333333,43.041666666666664,1116.6666666666667,-22,1200,-22C1283.3333333333333,-22,1316.6666666666667,42,1400,47C1483.3333333333333,52,1516.6666666666667,4.916666666666667,1600,2C1683.3333333333333,-0.916666666666667,1716.6666666666667,33.625,1800,33C1883.3333333333333,32.375,1916.6666666666667,-1,2000,-1C2083.3333333333335,-1,2118.75,30.708333333333332,2200,33C2281.25,35.291666666666664,2296.25,-66.45833333333333,2390,10C2483.75,86.45833333333333,3252.0833333333335,214.58333333333331,2650,400C2047.9166666666665,585.4166666666667,156.25,795.8333333333334,-500,900" transform="matrix(1,0,0,1,0,105)" opacity="0.37"></path><path d="M-10,10C33.75,15.416666666666666,114.58333333333334,43.291666666666664,200,36C285.41666666666663,28.708333333333336,316.66666666666663,-25.208333333333332,400,-25C483.33333333333337,-24.791666666666668,516.6666666666666,32.416666666666664,600,37C683.3333333333334,41.583333333333336,716.6666666666666,-5.083333333333334,800,-3C883.3333333333334,-0.9166666666666665,916.6666666666666,50.958333333333336,1000,47C1083.3333333333333,43.041666666666664,1116.6666666666667,-22,1200,-22C1283.3333333333333,-22,1316.6666666666667,42,1400,47C1483.3333333333333,52,1516.6666666666667,4.916666666666667,1600,2C1683.3333333333333,-0.916666666666667,1716.6666666666667,33.625,1800,33C1883.3333333333333,32.375,1916.6666666666667,-1,2000,-1C2083.3333333333335,-1,2118.75,30.708333333333332,2200,33C2281.25,35.291666666666664,2296.25,-66.45833333333333,2390,10C2483.75,86.45833333333333,3252.0833333333335,214.58333333333331,2650,400C2047.9166666666665,585.4166666666667,156.25,795.8333333333334,-500,900" transform="matrix(1,0,0,1,0,140)" opacity="0.53"></path><path d="M-10,10C33.75,15.416666666666666,114.58333333333334,43.291666666666664,200,36C285.41666666666663,28.708333333333336,316.66666666666663,-25.208333333333332,400,-25C483.33333333333337,-24.791666666666668,516.6666666666666,32.416666666666664,600,37C683.3333333333334,41.583333333333336,716.6666666666666,-5.083333333333334,800,-3C883.3333333333334,-0.9166666666666665,916.6666666666666,50.958333333333336,1000,47C1083.3333333333333,43.041666666666664,1116.6666666666667,-22,1200,-22C1283.3333333333333,-22,1316.6666666666667,42,1400,47C1483.3333333333333,52,1516.6666666666667,4.916666666666667,1600,2C1683.3333333333333,-0.916666666666667,1716.6666666666667,33.625,1800,33C1883.3333333333333,32.375,1916.6666666666667,-1,2000,-1C2083.3333333333335,-1,2118.75,30.708333333333332,2200,33C2281.25,35.291666666666664,2296.25,-66.45833333333333,2390,10C2483.75,86.45833333333333,3252.0833333333335,214.58333333333331,2650,400C2047.9166666666665,585.4166666666667,156.25,795.8333333333334,-500,900" transform="matrix(1,0,0,1,0,175)" opacity="0.68"></path><path d="M-10,10C33.75,15.416666666666666,114.58333333333334,43.291666666666664,200,36C285.41666666666663,28.708333333333336,316.66666666666663,-25.208333333333332,400,-25C483.33333333333337,-24.791666666666668,516.6666666666666,32.416666666666664,600,37C683.3333333333334,41.583333333333336,716.6666666666666,-5.083333333333334,800,-3C883.3333333333334,-0.9166666666666665,916.6666666666666,50.958333333333336,1000,47C1083.3333333333333,43.041666666666664,1116.6666666666667,-22,1200,-22C1283.3333333333333,-22,1316.6666666666667,42,1400,47C1483.3333333333333,52,1516.6666666666667,4.916666666666667,1600,2C1683.3333333333333,-0.916666666666667,1716.6666666666667,33.625,1800,33C1883.3333333333333,32.375,1916.6666666666667,-1,2000,-1C2083.3333333333335,-1,2118.75,30.708333333333332,2200,33C2281.25,35.291666666666664,2296.25,-66.45833333333333,2390,10C2483.75,86.45833333333333,3252.0833333333335,214.58333333333331,2650,400C2047.9166666666665,585.4166666666667,156.25,795.8333333333334,-500,900" transform="matrix(1,0,0,1,0,210)" opacity="0.84"></path><path d="M-10,10C33.75,15.416666666666666,114.58333333333334,43.291666666666664,200,36C285.41666666666663,28.708333333333336,316.66666666666663,-25.208333333333332,400,-25C483.33333333333337,-24.791666666666668,516.6666666666666,32.416666666666664,600,37C683.3333333333334,41.583333333333336,716.6666666666666,-5.083333333333334,800,-3C883.3333333333334,-0.9166666666666665,916.6666666666666,50.958333333333336,1000,47C1083.3333333333333,43.041666666666664,1116.6666666666667,-22,1200,-22C1283.3333333333333,-22,1316.6666666666667,42,1400,47C1483.3333333333333,52,1516.6666666666667,4.916666666666667,1600,2C1683.3333333333333,-0.916666666666667,1716.6666666666667,33.625,1800,33C1883.3333333333333,32.375,1916.6666666666667,-1,2000,-1C2083.3333333333335,-1,2118.75,30.708333333333332,2200,33C2281.25,35.291666666666664,2296.25,-66.45833333333333,2390,10C2483.75,86.45833333333333,3252.0833333333335,214.58333333333331,2650,400C2047.9166666666665,585.4166666666667,156.25,795.8333333333334,-500,900" transform="matrix(1,0,0,1,0,245)" opacity="1"></path></g></svg>