<svg xmlns="http://www.w3.org/2000/svg" version="1.1" xmlns:xlink="http://www.w3.org/1999/xlink" xmlns:svgjs="http://svgjs.dev/svgjs" viewBox="0 0 800 800"><g fill="none" stroke-width="3" stroke="hsl(335, 77%, 50%)" stroke-linecap="round"><line x1="610.5" y1="400" x2="189.5" y2="400" transform="rotate(0, 400, 400)" opacity="0.74"></line><line x1="155" y1="400" x2="645" y2="400" transform="rotate(4, 400, 400)" opacity="0.84"></line><line x1="366" y1="400" x2="434" y2="400" transform="rotate(8, 400, 400)" opacity="0.77"></line><line x1="438.5" y1="400" x2="361.5" y2="400" transform="rotate(12, 400, 400)" opacity="0.99"></line><line x1="286" y1="400" x2="514" y2="400" transform="rotate(16, 400, 400)" opacity="0.99"></line><line x1="586.5" y1="400" x2="213.5" y2="400" transform="rotate(20, 400, 400)" opacity="0.37"></line><line x1="302.5" y1="400" x2="497.5" y2="400" transform="rotate(24, 400, 400)" opacity="0.78"></line><line x1="581.5" y1="400" x2="218.5" y2="400" transform="rotate(28, 400, 400)" opacity="0.93"></line><line x1="724" y1="400" x2="76" y2="400" transform="rotate(32, 400, 400)" opacity="0.22"></line><line x1="39" y1="400" x2="761" y2="400" transform="rotate(36, 400, 400)" opacity="0.57"></line><line x1="730.5" y1="400" x2="69.5" y2="400" transform="rotate(40, 400, 400)" opacity="0.39"></line><line x1="709" y1="400" x2="91" y2="400" transform="rotate(44, 400, 400)" opacity="0.18"></line><line x1="438" y1="400" x2="362" y2="400" transform="rotate(48, 400, 400)" opacity="0.81"></line><line x1="526.5" y1="400" x2="273.5" y2="400" transform="rotate(52, 400, 400)" opacity="0.63"></line><line x1="60.5" y1="400" x2="739.5" y2="400" transform="rotate(56, 400, 400)" opacity="0.67"></line><line x1="143" y1="400" x2="657" y2="400" transform="rotate(60, 400, 400)" opacity="0.58"></line><line x1="585.5" y1="400" x2="214.5" y2="400" transform="rotate(64, 400, 400)" opacity="0.98"></line><line x1="340.5" y1="400" x2="459.5" y2="400" transform="rotate(68, 400, 400)" opacity="0.17"></line><line x1="41" y1="400" x2="759" y2="400" transform="rotate(72, 400, 400)" opacity="0.72"></line><line x1="113" y1="400" x2="687" y2="400" transform="rotate(76, 400, 400)" opacity="0.28"></line><line x1="523.5" y1="400" x2="276.5" y2="400" transform="rotate(80, 400, 400)" opacity="0.80"></line><line x1="301.5" y1="400" x2="498.5" y2="400" transform="rotate(84, 400, 400)" opacity="0.32"></line><line x1="437.5" y1="400" x2="362.5" y2="400" transform="rotate(88, 400, 400)" opacity="0.64"></line><line x1="634.5" y1="400" x2="165.5" y2="400" transform="rotate(92, 400, 400)" opacity="0.42"></line><line x1="269" y1="400" x2="531" y2="400" transform="rotate(96, 400, 400)" opacity="0.55"></line><line x1="33.5" y1="400" x2="766.5" y2="400" transform="rotate(100, 400, 400)" opacity="0.56"></line><line x1="676" y1="400" x2="124" y2="400" transform="rotate(104, 400, 400)" opacity="0.98"></line><line x1="445" y1="400" x2="355" y2="400" transform="rotate(108, 400, 400)" opacity="0.92"></line><line x1="551.5" y1="400" x2="248.5" y2="400" transform="rotate(112, 400, 400)" opacity="0.71"></line><line x1="30.5" y1="400" x2="769.5" y2="400" transform="rotate(116, 400, 400)" opacity="0.83"></line><line x1="367" y1="400" x2="433" y2="400" transform="rotate(120, 400, 400)" opacity="0.73"></line><line x1="594" y1="400" x2="206" y2="400" transform="rotate(124, 400, 400)" opacity="0.15"></line><line x1="499.5" y1="400" x2="300.5" y2="400" transform="rotate(128, 400, 400)" opacity="0.09"></line><line x1="704.5" y1="400" x2="95.5" y2="400" transform="rotate(132, 400, 400)" opacity="0.29"></line><line x1="619" y1="400" x2="181" y2="400" transform="rotate(136, 400, 400)" opacity="0.75"></line><line x1="73" y1="400" x2="727" y2="400" transform="rotate(140, 400, 400)" opacity="0.30"></line><line x1="702" y1="400" x2="98" y2="400" transform="rotate(144, 400, 400)" opacity="0.48"></line><line x1="458" y1="400" x2="342" y2="400" transform="rotate(148, 400, 400)" opacity="0.51"></line><line x1="364" y1="400" x2="436" y2="400" transform="rotate(152, 400, 400)" opacity="0.14"></line><line x1="224" y1="400" x2="576" y2="400" transform="rotate(156, 400, 400)" opacity="0.14"></line><line x1="577" y1="400" x2="223" y2="400" transform="rotate(160, 400, 400)" opacity="0.22"></line><line x1="703.5" y1="400" x2="96.5" y2="400" transform="rotate(164, 400, 400)" opacity="0.71"></line><line x1="240.5" y1="400" x2="559.5" y2="400" transform="rotate(168, 400, 400)" opacity="0.76"></line><line x1="279.5" y1="400" x2="520.5" y2="400" transform="rotate(172, 400, 400)" opacity="0.58"></line><line x1="711" y1="400" x2="89" y2="400" transform="rotate(176, 400, 400)" opacity="0.92"></line><line x1="158.5" y1="400" x2="641.5" y2="400" transform="rotate(180, 400, 400)" opacity="0.90"></line><line x1="418.5" y1="400" x2="381.5" y2="400" transform="rotate(184, 400, 400)" opacity="0.90"></line><line x1="684" y1="400" x2="116" y2="400" transform="rotate(188, 400, 400)" opacity="0.25"></line><line x1="343" y1="400" x2="457" y2="400" transform="rotate(192, 400, 400)" opacity="0.88"></line><line x1="142" y1="400" x2="658" y2="400" transform="rotate(196, 400, 400)" opacity="0.36"></line><line x1="506.5" y1="400" x2="293.5" y2="400" transform="rotate(200, 400, 400)" opacity="0.09"></line><line x1="174" y1="400" x2="626" y2="400" transform="rotate(204, 400, 400)" opacity="0.89"></line><line x1="409.5" y1="400" x2="390.5" y2="400" transform="rotate(208, 400, 400)" opacity="0.56"></line><line x1="113.5" y1="400" x2="686.5" y2="400" transform="rotate(212, 400, 400)" opacity="0.23"></line><line x1="149.5" y1="400" x2="650.5" y2="400" transform="rotate(216, 400, 400)" opacity="0.44"></line><line x1="588.5" y1="400" x2="211.5" y2="400" transform="rotate(220, 400, 400)" opacity="0.39"></line><line x1="515.5" y1="400" x2="284.5" y2="400" transform="rotate(224, 400, 400)" opacity="0.53"></line><line x1="536.5" y1="400" x2="263.5" y2="400" transform="rotate(228, 400, 400)" opacity="0.60"></line><line x1="398" y1="400" x2="402" y2="400" transform="rotate(232, 400, 400)" opacity="0.96"></line><line x1="683.5" y1="400" x2="116.5" y2="400" transform="rotate(236, 400, 400)" opacity="0.70"></line><line x1="144.5" y1="400" x2="655.5" y2="400" transform="rotate(240, 400, 400)" opacity="0.78"></line><line x1="737.5" y1="400" x2="62.5" y2="400" transform="rotate(244, 400, 400)" opacity="0.65"></line><line x1="595.5" y1="400" x2="204.5" y2="400" transform="rotate(248, 400, 400)" opacity="0.34"></line><line x1="172.5" y1="400" x2="627.5" y2="400" transform="rotate(252, 400, 400)" opacity="0.88"></line><line x1="495" y1="400" x2="305" y2="400" transform="rotate(256, 400, 400)" opacity="0.16"></line><line x1="425.5" y1="400" x2="374.5" y2="400" transform="rotate(260, 400, 400)" opacity="0.16"></line><line x1="357.5" y1="400" x2="442.5" y2="400" transform="rotate(264, 400, 400)" opacity="0.54"></line><line x1="226.5" y1="400" x2="573.5" y2="400" transform="rotate(268, 400, 400)" opacity="0.77"></line><line x1="334.5" y1="400" x2="465.5" y2="400" transform="rotate(272, 400, 400)" opacity="0.75"></line><line x1="497" y1="400" x2="303" y2="400" transform="rotate(276, 400, 400)" opacity="0.16"></line><line x1="699.5" y1="400" x2="100.5" y2="400" transform="rotate(280, 400, 400)" opacity="0.57"></line><line x1="147" y1="400" x2="653" y2="400" transform="rotate(284, 400, 400)" opacity="0.44"></line><line x1="90.5" y1="400" x2="709.5" y2="400" transform="rotate(288, 400, 400)" opacity="0.48"></line><line x1="639.5" y1="400" x2="160.5" y2="400" transform="rotate(292, 400, 400)" opacity="0.08"></line><line x1="596" y1="400" x2="204" y2="400" transform="rotate(296, 400, 400)" opacity="0.82"></line><line x1="440" y1="400" x2="360" y2="400" transform="rotate(300, 400, 400)" opacity="0.29"></line><line x1="237.5" y1="400" x2="562.5" y2="400" transform="rotate(304, 400, 400)" opacity="0.56"></line><line x1="503" y1="400" x2="297" y2="400" transform="rotate(308, 400, 400)" opacity="0.10"></line><line x1="264" y1="400" x2="536" y2="400" transform="rotate(312, 400, 400)" opacity="0.30"></line><line x1="291" y1="400" x2="509" y2="400" transform="rotate(316, 400, 400)" opacity="0.10"></line><line x1="215.5" y1="400" x2="584.5" y2="400" transform="rotate(320, 400, 400)" opacity="0.46"></line><line x1="138.5" y1="400" x2="661.5" y2="400" transform="rotate(324, 400, 400)" opacity="0.10"></line><line x1="312.5" y1="400" x2="487.5" y2="400" transform="rotate(328, 400, 400)" opacity="0.90"></line><line x1="60.5" y1="400" x2="739.5" y2="400" transform="rotate(332, 400, 400)" opacity="0.16"></line><line x1="651" y1="400" x2="149" y2="400" transform="rotate(336, 400, 400)" opacity="0.69"></line><line x1="546" y1="400" x2="254" y2="400" transform="rotate(340, 400, 400)" opacity="0.13"></line><line x1="680.5" y1="400" x2="119.5" y2="400" transform="rotate(344, 400, 400)" opacity="0.77"></line><line x1="48.5" y1="400" x2="751.5" y2="400" transform="rotate(348, 400, 400)" opacity="0.55"></line></g></svg>