<svg xmlns="http://www.w3.org/2000/svg" version="1.1" xmlns:xlink="http://www.w3.org/1999/xlink" xmlns:svgjs="http://svgjs.dev/svgjs" viewBox="0 0 800 800"><defs><filter id="uuunion-blur" x="-100%" y="-100%" width="400%" height="400%" color-interpolation-filters="sRGB">
        <feGaussianBlur in="SourceGraphic" stdDeviation="7.5 0" result="blur"></feGaussianBlur>
        <feDropShadow stdDeviation="12.307692307692308" in="blur" dx="10" dy="10" flood-color="hsl(316, 73%, 52%)" flood-opacity="0.25" x="0%" y="0%" width="100%" height="100%"></feDropShadow>
      </filter><filter id="uuunion-blur2" x="-100%" y="-100%" width="400%" height="400%" color-interpolation-filters="sRGB">
        <feGaussianBlur in="SourceGraphic" stdDeviation="7.5 0" result="blur"></feGaussianBlur>
        <feDropShadow stdDeviation="12.307692307692308" in="blur" dx="-10" dy="-10" flood-color="hsl(316, 73%, 52%)" flood-opacity="0.25" x="0%" y="0%" width="100%" height="100%"></feDropShadow>
      </filter><linearGradient gradientTransform="rotate(0, 0.5, 0.5)" x1="50%" y1="0%" x2="50%" y2="100%" id="uuunion-grad"><stop stop-color="hsl(37, 99%, 67%)" offset="10%"></stop><stop stop-color="hsl(316, 73%, 52%)" offset="90%"></stop></linearGradient><linearGradient gradientTransform="rotate(135, 0.5, 0.5)" x1="50%" y1="0%" x2="50%" y2="100%" id="uuunion-grad2"><stop stop-color="hsl(37, 99%, 67%)" offset="25%"></stop><stop stop-color="hsl(316, 73%, 52%)" offset="100%"></stop></linearGradient><linearGradient gradientTransform="rotate(333, 0.5, 0.5)" x1="50%" y1="0%" x2="50%" y2="100%" id="uuunion-grad3"><stop stop-color="hsl(37, 99%, 67%)" offset="0%"></stop><stop stop-color="hsl(316, 73%, 52%)" offset="75%"></stop></linearGradient></defs><path d="M-78.9 -86.63Q-64.29 -83.41 -49.68 -79.51 -35.08 -75.7 -20.47 -72.76 -5.86 -71.3 8.73 -71.6 23.34 -73.6 37.95 -76.91 52.56 -80.84 67.16 -84.6 81.77 -87.42 96.38 -88.74 110.98 -88.28 125.59 -86.14 140.2 -82.75 154.8 -78.8 169.41 -75.09 184.02 -72.38 198.63 -71.22 213.23 -71.83 227.84 -74.11 242.45 -77.58 257.05 -81.54 271.66 -85.19 286.27 -87.78 300.87 -88.79 315.48 -88.02 330.09 -85.61 344.7 -82.07 359.3 -78.1 373.91 -74.52 388.52 -72.05 403.12 -71.2 417.73 -72.13 432.34 -74.65 446.94 -78.27 461.55 -82.23 476.16 -85.74 490.77 -88.08 505.37 -88.78 519.98 -87.7 534.59 -85.05 549.19 -81.38 563.8 -77.42 578.41 -73.99 593.01 -71.77 607.62 -71.23 622.23 -72.47 636.84 -75.23 651.44 -78.96 666.05 -82.91 680.66 -86.26 695.26 -88.34 709.87 -88.72 724.48 -87.33 739.08 -84.46 753.69 -80.67 768.3 -76.75 782.91 -73.49 797.51 -71.55 812.12 -71.32 826.73 -72.86 841.33 -75.84 855.94 -79.67 857.31 -64.66 860.48 -49.65 865.21 -34.65 871.11 -19.64 877.72 -4.63 884.52 10.37 890.95 25.38 896.51 40.39 900.75 55.39 903.35 70.4 904.08 85.41 902.9 100.42 899.9 115.43 895.31 130.44 889.51 145.44 882.95 160.45 876.15 175.46 869.66 190.47 863.99 205.48 859.59 220.49 856.82 235.49 855.9 250.5 856.88 265.51 859.71 280.52 864.16 295.53 869.86 310.54 876.37 325.54 883.16 340.55 889.71 355.56 895.48 370.57 900.02 385.58 902.97 400.58 904.09 415.59 903.29 430.6 900.64 445.61 896.34 460.62 890.75 475.63 884.3 490.63 877.5 505.64 870.91 520.65 865.04 535.66 860.36 550.67 857.24 565.68 855.93 580.68 856.53 595.69 859.01 610.7 863.15 625.71 868.63 640.72 875.02 655.73 881.8 670.73 888.44 685.74 894.41 700.75 899.23 715.76 902.52 730.77 904.02 745.78 903.6 760.78 901.31 775.79 897.32 790.8 891.95 805.81 885.64 820.82 878.87 835.83 872.19 850.83 866.13 865.84 861.18 880.85 846.49 890.94 831.79 898.81 817.1 902.86 802.41 902.26 787.72 897.15 773.02 888.55 758.33 878.21 743.64 868.23 728.95 860.65 714.25 856.99 699.56 858.01 684.87 863.49 670.18 872.32 655.48 882.71 640.79 892.55 626.1 899.84 611.41 903.1 596.71 901.67 582.02 895.84 567.33 886.78 552.64 876.36 537.94 866.66 523.25 859.68 508.56 856.82 493.86 858.67 479.17 864.85 464.48 874.1 449.79 884.55 435.09 894.08 420.4 900.74 405.71 903.19 391.02 900.93 376.32 894.42 361.63 884.98 346.94 874.53 332.25 865.18 317.55 858.85 302.86 856.81 288.17 859.47 273.48 866.31 258.78 875.93 244.09 886.37 229.4 895.51 214.71 901.51 200.01 903.14 185.32 900.06 170.63 892.91 155.94 883.14 141.24 872.73 126.55 863.79 111.86 858.15 97.16 856.94 82.47 860.41 67.78 867.86 53.09 877.77 38.39 888.14 23.7 896.85 9.01 902.14 -5.67 902.93 -20.37 899.06 -35.06 891.32 -49.75 881.29 -64.44 870.98 -79.14 862.51 -79.36 847.68 -79.64 832.85 -79.94 818.02 -80.25 803.19 -80.54 788.36 -80.79 773.53 -80.97 758.7 -81.07 743.87 -81.09 729.04 -81.02 714.21 -80.87 699.38 -80.65 684.55 -80.38 669.72 -80.08 654.89 -79.77 640.06 -79.48 625.23 -79.23 610.39 -79.04 595.56 -78.92 580.73 -78.9 565.9 -78.96 551.07 -79.1 536.24 -79.31 521.41 -79.58 506.58 -79.88 491.75 -80.19 476.92 -80.49 462.09 -80.74 447.26 -80.94 432.43 -81.06 417.6 -81.09 402.77 -81.04 387.94 -80.91 373.11 -80.7 358.28 -80.44 343.45 -80.14 328.62 -79.83 313.79 -79.53 298.96 -79.27 284.13 -79.07 269.29 -78.94 254.46 -78.9 239.63 -78.94 224.8 -79.06 209.97 -79.26 195.14 -79.52 180.31 -79.82 165.48 -80.13 150.65 -80.43 135.82 -80.69 120.99 -80.9 106.16 -81.04 91.33 -81.09 76.5 -81.06 61.67 -80.94 46.84 -80.75 32.01 -80.49 17.18 -80.2 2.35 -79.89 -12.47 -79.59 -27.3 -79.32 -42.13 -79.1 -56.97 -78.96 -71.8 -78.9 -86.63" fill="url(#uuunion-grad)"></path><path d="M-78.9 -86.63Q-78.96 -71.8 -79.1 -56.97 -79.32 -42.13 -79.59 -27.3 -79.89 -12.47 -80.2 2.35 -80.49 17.18 -80.75 32.01 -80.94 46.84 -81.06 61.67 -81.09 76.5 -81.04 91.33 -80.9 106.16 -80.69 120.99 -80.43 135.82 -80.13 150.65 -79.82 165.48 -79.52 180.31 -79.26 195.14 -79.06 209.97 -78.94 224.8 -78.9 239.63 -78.94 254.46 -79.07 269.29 -79.27 284.13 -79.53 298.96 -79.83 313.79 -80.14 328.62 -80.44 343.45 -80.7 358.28 -80.91 373.11 -81.04 387.94 -70.79 391.63 -60.54 396.08 -50.29 400.88 -40.04 405.61 -29.79 409.83 -19.54 413.15 -0.33 415.8 2.99 415.97 15.71 408.15 28.38 398.33 41 387.03 53.54 374.98 66.01 363 78.39 351.9 90.69 342.34 102.89 334.77 115.01 329.35 127.04 325.95 138.99 324.12 150.86 323.24 162.67 322.54 174.42 321.24 186.13 318.65 197.82 314.27 209.49 307.86 221.17 299.48 232.87 289.44 244.61 278.31 256.41 266.77 268.28 255.58 280.25 245.43 292.33 236.84 304.53 230.13 316.87 225.34 329.35 222.23 341.99 220.34 354.79 219.04 367.76 217.63 380.89 215.43 394.18 211.89 407.63 206.64 421.23 199.57 434.96 190.82 448.81 180.76 462.77 169.95 476.82 159.04 490.93 148.69 505.07 139.45 519.23 131.74 533.38 125.73 547.48 121.36 561.52 118.36 575.46 116.23 589.27 114.38 602.93 112.21 616.42 109.13 629.72 104.72 642.79 98.75 655.63 91.19 668.22 82.26 680.55 72.36 692.61 62.02 704.41 51.81 715.93 42.29 727.2 33.9 738.2 26.93 748.97 21.45 759.52 17.33 769.87 14.24 780.04 11.73 790.08 9.25 800 6.29 792.86 -11.37 786.5 -29.03 781.6 -46.7 778.68 -64.36 778.07 -82.03 779.82 -99.69 783.76 -117.36 789.45 -135.02 774.73 -138.2 760.01 -141.74 745.29 -144.93 730.57 -147.13 715.85 -147.89 701.13 -147.08 686.42 -144.84 671.7 -141.63 656.98 -138.09 642.26 -134.94 627.54 -132.79 612.82 -132.1 598.1 -132.99 583.39 -135.28 568.67 -138.52 553.95 -142.05 539.23 -145.18 524.51 -147.26 509.79 -147.89 495.07 -146.93 480.35 -144.58 465.64 -141.31 450.92 -137.78 436.2 -134.69 421.48 -132.67 406.76 -132.11 392.04 -133.14 377.32 -135.54 362.61 -138.83 347.89 -142.36 333.17 -145.41 318.45 -147.38 303.73 -147.86 289.01 -146.77 274.29 -144.32 259.58 -141 244.86 -137.48 230.14 -134.46 215.42 -132.55 200.7 -132.14 185.98 -133.3 171.26 -135.81 156.55 -139.15 141.83 -142.67 127.11 -145.64 112.39 -147.49 97.67 -147.83 82.95 -146.6 68.23 -144.04 53.51 -140.68 38.8 -137.17 24.08 -134.24 9.36 -132.45 -5.35 -132.18 -20.07 -133.48 -34.79 -136.08 -49.51 -139.47 -64.22 -142.97 -78.94 -145.86 -93.66 -147.58 -108.38 -147.78 -123.1 -146.42 -132.42 -131.65 -115.18 -117.67 -106.04 -110.89 -96.95 -103.46 -87.91 -95.37 -78.9 -86.63" fill="url(#uuunion-grad2)" filter="url(#uuunion-blur)"></path><path d="M820.97 410.06Q831.22 413.31 841.47 415.35 851.72 415.99 861.97 415.17 872.22 412.97 882.47 409.59 898.4 410.46 903.29 430.6 900.64 445.61 896.34 460.62 890.75 475.63 884.3 490.63 877.5 505.64 870.91 520.65 865.04 535.66 860.36 550.67 857.24 565.68 855.93 580.68 856.53 595.69 859.01 610.7 863.15 625.71 868.63 640.72 875.02 655.73 881.8 670.73 888.44 685.74 894.41 700.75 899.23 715.76 902.52 730.77 904.02 745.78 903.6 760.78 901.31 775.79 897.32 790.8 891.95 805.81 885.64 820.82 878.87 835.83 872.19 850.83 866.13 865.84 861.18 880.85 847.7 890.17 834.21 897.74 820.73 902.28 807.25 902.99 793.76 899.75 780.28 893.13 766.8 884.26 753.31 874.65 739.83 865.96 726.34 859.68 712.86 856.88 699.38 858.05 685.89 862.98 672.41 870.82 658.93 880.25 645.44 889.62 631.96 897.35 618.48 902.1 604.99 903.06 591.51 900.06 578.03 893.62 564.54 884.85 551.06 875.24 537.58 866.45 524.09 859.98 510.61 856.94 497.12 857.86 483.64 862.57 470.16 870.27 456.67 879.64 443.19 889.07 429.71 896.94 416.22 901.91 402.74 903.12 389.26 900.36 375.77 894.11 362.29 885.44 348.81 875.84 335.32 866.95 321.84 860.29 308.36 857.02 294.87 857.69 281.39 862.18 267.91 869.73 254.42 879.04 240.94 888.51 227.45 896.52 213.97 901.7 200.49 903.16 187 900.64 173.52 894.59 160.04 886.03 146.55 876.43 133.07 867.45 119.59 860.62 106.1 857.11 92.62 857.53 79.14 861.8 65.65 869.19 52.17 878.43 38.69 887.94 25.2 896.09 5.04 897.26 -1.48 882.88 -1.31 872.73 -1.13 862.58 -0.95 852.43 -0.77 842.28 -0.26 827.06 0.57 822 13.38 814.1 26.24 803.34 39.13 790.39 52.04 776.2 64.96 761.91 77.87 748.65 90.76 737.41 103.62 728.88 116.43 723.34 129.17 720.68 141.84 720.36 154.42 721.53 166.91 723.11 179.3 724.02 191.57 723.23 203.73 719.99 215.78 713.9 227.72 704.97 239.55 693.59 251.27 680.52 262.9 666.73 274.45 653.3 285.93 641.23 297.35 631.34 308.74 624.11 320.11 619.66 331.48 617.72 342.87 617.64 354.31 618.54 365.81 619.4 377.4 619.22 389.1 617.14 400.92 612.61 412.89 605.4 425.02 595.67 437.32 583.94 449.81 571 462.5 557.81 475.39 545.36 488.48 534.5 501.78 525.87 515.28 519.8 528.98 516.21 542.85 514.72 556.9 514.63 571.09 515.06 585.41 515.05 599.84 513.74 614.35 510.43 628.91 504.74 643.49 496.61 658.05 486.33 672.58 474.5 687.03 461.92 701.37 449.48 715.58 438.08 729.61 428.41 743.44 420.94 757.05 415.82 770.4 412.86 783.49 411.58 796.29 411.25 814.87 410.54 820.97 410.06" fill="url(#uuunion-grad3)" filter="url(#uuunion-blur2)"></path></svg>