<svg xmlns="http://www.w3.org/2000/svg" version="1.1" xmlns:xlink="http://www.w3.org/1999/xlink" xmlns:svgjs="http://svgjs.dev/svgjs" viewBox="0 0 800 800"><defs><linearGradient x1="50%" y1="0%" x2="50%" y2="100%" id="wwwhirl-grad"><stop stop-color="hsl(206, 75%, 49%)" stop-opacity="1" offset="45%"></stop><stop stop-color="hsl(331, 90%, 56%)" stop-opacity="1" offset="100%"></stop></linearGradient></defs><g stroke-width="2" stroke="url(#wwwhirl-grad)" fill="none" stroke-linecap="round"><path d="M37.00000251770027 454.954392316195C50.75000289917 432.47314169249205 75.50000358581553 351.58188944830556 103.000004348755 347.04438932242056C130.50000511169446 342.50688919653555 141.5000054168703 425.33689149450925 169.00000617980973 433.174391711947C196.5000069427492 441.0118919293848 207.50000724792503 384.45814036039974 235.00000801086446 384.6643903661218C262.500008773804 384.8706403718438 273.5000090789798 442.4143919682947 301.0000098419193 434.16439173941285C328.50001060485874 425.91439151053095 339.5000109100345 343.6206392274346 367.000011672974 345.06438926748893C394.50001243591345 346.5081393075433 405.5000127410893 436.55689180578855 433.0000135040287 441.09439193167356C460.5000142669682 445.6318920575586 471.50001457214404 366.0193898488488 499.0000153350834 366.844389871737C526.5000160980228 367.66938989462517 537.5000164031987 439.8981418984857 565.0000171661382 445.05439204153686C592.5000179290777 450.210642184588 603.5000182342535 392.8318905927148 631.000018997193 391.5943905583825C658.5000197601325 390.35689052405024 669.5000200653083 438.2893918538537 697.0000208282477 439.11439187674193C724.5000215911871 439.9393918996301 749.2500222778326 404.6293909200158 763.0000226593024 395.5543906682458 " transform="rotate(99, 400, 400)"></path><path d="M48.00000244140632 453.2891061977933C61.33333614464971 431.4891055929903 85.3333368104878 353.04910341680954 112.00000421697456 348.6491032947392C138.6666716234613 344.24910317266887 149.33333858605602 424.56910540100705 176.00000599254278 432.16910561185574C202.66667339902952 439.76910582270443 213.33334036162427 384.92910430126443 240.000007768111 385.1291043068131C266.6666751745978 385.3291043123617 277.3333421371925 441.1291058604353 304.00000954367925 433.12910563848925C330.66667695016605 425.1291054165432 341.3333439127607 345.3291032026316 368.00001131924745 346.72910324147216C394.66667872573424 348.12910328031273 405.33334568832896 435.4491057028536 432.00001309481576 439.8491058249239C458.66668050130244 444.24910594699423 469.3333474638972 367.04910380521505 496.0000148703839 367.8491038274097C522.6666822768707 368.6491038496043 533.3333492394653 438.68910579274177 560.0000166459522 443.689105931458C586.666684052439 448.6891060701743 597.3333510150337 393.0491045265397 624.0000184215204 391.84910449324775C650.6666858280073 390.6491044599559 661.3333527906019 437.12910574946227 688.0000201970887 437.92910577165685C714.6666876035754 438.7291057938515 738.6666882694134 404.48910484392246 752.0000219726569 395.68910459978184 " transform="rotate(96, 400, 400)"></path><path d="M59.00000236511238 451.62382007939146C71.9166693901294 430.5050694934886 95.16667003516005 354.51631738531347 121.00000408519412 350.25381726705785C146.83333813522813 345.9913171488022 157.1666717552418 423.8013193075048 183.0000058052758 431.1638195117645C208.83333985530987 438.5263197160242 219.1666734753235 385.4000682421292 245.00000752535757 385.59381824750443C270.8333415753916 385.7875682528797 281.1666751954052 439.84381975257594 307.0000092454393 432.0938195375657C332.83334329547336 424.3438193225555 343.16667691548696 347.0375671778286 369.00001096552097 348.3938172154554C394.83334501555504 349.7500672530822 405.1666786355687 434.3413195999187 431.0000126856027 438.6038197181743C456.8333467356368 442.8663198364299 467.16668035565044 368.0788177615813 493.0000144056845 368.8538177830824C518.8333484557185 369.6288178045834 529.1666820757321 437.4800696869978 555.0000161257661 442.3238198213792C580.8333501758003 447.1675699557606 591.1666837958139 393.2663184603645 617.000017845848 392.103818428113C642.8333518958821 390.94131839586146 653.1666855158957 435.9688196450708 679.0000195659296 436.7438196665718C704.8333536159636 437.5188196880729 728.0833542609943 404.34881876782913 741.0000212860114 395.8238185313179 " transform="rotate(93, 400, 400)"></path><path d="M70.00000228881842 449.9585301462924C82.50000263560909 429.52102957928963 105.00000325983231 355.98352753912013 130.00000395341365 351.8585274246792C155.00000464699497 347.7335273102383 165.00000492442751 423.0335293993053 190.00000561800886 430.15852959697594C215.0000063115902 437.2835297946466 225.00000658902275 385.8710283682966 250.00000728260406 386.05852837349846C275.00000797618543 386.2460283787003 285.000008253618 438.5585298300193 310.0000089471993 431.0585296219449C335.00000964078066 423.5585294138705 345.00000991821315 348.7460273383283 370.0000106117945 350.05852737474135C395.00001130537584 351.3710274111544 405.0000115828084 433.2335296822865 430.0000122763897 437.35852979672734C455.000012969971 441.4835299111683 465.0000132474036 369.1085279032503 490.00001394098496 369.85852792405774C515.0000146345662 370.6085279448652 525.0000149119987 436.2710297665566 550.0000156055801 440.95852989660307C575.0000162991615 445.6460300266496 585.000016576594 393.48352857949214 610.0000172701755 392.35852854828096C635.0000179637568 391.23352851706983 645.0000182411893 434.80852972598205 670.0000189347705 435.55852974678953C695.0000196283519 436.30852976759695 717.5000202525752 404.20852887703853 730.0000205993658 395.9585286481567 " transform="rotate(90, 400, 400)"></path><path d="M81.00000221252448 448.29324784258785C93.08333588108879 428.53699729448516 114.83333648450457 357.4507453223213 139.0000038216332 353.4632452116951C163.1666711587618 349.47574510106887 172.83333809361326 422.26574712050035 197.0000054307419 429.153247311582C221.16667276787052 436.04074750266363 230.833339702722 386.3419961238586 255.00000703985063 386.5232461288871C279.16667437697924 386.70449613391554 288.83334131183074 437.2732475368572 313.00000864895935 430.02324733571857C337.16667598608797 422.77324713458 346.8333429209394 350.45449512822256 371.000010258068 351.72324516342184C395.16667759519663 352.9919951986211 404.8333445300481 432.1257473940488 429.00001186717674 436.11324750467503C453.16667920430535 440.10074761530126 462.8333461391569 370.13824567431385 487.00001347628546 370.86324569442775C511.1666808134141 371.5882457145416 520.8333477482655 435.0619974755099 545.0000150853941 439.59324760122155C569.1666824225229 444.12449772693316 578.8333493573742 393.70074632801425 603.000016694503 392.6132462978435C627.1666840316316 391.5257462676727 636.8333509664831 433.6482474362879 661.0000183036116 434.37324745640177C685.1666856407402 435.0982474765156 706.9166862441559 404.06824661564247 719.0000199127203 396.09324639439 " transform="rotate(87, 400, 400)"></path><path d="M92.00000213623053 446.6279769829751C103.6666691265685 427.55297645377254 124.66666970917683 358.9179745496143 148.00000368985275 355.0679744428028C171.33333767052864 351.21797433599124 180.666671262799 421.49797628578716 204.00000524347493 428.1479764702798C227.33333922415085 434.7979766547724 236.66667281642125 386.8129753235124 260.00000679709717 386.98797532836744C283.33334077777306 387.1629753332225 292.66667437004344 435.9879766877869 316.0000083507193 428.98797649358414C339.3333423313953 421.98797629938133 348.66667592366565 352.1629743622087 372.00000990434154 353.3879743961941C395.3333438850174 354.61297443017963 404.6666774772878 431.0179765499029 428.00001145796375 434.86797665671446C451.3333454386397 438.71797676352594 460.6666790309101 371.1679748894692 484.000013011586 371.86797490888944C507.33334699226185 372.56797492830975 516.6666805845323 433.85297662855504 540.0000145652082 438.22797674993177C563.3333485458841 442.6029768713085 572.6666821381544 393.9179755206282 596.0000161188304 392.86797549149776C619.3333500995063 391.8179754623674 628.6666836917767 432.4879765906855 652.0000176724526 433.1879766101058C675.3333516531285 433.88797662952607 696.3333522357368 403.92797579833814 708.0000192260748 396.2279755847151 " transform="rotate(84, 400, 400)"></path><path d="M103.00000205993659 444.9626679763897C114.25000237204819 426.5689174660872 134.5000029338491 360.3851656299347 157.00000355807228 356.67266552693786C179.50000418229547 352.960165423941 188.5000044319848 420.7301673041013 211.00000505620795 427.1426674820049C233.50000568043117 433.55516765990853 242.50000593012047 387.28391637619353 265.0000065543437 387.4526663808752C287.5000071785669 387.62141638555687 296.5000074282562 434.70266769174395 319.0000080524794 427.95266750447695C341.5000086767026 421.20266731721 350.50000892639184 353.87141544922207 373.00000955061506 355.05266548199376C395.5000101748383 356.2339155147655 404.5000104245276 429.9101675587844 427.00001104875076 433.6226676617812C449.500011672974 437.335167764778 458.5000119226633 372.19766595765185 481.00001254688647 372.8726659763786C503.50001317110963 373.54766599510526 512.5000134207988 432.6439176346275 535.0000140450221 436.86266775166933C557.5000146692455 441.08141786871124 566.5000149189347 394.1351665662695 589.0000155431579 393.12266653817943C611.5000161673811 392.1101665100894 620.5000164170704 431.32766759811045 643.0000170412935 432.00266761683713C665.5000176655168 432.67766763556386 685.7500182273176 403.7876668340612 697.0000185394292 396.3626666280676 " transform="rotate(81, 400, 400)"></path><path d="M114.00000198364263 443.29739711677695C124.83333561752788 425.5848966253746 144.33333615852135 361.8523948572277 166.0000034262918 358.27739475804555C187.6666706940623 354.7023946588634 196.3333376011705 419.9623964693881 218.000004868941 426.1373966407027C239.6666721367115 432.3123968120173 248.3333390438197 387.7548955758473 270.0000063115902 387.91739558035556C291.6666735793607 388.07989558486383 300.33334048646896 433.4173968426736 322.0000077542394 426.91739666234247C343.6666750220099 420.4173964820113 352.3333419291181 355.5798946832081 374.0000091968886 356.71739471476604C395.6666764646591 357.854894746324 404.3333433717673 428.80239671463846 426.0000106395378 432.3773968138206C447.66667790730827 435.95239691300276 456.3333448144165 373.2273951728072 478.00001208218697 373.8773951908403C499.66667934995746 374.52739520887343 508.33334625706556 431.43489678767264 530.0000135248362 435.4973969003796C551.6666807926067 439.5598970130866 560.3333476997147 394.3523957588834 582.0000149674854 393.37739573183376C603.6666822352558 392.40239570478406 612.3333491423641 430.167396752508 634.0000164101345 430.81739677054117C655.666683677905 431.46739678857426 675.1666842188985 403.64739601675694 686.0000178527837 396.4973958183927 " transform="rotate(78, 400, 400)"></path><path d="M125.00000190734869 441.6321109983752C135.41666886300757 424.60086052587286 154.1666693831936 363.3196088257316 175.00000329451137 359.88210873036417C195.83333720582914 356.4446086349967 204.16667077035626 419.19461037588593 225.00000468167406 425.1321105406115C245.83333859299182 431.069610705337 254.16667215751897 388.22585951671203 275.00000606883674 388.3821095210469C295.8333399801545 388.5383595253818 304.16667354468166 432.13211073481426 325.0000074559994 425.8821105614189C345.8333413673172 419.6321103880236 354.16667493184434 357.2883586584051 375.00000884316205 358.3821086887493C395.8333427544799 359.4758587190935 404.166676319007 427.6946106117036 425.0000102303248 431.132110707071C445.83334414164256 434.56961080243843 454.1666777061697 374.25710912917344 475.0000116174875 374.88210914651296C495.83334552880524 375.50710916385253 504.1666790933323 430.2258606819287 525.0000130046501 434.13211079030077C545.8333469159679 438.03836089867286 554.166680480495 394.5696096927083 575.0000143918128 393.63210966669897C595.8333483031306 392.6946096406897 604.1666818676579 429.00711064811657 625.0000157789755 429.63211066545614C645.8333496902933 430.25711068279566 664.5833502104794 403.5071099406636 675.0000171661382 396.63210974992876 " transform="rotate(75, 400, 400)"></path><path d="M136.00000183105476 439.9668248799734C146.00000210848728 423.6168244263712 164.00000260786584 364.78682279423555 184.00000316273093 361.48682270268284C204.00000371759597 358.1868226111301 212.000003939542 418.4268242823837 232.00000449440708 424.12682444052024C252.00000504927215 429.82682459865674 260.0000052712182 388.6968234575767 280.0000058260833 388.8468234617382C300.0000063809483 388.99682346589975 308.00000660289436 430.8468246269549 328.00000715775946 424.8468244604954C348.00000771262455 418.84682429403586 356.00000793457053 358.9968226336021 376.0000084894356 360.04682266273255C396.00000904430067 361.09682269186294 404.0000092662467 426.5868245087686 424.0000098211118 429.88682460032135C444.0000103759769 433.1868246918741 452.0000105979229 375.2868230855397 472.000011152788 375.88682310218564C492.000011707653 376.48682311883164 500.00001192959905 429.0168245761847 520.0000124844642 432.76682468022193C540.0000130393292 436.51682478425914 548.0000132612753 394.7868236265332 568.0000138161404 393.88682360156423C588.0000143710055 392.98682357659527 596.0000145929514 427.8468245437251 616.0000151478165 428.44682456037106C636.0000157026815 429.04682457701705 654.00001620206 403.3668238645703 664.0000164794926 396.7668236814648 " transform="rotate(72, 400, 400)"></path><path d="M146.9999864959717 438.3015463909661C156.5833200951779 422.632795956264 173.83332057374906 366.254044392134 192.9999877721614 363.091544304396C212.16665497057375 359.9290442166579 219.8333218499387 417.65904581827596 238.99998904835104 423.1215459698235C258.1666562467634 428.584046121371 265.8333231261284 389.167795027836 284.9999903245407 389.3115450318241C304.1666575229531 389.4552950358122 311.83332440231806 429.56154614849004 330.9999916007304 423.8115459889663C350.1666587991428 418.06154582944265 357.83332567850766 360.70529423819363 376.99999287692003 361.7115442661103C396.1666600753324 362.71779429402693 403.8333269546974 425.4790460352282 422.99999415310975 428.64154612296625C442.1666613515221 431.8040462107043 449.83332823088705 376.3165446713005 468.9999954292994 376.89154468725286C488.16666262771173 377.4665447032053 495.83332950707666 427.8077960998353 514.9999967054891 431.4015461995376C534.1666639039015 434.99529629923995 541.8333307832664 395.00404518975256 560.9999979816788 394.141545165824C580.1666651800912 393.27904514189544 587.8333320594561 426.68654606872815 606.9999992578685 427.26154608468056C626.1666664562807 427.836546100633 643.4166669348518 403.2265454178715 653.000000534058 396.9015452423954 " transform="rotate(69, 400, 400)"></path><path d="M157.99998641967778 436.63625645786703C167.1666533406576 421.648756042065 183.6666537984213 367.7212545459407 201.99998764038094 364.69625446201735C220.33332148234058 361.67125437809403 227.66665501912445 416.8912559100765 245.9999888610841 422.11625605503497C264.33332270304373 427.3412561999935 271.6666562398276 389.63875515400343 289.99999008178725 389.7762551578181C308.3333239237469 389.9137551616329 315.6666574605308 428.2762562259334 333.99999130249046 422.7762560733455C352.3333251444501 417.27625592075765 359.6666586812339 362.41375439869336 377.99999252319355 363.37625442539627C396.3333263651532 364.3387544520991 403.6666599019371 424.37125611759603 421.99999374389677 427.39625620151935C440.3333275858564 430.4212562854427 447.6666611226403 377.3462548129695 465.9999949645999 377.8962548282283C484.3333288065595 378.4462548434871 491.6666623433434 426.5987561793941 509.9999961853031 430.0362562747615C528.3333300272627 433.47375637012897 535.6666635640465 395.2212553088802 553.9999974060063 394.39625528599197C572.3333312479659 393.5712552631038 579.6666647847499 425.5262561496395 597.9999986267094 426.07625616489827C616.3333324686689 426.62625618015704 632.8333329264326 403.0862555270809 641.9999998474125 397.0362553592342 " transform="rotate(66, 400, 400)"></path><path d="M168.99998634338385 434.9709627100707C177.7499865861373 420.66471231316876 193.49998702309355 369.1884608850501 210.9999875086005 366.30096080494144C228.4999879941074 363.4134607248328 235.49998818831023 416.1234621871797 252.99998867381714 421.11096232554917C270.49998915932406 426.0984624639186 277.49998935352687 390.10971146547365 294.9999898390338 390.24096146911495C312.4999903245407 390.37221147275625 319.4999905187435 426.99096248867954 336.99999100425043 421.74096234302743C354.49999148975735 416.4909621973753 361.49999168396016 364.1222107444959 378.9999921694671 365.04096076998496C396.49999265497405 365.95971079547405 403.4999928491768 423.2634623852665 420.9999933346837 426.1509624653752C438.4999938201907 429.03846254548387 445.4999940143935 378.37596113994124 462.9999944999004 378.90096115450643C480.4999949854073 379.4259611690717 487.4999951796101 425.3897124442556 504.99999566511707 428.6709625352882C522.4999961506239 431.9522126263207 529.4999963448267 395.4384616133105 546.9999968303338 394.6509615914627C564.4999973158407 393.86346156961486 571.4999975100434 424.36596241585346 588.9999979955503 424.89096243041865C606.4999984810572 425.4159624449839 622.2499989180135 402.94596182159296 630.999999160767 397.1709616613757 " transform="rotate(63, 400, 400)"></path><path d="M179.9999862670899 433.3056842210634C188.33331983161702 419.68068384306156 203.3333202477658 370.6556824829486 219.99998737682003 367.90568240665465C236.66665450587425 365.15568233036066 243.33332135749595 415.35568372307205 259.9999884865502 420.1056838548525C276.6666556156044 424.8556839866329 283.33332246722614 390.5806830357329 299.99998959628033 390.70568303920084C316.6666567253345 390.83068304266874 323.3333235769563 425.70568401021467 339.9999907060105 420.7056838714984C356.6666578350647 415.7056837327822 363.3333246866864 365.8306823490874 379.9999918157406 366.7056823733627C396.6666589447948 367.58068239763804 403.33332579641655 422.15568391172616 419.9999929254708 424.9056839880201C436.666660054525 427.655684064314 443.3333269061467 379.40568272570204 459.9999940352009 379.90568273957365C476.6666611642551 380.4056827534453 483.33332801587676 424.18068396790625 499.99999514493106 427.3056840546039C516.6666622739854 430.4306841413016 523.333329125607 395.6556831765299 539.9999962546613 394.9056831557225C556.6666633837156 394.155683134915 563.3333302353371 423.20568394085655 579.9999973643913 423.7056839547282C596.6666644934455 424.2056839685998 611.6666649095944 402.80568337489416 619.9999984741214 397.3056832223063 " transform="rotate(60, 400, 400)"></path><path d="M190.99998619079594 431.64040573205614C198.9166530770967 418.6966553729544 213.16665347243807 372.12290408084704 228.99998724503956 369.5104040083678C244.83332101764108 366.89790393588856 251.1666545266817 414.5879052589643 266.99998829928325 419.10040538415575C282.8333220718847 423.6129055093472 289.16665558092535 391.05165460599216 304.99998935352687 391.17040460928666C320.83332312612833 391.28915461258117 327.166656635169 424.42040553174985 342.9999904077705 419.6704053999694C358.833324180372 414.9204052681889 365.1666576894126 367.5391539536789 380.9999914620141 368.3704039767405C396.8333252346156 369.20165399980203 403.1666587436563 421.0479054381857 418.99999251625775 423.660405510665C434.83332628885927 426.2729055831442 441.1666597978999 380.43540431146283 456.99999357050143 380.91040432464087C472.8333273431029 381.38540433781895 479.1666608521435 422.9716554915568 494.99999462474506 425.9404055739196C510.8333283973466 428.9091556562824 517.1666619063872 395.8729047397493 532.9999956789886 395.16040471998224C548.8333294515903 394.4479047002152 555.1666629606309 422.04540546585963 570.9999967332324 422.52040547903766C586.8333305058338 422.9954054922157 601.0833309011753 402.66540492819536 608.9999977874759 397.4404047832369 " transform="rotate(57, 400, 400)"></path><path d="M201.999986114502 429.97511007691116C209.49998632257638 417.7126097367095 222.99998669711033 373.5901085126078 237.99998711325912 371.11510844394326C252.99998752940792 368.6401083752787 258.99998769586745 413.8201096287189 273.99998811201624 418.0951097473213C288.9999885281651 422.3701098659237 294.99998869462456 391.5226090101137 309.9999891107734 391.63510901323485C324.9999895269222 391.74760901635597 330.99998969338174 423.13510988714734 345.99999010953053 418.6351097623027C360.9999905256793 414.135109637458 366.9999906921388 369.24760839213275 381.99999110828765 370.03510841398054C396.99999152443644 370.8226084358284 402.99999169089597 419.9401097985076 417.99999210704476 422.4151098671722C432.99999252319355 424.89010993583673 438.99999268965314 381.46510873108593 453.99999310580193 381.9151087435704C468.9999935219507 382.36510875605484 474.9999936884102 421.7626098490697 489.99999410455905 424.5751099270976C504.9999945207079 427.3876100051255 510.9999946871674 396.090109136831 525.9999951033162 395.41510911810434C540.9999955194651 394.7401090993776 546.9999956859245 420.88510982472496 561.9999961020733 421.3351098372095C576.9999965182221 421.7851098496939 590.499996892756 402.52510931535886 597.9999971008303 397.5751091780298 " transform="rotate(54, 400, 400)"></path><path d="M212.99998603820805 428.30982395850936C220.08331956805608 416.72857363720783 232.8333199217826 375.0573224811118 246.99998698147868 372.7198224162619C261.16665404117475 370.38232235141203 266.8333208650532 413.05232353521666 280.9999879247493 417.08982364723005C295.16665498444536 421.12732375924344 300.83332180832383 391.99357295097843 314.99998886801995 392.09982295392615C329.166655927716 392.20607295687387 334.83332275159444 421.84982377928793 348.99998981129056 417.5998236613791C363.1666568709866 413.3498235434703 368.83332369486504 370.95607236732974 382.99999075456117 371.69982238796376C397.16665781425723 372.44357240859784 402.8333246381357 418.83232369557265 416.9999916978318 421.16982376042256C431.1666587575279 423.5073238252724 436.8333255814063 382.4948226874522 450.99999264110244 382.91982269924307C465.1666597007985 383.344822711034 470.8333265246769 420.5535737433257 484.99999358437304 423.2098238170188C499.16666064406917 425.8660738907118 504.8333274679476 396.3073230706559 518.9999945276437 395.66982305296955C533.1666615873398 395.03232303528324 538.8333284112182 419.7248237203335 552.9999954709143 420.14982373212445C567.1666625306103 420.5748237439153 579.9166628843368 402.38482323926553 586.9999964141849 397.70982310956583 " transform="rotate(51, 400, 400)"></path><path d="M223.9999859619141 426.6445454695021C230.6666528135358 415.7445451671006 242.66665314645485 376.52454407901024 255.99998684969822 374.3245440179751C269.3333205529416 372.12454395693993 274.66665403423895 412.284545071109 287.99998773748234 416.0845451765333C301.3333214407257 419.8845452819577 306.6666549220231 392.4645445212377 319.99998862526644 392.56454452401204C333.33332232850984 392.66454452678636 338.6666558098072 420.5645453008231 351.99998951305054 416.5645451898501C365.33332321629393 412.5645450788771 370.6666566975913 372.66454397192126 383.9999904008347 373.3645439913415C397.3333241040781 374.06454401076184 402.66665758537545 417.72454522203225 415.99999128861884 419.92454528306746C429.3333249918621 422.1245453441026 434.66665847315954 383.524544273213 447.9999921764029 383.9245442843103C461.3333258796463 384.3245442954076 466.6666593609436 419.34454526697635 479.99999306418704 421.8445453363345C493.33332676743044 424.3445454056926 498.6666602487278 396.5245446338753 511.99999395197113 395.92454461722934C525.3333276552146 395.3245446005834 530.666661136512 418.5645452453366 543.9999948397553 418.9645452564339C557.3333285429986 419.3645452675312 569.3333288759177 402.2445447925667 575.9999957275394 397.84454467049636 " transform="rotate(48, 400, 400)"></path><path d="M234.99998588562016 424.97926507314617C241.2499860590155 414.7605147896448 252.49998637112708 377.99176376956007 264.99998671791775 375.9292637123396C277.4999870647084 373.86676365511914 282.49998720342467 411.51676469965264 294.99998755021534 415.079264798488C307.499987897006 418.6417648973233 312.4999880357223 392.9355141841483 324.999988382513 393.02926418674923C337.49998872930365 393.12301418935016 342.49998886801995 419.27926491500966 354.9999892148106 415.52926481097245C367.4999895616013 411.77926470693524 372.49998970031754 374.37301366916415 384.9999900471082 375.02926368737064C397.4999903938989 375.6855137055772 402.49999053261513 416.6167648411432 414.9999908794058 418.67926489836367C427.49999122619647 420.74176495558413 432.4999913649127 384.55426395162516 444.9999917117034 384.92926396202887C457.49999205849406 385.3042639724326 462.4999921972103 418.1355148832783 474.999992544001 420.47926494830153C487.4999928907917 422.8230150133248 492.49999302950795 396.7417642897461 504.9999933762987 396.1792642741405C517.4999937230893 395.6167642585349 522.4999938618056 417.40426486299106 534.9999942085963 417.77926487339477C547.4999945553868 418.1542648837985 558.7499948674986 402.10426443851924 564.9999950408939 397.9792643240783 " transform="rotate(45, 400, 400)"></path><path d="M245.9999858093262 423.3139884914875C251.83331930449518 413.7764882268863 262.33331959579937 379.45898727480716 273.9999865861373 377.5339872214014C285.66665357647526 375.6089871679956 290.33332037261044 410.74898814289355 301.9999873629484 414.0739882351399C313.6666543532864 417.3989883273862 318.3333211494216 393.4064876617562 329.9999881397595 393.49398766418375C341.66665513009747 393.5814876666113 346.33332192623266 417.9939883438934 357.9999889165706 414.49398824679207C369.66665590690855 410.99398814969067 374.3333227030438 376.0814871811043 385.99998969338174 376.6939871980971C397.6666566837197 377.3064872150898 402.3333234798548 415.50898827495143 413.9999904701928 417.4339883283572C425.6666574605308 419.35898838176297 430.33332425666595 385.5839874447346 441.99999124700395 385.9339874544447C453.66665823734184 386.28398746415485 458.3333250334771 416.9264883142775 469.999992023815 419.11398837496586C481.66665901415297 421.3014884356543 486.33332581028816 396.95898776031413 497.99999280062616 396.4339877457489C509.6666597909641 395.9089877311837 514.3333265870992 416.2439882953428 525.9999935774372 416.5939883050529C537.6666605677751 416.94398831476303 548.1666608590793 401.96398789916907 553.9999943542483 398.11398779235753 " transform="rotate(42, 400, 400)"></path><path d="M256.99998573303225 421.6486928363426C262.41665254997486 412.7924425906414 272.1666528204716 380.9261917065679 282.9999864543569 379.1386916569769C293.8333200882421 377.35119160738583 298.1666535417962 409.9811925126482 308.99998717568144 413.06869259830546C319.83332080956666 416.1561926839628 324.1666542631208 393.87744206587774 334.999987897006 393.9586920681319C345.8333215308913 394.039942070386 350.1666549844454 416.7086926992909 360.99998861833063 413.45869260912536C371.8333222522159 410.20869251895977 376.16665570577 377.78994161955814 386.99998933965526 378.35869163533715C397.8333229735405 378.9274416511161 402.1666564270946 414.40119263527333 412.9999900609798 416.1886926848644C423.83332369486504 417.9761927344555 428.1666571484192 386.6136918643577 438.9999907823044 386.93869187337424C449.83332441618967 387.2636918823908 454.16665786974374 415.7174426717904 464.999991503629 417.7486927281439C475.8333251375143 419.7799427844974 480.1666585910683 397.1761921573958 490.99999222495364 396.688692143871C501.83332585883886 396.20119213034616 506.166659312393 415.0836926542081 516.9999929462782 415.40869266322466C527.8333265801634 415.73369267224126 537.5833268506601 401.8236922863326 542.9999936676028 398.2486921871504 " transform="rotate(39, 400, 400)"></path><path d="M267.9999856567383 419.9834124399867C272.99998579545456 411.8084122131856 281.9999860451438 382.3934113971178 291.99998632257643 380.7434113513414C301.9999866000089 379.09341130556504 305.99998671098194 409.21341214119184 315.9999869884145 412.0634122202601C325.99998726584704 414.9134122993284 329.99998737682006 394.3484117287884 339.99998765425255 394.42341173086913C349.9999879316851 394.4984117329499 353.9999880426581 415.42341231347746 363.99998832009067 412.42341223024766C373.9999885975232 409.4234121470179 377.9999887084962 379.498411316801 387.9999889859287 380.0234113313663C397.9999892633613 380.54841134593147 401.9999893743343 413.2934122543843 411.99998965176684 414.9434123001607C421.9999899291994 416.59341234593705 425.9999900401724 387.64341154276985 435.9999903176049 387.9434115510928C445.99999059503745 388.2434115594158 449.99999070601046 414.50841228809236 459.999990983443 416.38341234011097C469.99999126087556 418.25841239212957 473.9999913718486 397.3934118132666 483.9999916492811 396.9434118007821C493.9999919267137 396.49341178829764 497.99999203768664 413.92341227186256 507.9999923151192 414.2234122801855C517.9999925925517 414.5234122885085 526.999992842241 401.68341193228514 531.9999929809572 398.3834118407324 " transform="rotate(36, 400, 400)"></path><path d="M279.0000008392334 418.3181320436308C283.58333429972333 410.82438183572975 291.8333345286052 383.8606310876676 301.000001449585 382.34813104570594C310.1666683705648 380.83563100374425 313.8333351389567 408.4456317697355 323.0000020599366 411.0581318422148C332.16666898091637 413.670631914694 335.83333574930833 394.819381391699 345.00000267028815 394.88813139360633C354.166669591268 394.9568813955137 357.83333635965994 414.13813192766395 367.00000328063976 411.38813185137C376.1666702016196 408.6381317750761 379.8333369700115 381.206881014044 389.0000038909913 381.6881310273954C398.16667081197113 382.1693810407468 401.8333375803631 412.18563187349525 411.0000045013429 413.69813191545694C420.16667142232274 415.2106319574186 423.8333381907147 388.673131221182 433.00000511169446 388.9481312288114C442.1666720326743 389.2231312364408 445.83333880106625 413.2993819043943 455.00000572204607 415.018131952078C464.1666726430259 416.73688199976175 467.8333394114178 397.61063146913733 477.0000063323977 397.19813145769325C486.1666732533775 396.78563144624917 489.83334002176946 412.763131889517 499.0000069427492 413.0381318971464C508.166673863729 413.3131319047758 516.4166740926108 401.5431315782377 521.0000075531008 398.51813149431433 " transform="rotate(33, 400, 400)"></path><path d="M290.00000076293946 416.6528421105317C294.16666754520304 409.8403419215308 301.66666775327747 385.3278412414743 310.00000131780456 383.9528412033273C318.33333488233166 382.57784116518036 321.6666683081425 407.677841861536 330.0000018726696 410.05284192742624C338.33333543719675 412.42784199331646 341.6666688630076 395.29034151786647 350.0000024275347 395.3528415196004C358.3333359920618 395.41534152133437 361.66666941787264 412.85284200510733 370.0000029823998 410.3528419357492C378.3333365469269 407.8528418663911 381.66666997273774 382.9153411745437 390.00000353726483 383.35284118668136C398.3333371017919 383.790341198819 401.66667052760283 411.07784195586305 410.0000040921299 412.45284199401004C418.333337656657 413.82784203215704 421.6666710824679 389.702841362851 430.00000464699497 389.9528413697868C438.3333382115221 390.20284137672263 441.6666716373329 412.0903419839531 450.00000520186006 413.652842027302C458.3333387663872 415.21534207065076 461.666672192198 397.82784158826496 470.00000575672516 397.45284157786125C478.3333393212523 397.07784156745754 481.6666727470631 411.6028419704283 490.0000063115902 411.8528419773641C498.3333398761173 412.1028419842999 505.8333400841917 401.4028416874471 510.00000686645524 398.6528416111531 " transform="rotate(30, 400, 400)"></path><path d="M301.00000068664554 414.9875617141758C304.75000079068275 408.85631154407497 311.5000009779497 386.7950609320241 319.00000118602406 385.5575608976918C326.5000013940985 384.3200608633596 329.5000014773283 406.91006149007967 337.00000168540265 409.0475615493809C344.5000018934771 411.1850616086821 347.5000019767068 395.76131118077706 355.00000218478124 395.8175611823376C362.50000239285566 395.87381118389817 365.5000024760854 411.5675616192939 373.00000268415977 409.31756155687157C380.5000028922342 407.06756149444925 383.50000297546393 384.6238108717866 391.00000318353835 385.0175608827105C398.5000033916127 385.4113108936344 401.5000034748425 409.970061574974 409.00000368291694 411.2075616093063C416.5000038909913 412.4450616436386 419.5000039742211 390.7325610412632 427.00000418229547 390.9575610475054C434.5000043903699 391.18256105374763 437.50000447359963 410.88131160025506 445.00000468167406 412.28756163926903C452.5000048897485 413.69381167828294 455.5000049729782 398.04506124413575 463.00000518105264 397.70756123477236C470.50000538912707 397.370061225409 473.5000054723568 410.4425615880827 481.0000056804312 410.6675615943249C488.5000058885056 410.8925616005672 495.25000607577255 401.2625613333996 499.0000061798097 398.7875612647351 " transform="rotate(27, 400, 400)"></path><path d="M312.00000061035155 413.32227368842535C315.33333403616246 407.87227353722466 321.3333342026219 388.2622729931794 328.0000010542436 387.16227296266186C334.6666679058653 386.06227293214425 337.333334646514 406.1422734892288 344.0000014981357 408.042273541941C350.6666683497574 409.94227359465316 353.3333350904061 396.2322732142932 360.0000019420278 396.28227321568033C366.6666687936495 396.3322732170675 369.33333553429816 410.2822736040859 376.0000023859198 408.2822735485994C382.6666692375415 406.2822734931129 385.3333359781902 386.33227293963495 392.0000028298119 386.6822729493451C398.6666696814336 387.0322729590552 401.33333642208225 408.86227356469044 408.00000327370395 409.96227359520805C414.6666701253256 411.0622736257256 417.3333368659743 391.7622730902808 424.000003717596 391.96227309582946C430.6666705692177 392.1622731013781 433.33333730986635 409.67227358716246 440.00000416148805 410.92227362184155C446.66667101310975 412.17227365652064 449.3333377537584 398.26227327061196 456.0000046053801 397.962273262289C462.6666714570018 397.662273253966 465.3333381976505 409.2822735763426 472.0000050492722 409.48227358189126C478.66667190089385 409.6822735874399 484.6666720673534 401.12227334995765 488.0000054931642 398.9222732889225 " transform="rotate(24, 400, 400)"></path><path d="M323.0000005340576 411.6569923383951C325.9166672816421 406.8882422060945 331.1666674272942 389.729491730055 337.0000009224632 388.76699170335206C342.83333441763216 387.8044916766492 345.1666678156997 405.37449216409817 351.0000013108687 407.0369922102213C356.8333348060377 408.69949225634446 359.16666820410535 396.70324192352945 365.0000016992743 396.7469919247432C370.8333351944433 396.790741925957 373.16666859251086 408.9969922645981 379.00000208767983 407.2469922160474C384.8333355828488 405.4969921674967 387.1666689809164 388.0407416832035 393.0000024760854 388.3469916916999C398.83333597125437 388.6532417001963 401.16666936932194 407.7544922301271 407.00000286449097 408.71699225683C412.83333635965994 409.67949228353285 415.1666697577275 392.79199181501866 421.0000032528965 392.9669918198737C426.83333674806545 393.1419918247288 429.1666701461331 408.46324224979014 435.00000364130204 409.5569922801343C440.833337136471 410.6507423104785 443.16667053453864 398.47949197280843 449.0000040297076 398.21699196552584C454.8333375248766 397.95449195824324 457.16667092294415 408.12199224032275 463.0000044181131 408.2969922451778C468.8333379132821 408.4719922500329 474.0833380589342 400.9819920422359 477.0000048065187 399.05699198883013 " transform="rotate(21, 400, 400)"></path><path d="M334.0000004577637 409.99170812734195C336.5000005271218 405.9042080139414 341.00000065196645 391.19670760590753 346.00000079068275 390.3717075830193C351.000000929399 389.54670756013115 353.0000009848855 404.60670797794455 358.0000011236018 406.0317080174787C363.00000126231805 407.4567080570128 365.00000131780456 397.17420777174283 370.0000014565208 397.2117077727832C375.0000015952371 397.24920777382357 377.00000165072356 407.71170806408736 382.00000178943986 406.21170802247246C387.00000192815617 404.71170798085757 389.0000019836426 389.74920756574915 394.00000212235886 390.01170757303174C399.00000226107517 390.2742075803144 401.0000023165617 406.6467080345408 406.0000024552779 407.471708057429C411.0000025939942 408.29670808031716 413.00000264948073 393.82170767873356 418.000002788197 393.97170768289504C423.0000029269132 394.1217076870565 425.0000029823998 407.2542080513948 430.00000312111604 408.1917080774041C435.0000032598323 409.1292081034134 437.00000331531885 398.6967078139819 442.0000034540351 398.4717078077397C447.00000359275134 398.24670780149745 449.00000364823785 406.96170804327994 454.00000378695415 407.1117080474414C459.0000039256704 407.2617080516029 463.50000405051503 400.8417078734912 466.00000411987315 399.1917078277148 " transform="rotate(18, 400, 400)"></path><path d="M344.99999656677244 408.3264210552659C347.08332995790425 404.9201709607654 350.83333006194147 392.66392062073714 354.99999684420504 391.9764206016637C359.16666362646856 391.28892058259015 360.833330339374 403.838920930768 364.99999712163753 405.0264209637131C369.1666639039011 406.2139209966582 370.8333306168065 397.6451707589332 374.9999973990701 397.6764207598002C379.16666418133366 397.70767076066716 380.83333089423905 406.4264210025537 384.99999767650263 405.1764209678746C389.16666445876615 403.9264209331955 390.8333311716716 391.4576705872718 394.9999979539351 391.6764205933407C399.1666647361987 391.89517059940954 400.83333144910415 405.5389209779315 404.9999982313677 406.226420997005C409.16666501363125 406.9139210160785 410.8333317265367 394.8514206814255 414.9999985088002 394.9764206848934C419.1666652910638 395.1014206883613 420.8333320039692 406.04517099197653 424.99999878623277 406.826421013651C429.16666556849634 407.6076710353254 430.83333228140174 398.9139207941325 434.9999990636653 398.7264207889306C439.1666658459289 398.53892078372877 440.8333325588343 405.8014209852141 444.9999993410978 405.926420988682C449.1666661233614 406.05142099214993 452.9166662273986 400.70142084372355 454.99999961853035 399.32642080557656 " transform="rotate(15, 400, 400)"></path><path d="M355.9999964904785 406.66113875156134C357.66666320338396 403.93613867596093 360.6666632866137 394.13113840393834 363.99999671242455 393.58113838867956C367.3333301382354 393.0311383734208 368.66666350855974 403.07113865196305 371.9999969343706 404.0211386783191C375.33333036018144 404.97113870467524 376.6666637305058 398.1161385144952 379.9999971563166 398.1411385151888C383.3333305821275 398.1661385158824 384.6666639524518 405.14113870939156 387.9999973782626 404.14113868164833C391.3333308040735 403.14113865390505 392.66666417439785 393.16613837716613 395.99999760020864 393.3411383820212C399.33333102601955 393.51613838687626 400.6666643963439 404.43113868969385 403.9999978221547 404.9811387049526C407.33333124796553 405.53113872021146 408.6666646182899 395.88113845248904 411.9999980441007 395.98113845526336C415.33333146991157 396.0811384580377 416.6666648402359 404.8361387009299 419.99999826604676 405.4611387182694C423.3333316918576 406.0861387356089 424.66666506218195 399.13113854265464 427.9999984879928 398.98113853849316C431.33333191380365 398.83113853433167 432.666665284128 404.64113869551994 435.99999870993884 404.74113869829426C439.33333213574963 404.8411387010686 442.3333322189794 400.5611385823275 443.9999989318849 399.4611385518099 " transform="rotate(12, 400, 400)"></path><path d="M366.9999964141846 404.99585454050816C368.2499964488636 402.9521044838079 370.499996511286 395.5983542797909 372.9999965806441 395.1858542683468C375.49999665000223 394.77335425690273 376.49999667774546 402.30335446580943 378.99999674710364 403.0158544855765C381.49999681646176 403.7283545053436 382.49999684420504 398.58710436270854 384.9999969135631 398.60585436322873C387.4999969829213 398.624604363749 388.4999970106645 403.85585450888084 390.9999970800227 403.1058544880734C393.4999971493808 402.35585446726594 394.49999717712404 394.87460425971176 396.99999724648217 395.00585426335306C399.49999731584035 395.13710426699436 400.4999973435836 403.32335449410755 402.9999974129417 403.73585450555163C405.4999974822998 404.1483545169957 406.4999975100431 396.91085431620394 408.9999975794012 396.9858543182847C411.49999764875935 397.0608543203654 412.49999767650263 403.62710450253456 414.99999774586075 404.0958545155392C417.4999978152189 404.5646045285439 418.49999784296216 399.3483543838281 420.9999979123203 399.235854380707C423.4999979816784 399.1233543775859 424.4999980094217 403.48085449847713 426.9999980787798 403.55585450055787C429.49999814813793 403.6308545026386 431.74999821056025 400.4208544135828 432.99999824523934 399.59585439069457 " transform="rotate(9, 400, 400)"></path><path d="M378.0000001525879 403.33056842210635C378.8333335090406 401.96806838430615 380.3333335506555 397.0655682482949 382.0000002635609 396.7905682406655C383.66666697646633 396.51556823303605 384.3333336616285 401.5355683723072 386.0000003745339 402.01056838548527C387.66666708743935 402.4855683986633 388.3333337726015 399.0580683035733 390.0000004855069 399.0705683039201C391.66666719841237 399.0830683042669 392.33333388357454 402.5705684010215 394.00000059647994 402.0705683871498C395.6666673093854 401.5705683732782 396.33333399454756 396.58306823490875 398.00000070745295 396.6705682373363C399.6666674203584 396.7580682397638 400.3333341055206 402.2155683911726 402.000000818426 402.490568398802C403.6666675313314 402.7655684064314 404.33333421649354 397.9405682725702 406.000000929399 397.99056827395736C407.66666764230445 398.0405682753445 408.33333432746656 402.4180683967906 410.000001040372 402.7305684054604C411.66666775327747 403.0430684141302 412.3333344384396 399.565568317653 414.00000115134503 399.49056831557226C415.6666678642505 399.4155683134915 416.3333345494126 402.3205683940856 418.00000126231805 402.3705683954728C419.66666797522345 402.42056839685995 421.16666801683834 400.2805683374894 422.00000137329107 399.7305683222306 " transform="rotate(6, 400, 400)"></path><path d="M389.00000007629393 401.6652842110532C389.4166667545203 400.9840341921531 390.1666667753277 398.53278412414744 391.00000013178044 398.39528412033275C391.83333348823317 398.25778411651805 392.1666668308143 400.7677841861536 393.00000018726695 401.00528419274264C393.8333335437197 401.24278419933165 394.16666688630073 399.5290341517866 395.00000024275346 399.53528415196C395.8333335992062 399.5415341521334 396.1666669417873 401.2852842005107 397.00000029823997 401.0352841935749C397.8333336546927 400.7852841866391 398.16666699727375 398.2915341174544 399.0000003537265 398.33528411866814C399.8333337101792 398.3790341198819 400.16666705276026 401.1077841955863 401.000000409213 401.245284199401C401.8333337656657 401.3827842032157 402.16666710824677 398.9702841362851 403.0000004646995 398.9952841369787C403.8333338211522 399.02028413767226 404.1666671637333 401.20903419839533 405.000000520186 401.3652842027302C405.83333387663873 401.5215342070651 406.1666672192198 399.7827841588265 407.0000005756725 399.7452841577861C407.83333393212524 399.70778415674573 408.1666672747063 401.1602841970428 409.000000631159 401.1852841977364C409.8333339876117 401.21028419843 410.5833340084192 400.1402841687447 411.00000068664554 399.8652841611153 " transform="rotate(3, 400, 400)"></path></g></svg>